<?xml version="1.0" encoding="utf-8"?>
<!-- Generator: Adobe Illustrator 22.1.0, SVG Export Plug-In . SVG Version: 6.00 Build 0)  -->
<svg version="1.1" id="Layer_1" xmlns="http://www.w3.org/2000/svg" xmlns:xlink="http://www.w3.org/1999/xlink" x="0px" y="0px"
	 viewBox="0 0 230 230" style="enable-background:new 0 0 230 230;" xml:space="preserve">
<style type="text/css">
	.st0{fill:#0E0E0E;}
	.st1{fill:#4F4F4F;}
	.st2{fill:#C2C0C0;}
	.st3{opacity:0.58;fill:#777676;enable-background:new    ;}
	.st4{fill:#777676;}
	.st5{opacity:0.24;fill:#494848;enable-background:new    ;}
	.st6{fill:#D02027;}
	.st7{opacity:0.72;fill:#E6E6E5;enable-background:new    ;}
	.st8{fill:#921A1D;}
	.st9{fill:#565656;}
	.st10{fill:#3D3D3D;}
	.st11{fill:#232323;}
</style>
<g id="Sketch">
</g>
<g id="Sword">
</g>
<g id="Layer_3">
	<g>
		<path class="st0" d="M70.6,151.8l4.2,1.6c0,0,4.3,17.3,3.6,17.9c-0.7,0.6-6.4,1.8-8.2-3.2s-1.4-10.1-2.3-11.5
			C67,155.2,70.6,151.8,70.6,151.8z"/>
		<path class="st0" d="M59.9,50.1l-0.3,12.2c0,0,0,3.8,0.7,5.2c0,0-1.5-1.3-1.8-3.6c0,0,0.2,4.1,1.2,6.2c0,0-2.9-3.6-2.9-7.6
			c0,0-0.6,6.4,1.6,10.4c0,0-14.8-17.4-6-33.1c0,0,2.6-7.3,9.3-6.8c0,0,3.9-8.7,12.9-6.2S87.8,35,90.4,44.5s1.4,12.7,2.6,16.7
			c0,0-3.3-3.1-3.8-6.6c0,0,0.8,7.4,2.8,9.9c0,0-2.7-0.6-3.6-2.1c0,0,0.3,4.4,1.4,5.6h2.8c0,0,1,6.1,1.9,6.9c0,0,5.9,2.5,6.5,2.4
			l-0.4,0.8c0,0,4.1,2.3,7.2,1.5c0,0,4,7,4.3,9.3s4,18.2,4.3,19c0,0,1.8,1.2,2.5,3.7c0.6,2.5,3.6,11.2,3.6,11.2s3.4-0.6,3.7-0.2
			c0.3,0.4,1.4,12.6,1.4,12.6s4.7,6.1,2.2,8.5c0,0-5.9,4.9-10.6,2.9s-3.1-7.8-3.1-7.8s-1.6,0.1-2.2-0.5l-3.8-10.2
			c0,0,0.8-1.9,2.4-2.6c0,0-4.4-9.8-4.2-15.1c0,0-6.6-13.5-6.7-16.7c0,0-1.9,13.6-1.8,20.8c0,7.3,3.9,15.9,3.9,15.9
			s-8.4,3.4-10.9,7.5c0,0-7.9,19-9,25.5l-2.5,1.9c0,0,1.4,18.5-2.7,31.8c0,0-1.2,0.9-4.7,0.4c0,0-2.6,15.9-12.9,12.3
			s1.3-16.7,1.3-16.7s-2.1-0.4-2.9-2.4c0,0,10-24.3,12.6-27.5c0,0-0.6-3.3-0.5-4.7c0,0,6.1-24.9,5.9-27.5c0,0-3.5,0.8-6.6-0.6
			c0,0-11.2,11.5-15.8,14.4c0,0,16.5,6,17.7,5.7c0,0-3.9,12.4-6.9,13.8c0,0-16.3-6.6-18.8-6.9c-2.6-0.3-5.4,1.2-6.5,0.8
			s-4.4-9.6-4.4-12.9c0-3.3,23.1-22.3,25-23.3c0,0,1.4-3.6,1.8-4l-1.1-1.6l1.1-1.9c0,0-2.8-0.4-4-2.2c0,0,0-1.2,0.1-1.9
			c0.1-0.8-3.9-15.8-3.6-19.2c0,0-1.3,0.2-1.5-0.1c0,0-2-9-1.5-9.7c0,0,2-1.4,2.3-1.4c0,0-1.3-6.3,0.7-7.8s4.9-4.5,6.3-2.6
			c1.4,2,0.6,7.1,0.6,7.1h2.2c0,0,1.3,9.5,0.9,10.6c0,0-0.3,0.9-1.4,1.7c0,0.5,1.1,4.2,1.1,4.4c0,0,2.7-9.1,2.3-10.8
			c0,0,6.4-3.1,6.9-4.2c0,0,2.9-4.8,2.8-6.5L59.9,50.1z"/>
		<path class="st1" d="M77.8,72.4c0,0,1.4,0.2,1.9,0.2c0.5-0.1,8.6-9.3,4.9-16.7C84.6,55.9,80.2,71.5,77.8,72.4z"/>
		<path class="st0" d="M59.7,63.6c0,0,5.4,5.8,8.3,6.9c3,1.1,8.7,2.8,11.4,1.6c0,0,6.3-6.6,5.9-13.5l-0.7-3.2"/>
		<path class="st2" d="M67.4,64.2l0.2,2.2l-3.7,1.9c0,0-1.3-1.2-1.3-1.3C62.7,67,67.4,64.2,67.4,64.2z"/>
		<path class="st2" d="M80.4,52.8l-3.2,4l-21.4,4.3L54.6,59c0.7-3.2,2.5-6,4.7-8.4c4.4-4.8,10.2-7.8,10.2-7.8
			c4.5,2.1,10.7-1.3,11-1.5C78.8,45.3,80.4,52.8,80.4,52.8z"/>
		<path class="st3" d="M69.5,42.9l0.3,4c0,0-7.4,4.9-8.6,7.1c0,0-1.5-1.4-1.9-3.3C63.8,45.9,69.5,42.9,69.5,42.9z"/>
		<path class="st3" d="M80.4,52.8h-1.8c-2.7-2.9-0.8-8.8-0.8-8.8l2.6-2.5C78.8,45.3,80.4,52.8,80.4,52.8z"/>
		<path class="st4" d="M78.7,52.8c0,0-5.9,9.5-15.6,14.8c0,0-0.4-0.1-1-0.4c-0.5-0.2-1.2-0.6-2-1.1c-0.3-0.2-0.6-0.4-0.9-0.6
			c-0.3-0.2-0.6-0.4-0.8-0.6c-0.3-0.2-0.5-0.4-0.7-0.7c-0.2-0.2-0.4-0.4-0.6-0.6c-0.5-0.6-0.9-1.2-1.2-1.8c-0.1-0.3-0.2-0.6-0.3-0.9
			c0,0,1.6-9.2,14.1-15.7c0,0,5.5,1,8.3-1.2C77.9,43.9,77.5,50.3,78.7,52.8z"/>
		<path class="st5" d="M78.7,52.8c0,0-5.9,9.5-15.6,14.8c0,0-0.4-0.1-1-0.4c-0.5-0.2-1.2-0.6-2-1.1c-0.3-0.2-0.6-0.4-0.9-0.6
			c-0.3-0.2-0.6-0.4-0.8-0.6C70.8,55.8,78,44,78,44S77.5,50.3,78.7,52.8z"/>
		<path class="st6" d="M73.2,56.7c0,0-1,1.1-2.5,2.7c-1.8,1.9-4.3,4.4-6.5,6.2c-0.8,0.7-1.5,1.2-2.2,1.6c-0.2-0.1-0.4-0.2-0.6-0.3
			l0,0c-0.4-0.2-0.9-0.5-1.3-0.8c0.5-0.4,1.2-1,2-1.8c2.4-2.1,5.9-5.3,7.9-7.5c0.5-0.5,0.9-1,1.2-1.4c0,0,0.4-0.5,0.9-0.8
			c0.3-0.2,0.8-0.2,1.2,0.2C74.3,55.5,73.2,56.7,73.2,56.7z"/>
		<path class="st6" d="M69.4,51c0,0-0.1,0.1-0.2,0.2l0,0c-0.5,0.4-1.7,1.5-3.2,2.9c-2.4,2.3-5.6,5.3-7.5,7.5
			c-0.6,0.7-1.1,1.3-1.3,1.8c0,0,0,0.1,0,0.2c-0.4-0.4-0.7-0.9-1-1.4C56,62,56,61.9,55.9,61.7c0.1-0.1,0.1-0.1,0.1-0.1
			s0.3-0.4,0.9-1.1c1.7-2,5.7-6.5,8.4-9c0.7-0.7,1.4-1.2,1.9-1.5c0,0,1.3-0.9,1.9-0.5C69.4,49.6,69.9,50.2,69.4,51z"/>
		<path class="st6" d="M75,49.3c-0.1,0.6-0.6,1.2-0.6,1.2s-1,1-2.4,2.6c-0.8,0.8-1.7,1.8-2.7,2.9l0,0c-2.6,2.7-5.6,5.8-7.9,7.7
			c-0.9,0.8-1.6,1.3-2.2,1.7c-0.5-0.3-1-0.7-1.4-1.2c-0.1,0-0.1-0.1-0.2-0.1c0.3-0.3,1-0.9,1.8-1.7c3.1-3,9.1-8.8,11.8-11.9
			c0.5-0.6,0.9-1.1,1.1-1.4c0,0,1.1-1.7,2.3-0.7C75,48.6,75.1,49,75,49.3z"/>
		<path class="st7" d="M77.9,43.9c0,0-3.1,4.4-3.4,4.5l0.4,0.4C74.9,48.8,77.7,44.8,77.9,43.9z"/>
		<polygon class="st0" points="69.5,84 68.5,84.9 45.1,59.2 44.8,58 46.1,58.3 		"/>
		<path class="st8" d="M69.4,51c0,0-2,1.7-3.5,3.1c0-0.4,0-1.2-0.2-1.8c-0.1-0.3-0.3-0.6-0.4-0.9c0.7-0.7,1.4-1.2,1.9-1.5
			c0,0,1.3-0.9,1.9-0.5C69.4,49.6,69.9,50.2,69.4,51z"/>
		<path class="st8" d="M75,49.3c-0.1,0.6-0.6,1.2-0.6,1.2s-1,1-2.4,2.6c0-0.3,0-0.9-0.3-1.6c-0.2-0.4-0.3-0.7-0.5-1
			c0.5-0.6,0.9-1.1,1.1-1.4c0,0,1.1-1.7,2.3-0.7C75,48.6,75.1,49,75,49.3z"/>
		<path class="st8" d="M73.2,56.7c0,0-1,1.1-2.5,2.7c0.1-0.4,0.1-1-0.2-1.8c-0.1-0.3-0.3-0.6-0.4-0.8c0.5-0.5,0.9-1,1.2-1.4
			c0,0,0.4-0.5,0.9-0.8c0.3-0.2,0.8-0.2,1.2,0.2C74.3,55.5,73.2,56.7,73.2,56.7z"/>
		<path class="st8" d="M57.1,63.4c0,0,0,0.1,0,0.2c-0.4-0.4-0.7-0.9-1-1.4C56,62,56,61.9,55.9,61.7c0.1-0.1,0.1-0.1,0.1-0.1
			s0.3-0.4,0.9-1.1c0.4,0.3,0.9,0.7,1.5,1.1C57.8,62.3,57.3,62.9,57.1,63.4z"/>
		<path class="st8" d="M61.4,63.8c-0.9,0.8-1.6,1.3-2.2,1.7c-0.5-0.3-1-0.7-1.4-1.2c-0.1,0-0.1-0.1-0.2-0.1c0.3-0.3,1-0.9,1.8-1.7
			C60.1,62.9,60.7,63.3,61.4,63.8z"/>
		<path class="st9" d="M75,49.3c-0.8-1.8-2.1-0.3-2.1-0.3c0,0.1-0.1,0.2-0.2,0.3c-2,3-14.4,14.8-14.8,15.2c-0.1,0-0.3-0.3-0.4-0.3
			c1.6-1.4,12.9-12.3,14.8-15.1c0,0,1.1-1.7,2.3-0.7C75,48.6,75.1,49,75,49.3z"/>
		<path class="st8" d="M64.2,65.5c-0.8,0.7-1.5,1.2-2.2,1.6c-0.2-0.1-0.4-0.2-0.6-0.3l0,0c-0.4-0.2-0.9-0.5-1.3-0.8
			c0.5-0.4,1.2-1,2-1.8C62.9,64.8,63.7,65.2,64.2,65.5z"/>
		<path class="st9" d="M73.2,56.7c0,0-0.1,0.2-0.4,0.4c-1.6,1.7-7.5,8-10.8,10c-0.2-0.1-0.4-0.2-0.6-0.3c3.7-2,9.3-7.7,11.2-10.1
			c0.3-0.4,0.6-0.8,0.6-0.9c0.3-0.9-1.1-1.3-1.1-1.3c0.3-0.2,0.8-0.2,1.2,0.2C74.3,55.5,73.2,56.7,73.2,56.7z"/>
		<path class="st9" d="M69.4,51l-0.2,0.2c0-0.1,0.4-1.5-0.5-1.5c-0.2,0-0.5,0.1-0.8,0.2c-1.3,0.6-3.3,2.5-6.4,5.8
			c-1.6,1.7-3.3,3.9-5.3,6.4C56,62,56,61.9,55.9,61.7c0.1-0.1,8.3-9.9,11.4-11.8c0,0,0.2-0.1,0.5-0.3c0.5-0.2,1.2-0.5,1.7-0.2
			C69.6,49.7,70,50.4,69.4,51z"/>
		<path class="st10" d="M69.4,51l-0.2,0.2c0-0.1,0.4-1.5-0.5-1.5c-0.2,0-0.5,0.1-0.8,0.2l-0.1-0.3c0.5-0.2,1.2-0.5,1.7-0.2
			C69.6,49.7,70,50.4,69.4,51z"/>
		<path class="st10" d="M75,49.3c-0.8-1.8-2.1-0.3-2.1-0.3c0,0.1-0.1,0.2-0.2,0.3l-0.3-0.2c0,0,1.1-1.7,2.3-0.7
			C75,48.6,75.1,49,75,49.3z"/>
		<path class="st10" d="M73.2,56.7c0,0-0.1,0.2-0.4,0.4l-0.2-0.3c0.3-0.4,0.6-0.8,0.6-0.9c0.3-0.9-1.1-1.3-1.1-1.3
			c0.3-0.2,0.8-0.2,1.2,0.2C74.3,55.5,73.2,56.7,73.2,56.7z"/>
	</g>
	<g>
		<path class="st11" d="M145.7,69.4c0,0-9.4,10.8-11.1,19.9c-1.1,5.6,0.8,12.4,5,17.4c3.5,4.1,10.7,6.2,17,6.5c0,0-3.9-2.4-4.1-3.7
			c0,0,8.5,4.6,11.7,3.5c0,0-15.4-7.7-15.9-12.4s-4.4-20.2,2.3-27S145.7,69.4,145.7,69.4z"/>
		<path d="M197.4,199.3c-3.8-1.8-16.2-1.6-17.5-2.3c-1.3-0.6-1.5-2-1.5-2s0.3-2.5-0.2-6.4c-0.4-4-13.1-20.3-13.1-20.3l-15.6-5.5
			c-2.6,2.7-1.3,6.8-2.1,9.1c-0.9,2.3-6.9,6.6-10.7,2.7c-3.8-4,1.6-12.6,2.5-15.4c0.9-2.9,0.9-6.3,1.5-8.7s2.8-2,2.8-2
			s14.9,6.2,15.1,6.2c0-0.1-3.6-9.4-3.6-9.4l-5.3-1.8l0.3-0.9l-6-4.2l5.4-8l-0.4-1.6c0,0,4-10.6,3.7-12.3c-0.3-1.6-4.6-9.1-4.6-9.1
			c-0.3,1-2.5,3.9-2.9,4.2c-0.4,0.3-0.8-0.3-0.8-0.3s-4.7,5.6-4.9,9.9s-5.9,16.9-7.4,19.6c-1.5,2.7-5.1,1.3-5.1,1.3
			c-1.9,6.2-10,4.7-12-0.2s2.9-6.7,2.9-6.7s-1.1-0.1-0.4-2.9c0.6-2.8,12.8-12.1,13-13.1c0.2-1,3.8-9.3,3.7-9.6
			c0-0.2-0.4-1.1-0.4-1.1s2.4-4.9,3-5.6s1.4-0.3,1.8-1c0.4-0.6-0.2-1.2-0.2-1.2c-3-6.2,5.6-8.9,5.6-8.9l-0.5-0.5l2.6-6.8
			c0,0,1-0.5,1.1-1.2c0-0.1,0-0.3,0-0.5c0-0.4-0.1-0.8-0.3-1.1c-0.2-0.5-0.3-0.9-0.3-0.9l10.2-2.5l1.3,3.8l1.5,0.4l6.2,1.7l2.7,2.9
			l1.1-0.8c0,0-0.4-0.9-6.1-4c-5.6-3.1-3-7.2-1.4-7.8c1.7-0.6,6.1,0,9.7,2.2c3.6,2.2,2.3,6.7,3.1,6.2s3.9-0.7,3.9-0.7
			s7.2,8.1,8.1,15.6c0.8,7.4-3.6,7.1-7.4,6.7c-3.7-0.4-11-4.4-11.5-4.6c2.5,3.6,1.9,10.8,2,11.8s6.6,8,6.6,8l-0.6,2.4l10,8.7
			c-0.5,2.1-2.5,4.2-2.5,4.2l1.3,1.8c-2.5,1.8-6.9,4-6.9,4l-3.9,15.7c0,0,7.4,15.7,9.4,22.1c2,6.4,5.5,8.3,9.9,8.1
			c4.5-0.2,6.7-1.2,11.8,3.5C210.2,194.8,201.3,201.1,197.4,199.3z"/>
		<path class="st1" d="M156,81.6v2.5c-1.7,0.6-6.8,0-8.9-1c0-0.4-0.1-0.8-0.3-1.1l1-0.9l6.7,2.4L156,81.6z"/>
		<path d="M162.9,66.7c0,0-0.8,3.8,0.6,6.9C164.9,76.7,156,84,156,84s-8.5,1-13.9-5.5s-5.4-19.7-0.1-22.3c5.4-2.5,15.9-5.6,18.2,1.5
			C162.5,64.9,162.9,66.7,162.9,66.7z"/>
		<path d="M147.2,62.1c0,0-1.7,5.1-4.3,11.5s2.6,12.3,2.6,12.3s-8-2-11.9-16.7s6.4-17.5,9-16.1c0,0,3.2-7.7,8.1-3.6
			c0,0,3.6-4.1,8.8-1.5c5.2,2.5,10.5,10.2,7,27c0,0-0.3-7.1-6-10.9c-5.7-3.8-4.9-3.9-4.9-3.9s0.7,9.7-3.4,13c0,0,0.3-3.4,0-4.3
			C152,67.8,147.3,66.3,147.2,62.1z"/>
		<path d="M133.6,61c0,0-7.6-5-8.9,5.3s4.1,9.9,1.4,16.3c-2.6,6.4-9,2.9-12.4,5.9s-5.1,9.4-3.8,13.1c0,0-2.2,11.9,1.4,16.9
			c0,0-1.1-11.9,5.7-17.3c0,0-5.2,9.7,4.1,20.9c0,0-3.5-11,0.8-18.5s11.5-10.3,12.8-19.3C136,75.7,136.8,83.9,133.6,61z"/>
	</g>
</g>
</svg>
