<?xml version="1.0" encoding="utf-8"?>
<!-- Generator: Adobe Illustrator 23.0.6, SVG Export Plug-In . SVG Version: 6.00 Build 0)  -->
<svg version="1.1" xmlns="http://www.w3.org/2000/svg" xmlns:xlink="http://www.w3.org/1999/xlink" x="0px" y="0px"
	 viewBox="0 0 5428 2442" style="enable-background:new 0 0 5428 2442;" xml:space="preserve">
<style type="text/css">
	.st0{fill:#FFFFFF;}
</style>
<g id="Title">
	<g>
		<g>
			<path class="st0" d="M1853.49,836.4c-28.22-45.72-81.76-71.44-134.83-71c-57.03,0.48-112.24,29.03-151.46,69.44
				c-35.84,36.92-59.8,86.26-63.47,137.8c-3.72,52.23,18.6,101.93,59.58,134.38c43.95,34.8,98,49.26,151.71,61.42
				c28.74,6.51,57.64,12.86,85.38,22.98c12.12,4.43,22.13,8.72,34.83,16.08c5.2,3.01,10.28,6.26,15.19,9.73
				c1.23,0.87,2.45,1.75,3.66,2.65c0.46,0.34,4.39,3.45,1.14,0.85c2.35,1.88,4.67,3.78,6.94,5.76c4.51,3.93,8.82,8.08,12.9,12.46
				c2.02,2.17,3.99,4.39,5.89,6.67c0.95,1.13,1.87,2.28,2.79,3.44c-2.7-3.41,1.14,1.61,1.58,2.24c3.37,4.75,6.45,9.71,9.18,14.85
				c1.36,2.56,2.57,5.17,3.79,7.79c-1.87-4.02,0.13,0.34,0.39,1.02c0.69,1.79,1.34,3.6,1.94,5.42c1.81,5.51,3.06,11.1,4.09,16.8
				c0.86,4.78-0.23-3.88,0.11,0.99c0.1,1.46,0.27,2.92,0.35,4.38c0.23,3.93,0.24,7.88,0.03,11.81c-0.09,1.77-0.28,3.52-0.4,5.28
				c-0.4,5.65,0.71-3.36-0.27,2.21c-0.51,2.9-1.03,5.79-1.7,8.66c-1.73,7.51-4.1,14.86-6.9,22.04c-0.03,0.07-2.27,5.49-0.92,2.32
				c-0.71,1.65-1.45,3.29-2.2,4.91c-1.51,3.26-3.1,6.49-4.74,9.68c-3.45,6.69-7.17,13.23-11.06,19.67
				c-6.7,11.11-13.93,21.9-21.68,32.31c-0.93,1.25-1.87,2.49-2.82,3.74c2.43-3.2-0.72,0.92-1.01,1.29c-1.93,2.45-3.9,4.87-5.89,7.28
				c-3.98,4.8-8.09,9.5-12.31,14.08c-8.77,9.53-18.05,18.58-27.85,27.05c-2.34,2.02-4.71,4.02-7.12,5.97
				c-1.2,0.98-2.42,1.93-3.62,2.9c-4,3.22,2.87-2.1-1.24,0.97c-5.36,4-10.78,7.9-16.37,11.57c-10.72,7.04-21.92,13.37-33.52,18.84
				c-2.32,1.1-4.67,2.13-7.02,3.18c-4.68,2.09,3.39-1.3-1.39,0.58c-1.44,0.57-2.87,1.15-4.31,1.71c-6.14,2.37-12.37,4.51-18.69,6.35
				c-5.67,1.66-11.4,3.09-17.18,4.29c-2.9,0.6-5.8,1.15-8.72,1.64c-1.46,0.24-2.93,0.46-4.39,0.69c-2.08,0.3-1.95,0.28,0.38-0.04
				c-0.98,0.13-1.96,0.24-2.94,0.36c-12.26,1.41-24.64,1.82-36.97,1.24c-5.91-0.28-11.78-0.87-17.66-1.54
				c4.55,0.52-2.81-0.45-3.96-0.65c-3.38-0.57-6.76-1.22-10.11-1.95c-11.92-2.59-23.59-6.23-34.87-10.87
				c4.09,1.68-0.42-0.22-1.05-0.5c-1.33-0.6-2.65-1.21-3.96-1.84c-2.62-1.25-5.21-2.57-7.78-3.94c-5.54-2.97-10.93-6.23-16.14-9.77
				c-2.4-1.63-4.75-3.34-7.08-5.08c3.46,2.57-0.43-0.36-0.94-0.77c-1.13-0.92-2.25-1.85-3.36-2.79c-4.46-3.81-8.69-7.85-12.74-12.09
				c-6.52-6.82-18.98-7.06-25.46,0c-6.72,7.32-6.96,18.18,0,25.46c36.06,37.7,86.28,57.71,137.72,61.85
				c51.92,4.17,103.85-9.66,148.52-35.96c45.57-26.82,83.28-65.51,112.85-109.06c31.71-46.71,59.1-105.22,36.52-161.61
				c-20.75-51.84-67.11-85.95-117.86-105.45c-53.65-20.62-111.68-25.82-165.68-45.26c-2.9-1.04-5.79-2.13-8.66-3.25
				c-1.44-0.56-2.86-1.15-4.3-1.72c-4.77-1.89,3.31,1.5-1.38-0.58c-6.09-2.7-12.12-5.5-18.02-8.6c-5.4-2.84-10.69-5.87-15.84-9.14
				c-2.56-1.62-5.08-3.29-7.56-5.03c-1.24-0.86-2.46-1.74-3.68-2.63c-0.81-0.59-1.61-1.19-2.41-1.8c1.66,1.29,1.69,1.3,0.09,0.04
				c-9.23-7.65-17.89-15.84-25.27-25.34c2.57,3.31-0.44-0.69-0.78-1.16c-0.87-1.22-1.73-2.46-2.56-3.71
				c-1.67-2.5-3.25-5.06-4.74-7.67c-1.43-2.5-2.78-5.06-4.04-7.65c-0.62-1.29-1.21-2.59-1.81-3.89c-0.81-1.86-0.76-1.74,0.14,0.37
				c-0.36-0.88-0.7-1.76-1.04-2.64c-2.01-5.28-3.66-10.69-4.98-16.18c-0.65-2.74-1.22-5.49-1.71-8.27
				c-0.24-1.36-0.58-2.79-0.66-4.17c0.32,5.01-0.1-1.26-0.19-2.21c-1.07-11.36-0.67-22.69,0.58-34.01c-0.52,4.73,0.03-0.1,0.15-0.9
				c0.22-1.42,0.46-2.84,0.72-4.26c0.52-2.85,1.1-5.68,1.76-8.5c1.42-6.15,3.16-12.23,5.18-18.21c0.94-2.78,1.94-5.54,3-8.28
				c0.53-1.37,1.09-2.73,1.64-4.1c-1.64,4.05,0.24-0.52,0.51-1.12c2.61-5.85,5.48-11.59,8.61-17.18c2.65-4.74,5.47-9.39,8.47-13.92
				c1.63-2.47,3.32-4.91,5.05-7.31c0.87-1.2,1.76-2.38,2.63-3.57c1.23-1.61,1.19-1.57-0.11,0.13c0.61-0.77,1.22-1.54,1.84-2.31
				c7.88-9.75,16.64-18.75,26.1-26.97c2.5-2.17,5.07-4.26,7.64-6.36c4.2-3.45-2.77,1.99,1.6-1.25c1.33-0.99,2.66-1.98,4.01-2.95
				c5.83-4.2,11.86-8.13,18.07-11.75c5.24-3.06,10.61-5.9,16.09-8.5c1.49-0.71,3-1.37,4.5-2.07c4.91-2.28-3.26,1.22,1.77-0.76
				c3.58-1.41,7.16-2.78,10.8-4.01c6.22-2.1,12.56-3.87,18.97-5.29c3.21-0.71,6.43-1.32,9.67-1.84c0.49-0.08,5.88-0.75,1.72-0.27
				c2.18-0.25,4.36-0.48,6.54-0.66c6.19-0.5,12.4-0.64,18.61-0.38c2.97,0.13,5.93,0.34,8.89,0.65c0.73,0.08,5.69,0.76,1.12,0.08
				c1.96,0.29,3.92,0.6,5.88,0.96c5.37,0.99,10.68,2.26,15.91,3.83c2.85,0.85,5.67,1.79,8.47,2.81c1.4,0.51,2.77,1.06,4.16,1.59
				c1.9,0.78,1.83,0.74-0.19-0.1c0.91,0.39,1.81,0.8,2.71,1.21c5.37,2.47,10.59,5.28,15.6,8.4c2.5,1.56,4.95,3.2,7.34,4.92
				c0.51,0.37,4.39,3.38,1.05,0.72c1.53,1.22,3.04,2.46,4.52,3.74c4.43,3.84,8.59,7.99,12.43,12.43c0.96,1.11,1.88,2.25,2.82,3.38
				c-2.7-3.28,0.37,0.52,0.74,1.04c1.73,2.4,3.34,4.87,4.89,7.38c4.94,8.01,16.32,11.81,24.63,6.46
				C1855.07,855.84,1858.78,844.97,1853.49,836.4L1853.49,836.4z"/>
		</g>
	</g>
	<g>
		<g>
			<path class="st0" d="M1937.11,1083.61c22.91,16.27,53.51,15.65,80.38,17.37c26.7,1.71,53.43,3.15,80.19,3.65
				c54.38,1.01,109.47-1.91,162.47-14.87c30.19-7.38,59.57-18.37,87.02-32.97c7.91-4.21,10.7-14.57,7.36-22.48
				c-3.47-8.21-12.48-12.75-21.23-10.42c-4.91,1.3-9.82,2.61-14.72,3.91c-9.1,2.42-15.55,12.95-12.57,22.14
				c3.03,9.35,12.39,15.16,22.14,12.57c4.91-1.3,9.82-2.61,14.72-3.91c-4.62-10.97-9.25-21.93-13.87-32.9
				c-5.56,2.96-11.19,5.78-16.91,8.42c-3.1,1.43-6.22,2.83-9.37,4.15c0.7-0.3,2.88-1.17-0.42,0.15c-2.11,0.84-4.21,1.69-6.33,2.51
				c-11.63,4.47-23.5,8.3-35.52,11.57c-12.6,3.42-25.36,6.21-38.22,8.46c-6.18,1.08-12.38,2.06-18.6,2.89
				c0.76-0.1,3.31-0.42-0.32,0.03c-1.71,0.21-3.41,0.42-5.12,0.62c-3.42,0.4-6.84,0.76-10.26,1.1
				c-52.03,5.12-104.48,3.34-156.57,0.23c-14.2-0.85-28.43-1.59-42.6-2.85c-1.63-0.14-3.25-0.34-4.88-0.48
				c-2.14-0.26-2.17-0.25-0.08,0.03c-1.08-0.15-2.15-0.32-3.22-0.5c-3.19-0.54-6.35-1.19-9.47-2.03c-1.54-0.42-3.08-0.88-4.59-1.39
				c-0.79-0.27-5.07-2.09-1.62-0.51c-3.4-1.56-6.58-3.43-9.63-5.59c-7.7-5.47-20.36-1.62-24.63,6.46
				C1925.76,1068.24,1928.89,1077.77,1937.11,1083.61L1937.11,1083.61z"/>
		</g>
	</g>
	<g>
		<g>
			<path class="st0" d="M2107.49,786.26c-2.16,84.14-4.01,168.28-5.54,252.43s-2.74,168.31-3.63,252.47
				c-0.44,41.91-0.81,83.83-1.09,125.74c-0.15,21.29-0.27,42.58-0.37,63.87c-0.07,14.9,0.14,29.77,2.01,44.58
				c3.95,31.34,13.9,62.8,41.01,81.65c32.31,22.46,75.3,11.42,110.02,1.48c69.04-19.78,133.27-55.37,186.95-103.04
				c6.39-5.68,12.61-11.54,18.68-17.56c6.7-6.64,7.14-18.9,0-25.46c-7.21-6.62-18.31-7.09-25.46,0
				c-12.14,12.04-24.92,23.42-38.32,34.04c-0.65,0.51-1.31,1.02-1.95,1.54c-2.22,1.79,1.99-1.5-0.28,0.22
				c-1.54,1.17-3.07,2.34-4.62,3.49c-3.54,2.64-7.11,5.23-10.72,7.76c-6.99,4.91-14.13,9.63-21.38,14.15
				c-14.51,9.04-29.52,17.27-44.95,24.66c-3.48,1.67-6.98,3.29-10.51,4.87c-2.01,0.9-4.03,1.79-6.06,2.66
				c-0.76,0.33-1.52,0.65-2.28,0.98c3.05-1.29-0.45,0.17-1.04,0.42c-7.91,3.24-15.91,6.27-23.98,9.07
				c-16.15,5.6-32.62,10.3-49.3,14.03c-3.97,0.89-7.95,1.71-11.96,2.4c-1.15,0.2-2.3,0.38-3.46,0.56c0.77-0.12,3.24-0.35-0.42,0.05
				c-2.31,0.26-4.63,0.48-6.95,0.61c-4.3,0.25-8.62,0.25-12.92-0.11c-0.49-0.04-4.02-0.51-1.84-0.17c1.99,0.31-0.79-0.18-0.97-0.22
				c-2.5-0.55-4.97-1.11-7.41-1.9c-0.41-0.13-3.76-1.3-1.86-0.58c1.54,0.59-0.44-0.19-0.63-0.29c-1.53-0.76-3.05-1.52-4.53-2.39
				c-1.26-0.74-2.47-1.56-3.69-2.37c-0.58-0.38-2.56-2.14-0.66-0.44c2.13,1.92-0.84-0.79-1.02-0.94c-2.14-1.91-4.03-4.01-5.95-6.12
				c-2.2-2.43,0.3,0.61,0.53,0.77c-0.47-0.33-1.07-1.46-1.44-1.99c-0.94-1.35-1.83-2.74-2.68-4.15c-1.61-2.69-2.75-5.67-4.35-8.35
				c-1.25-2.1,1.11,3.11,0.31,0.78c-0.21-0.61-0.48-1.2-0.71-1.79c-0.7-1.82-1.34-3.66-1.94-5.52c-2.12-6.58-3.66-13.34-4.81-20.15
				c-0.26-1.57-0.49-3.15-0.73-4.72c-0.4-2.6,0.37,3.33,0.11,0.71c-0.09-0.91-0.21-1.82-0.31-2.73c-0.39-3.64-0.7-7.29-0.93-10.95
				c-0.44-6.97-0.62-13.95-0.63-20.93c-0.03-19.84,0.19-39.68,0.32-59.51c0.26-40.92,0.6-81.83,1.01-122.75
				c0.83-81.83,1.96-163.66,3.38-245.48c1.43-81.82,3.16-163.64,5.19-245.45c0.25-9.98,0.5-19.95,0.76-29.93
				c0.24-9.42-8.45-18.43-18-18C2115.53,768.7,2107.75,776.17,2107.49,786.26L2107.49,786.26z"/>
		</g>
	</g>
	<g>
		<g>
			<path class="st0" d="M2515.24,1063.97c30.43,111.11,61.27,222.12,91.28,333.35c1.63,6.04,3.15,12.12,4.36,18.26
				c0.3,1.55,0.59,3.1,0.85,4.66c0.15,0.91,0.73,5.58,0.26,1.43c0.35,3.08,0.63,6.17,0.75,9.27c0.11,3.03,0.07,6.07-0.16,9.09
				c-0.06,0.84-0.93,5.58-0.06,1.12c-0.28,1.44-0.53,2.89-0.88,4.32c-0.35,1.42-0.75,2.82-1.21,4.21c-0.52,1.57-1.76,3.83-0.35,1.11
				c-1.62,3.12-3.34,6.03-5.48,8.83c10.36,0,20.72,0,31.08,0c-22.17-42.05-38.3-81.18-52.14-127.1
				c-6.82-22.64-12.65-45.62-17.13-68.84c-1.1-5.68-2.1-11.37-3-17.09c-0.4-2.54-0.78-5.08-1.13-7.63c0.38,2.78-0.15-1.26-0.23-1.9
				c-0.23-1.91-0.46-3.82-0.66-5.74c-1.3-12.08-2.03-24.23-1.98-36.38c0.1-22.92,2.15-40.36,9.01-62.31
				c1.43-4.59,3.04-9.12,4.81-13.59c0.35-0.87,1.7-4.04,0.22-0.61c0.4-0.93,0.81-1.86,1.22-2.78c1.04-2.3,2.12-4.59,3.25-6.85
				c4.28-8.54,9.24-16.75,14.9-24.45c-0.02,0.02,2.99-3.86,1.31-1.76c-1.68,2.1,1.42-1.72,1.4-1.69c1.27-1.54,2.57-3.05,3.9-4.54
				c3.32-3.71,6.83-7.25,10.51-10.59c1.66-1.5,3.35-2.96,5.08-4.38c0.72-0.59,3.42-2.63,0.46-0.42c0.8-0.6,1.59-1.19,2.4-1.78
				c4.05-2.93,8.27-5.62,12.64-8.05c2.18-1.22,4.4-2.37,6.65-3.46c1.24-0.6,2.49-1.17,3.74-1.75c0.56-0.26,3.2-1.26,0.23-0.12
				c5.07-1.96,10.17-3.77,15.42-5.2c4.69-1.28,9.44-2.34,14.23-3.16c1.07-0.18,2.14-0.34,3.2-0.52c5.12-0.85-2.3,0.16,0.85-0.11
				c2.98-0.26,5.94-0.62,8.93-0.82c11.57-0.77,23.21-0.43,34.75,0.66c2.8,0.27,5.59,0.59,8.37,0.93c-3.49-0.43,0.23,0.03,1.09,0.16
				c1.68,0.25,3.36,0.51,5.04,0.78c5.91,0.96,11.8,2.09,17.65,3.34c24.04,5.15,47.55,12.44,70.88,20.1
				c8.95,2.94,20.06-3.41,22.14-12.57c2.25-9.9-2.99-19-12.57-22.14c-43.52-14.28-88.81-27.79-135.05-27.67
				c-45.32,0.12-89.47,15.94-120.62,49.66c-30.88,33.43-46.66,77.04-50.93,121.84c-4.84,50.8,5.41,102.62,18.68,151.46
				c14.61,53.78,35.37,105.96,61.36,155.24c2.92,5.54,9.42,8.92,15.54,8.92c6.96,0,11.54-3.7,15.54-8.92
				c16.31-21.3,14.54-50.08,9.27-74.86c-5.8-27.24-14.37-54.05-21.72-80.91c-15.67-57.23-31.34-114.46-47.01-171.69
				c-8.75-31.97-17.51-63.95-26.26-95.92c-2.49-9.08-12.9-15.56-22.14-12.57C2518.52,1044.84,2512.58,1054.24,2515.24,1063.97
				L2515.24,1063.97z"/>
		</g>
	</g>
	<g>
		<g>
			<path class="st0" d="M2876.82,1046.63c0.34,90.08,12.99,180.32,37.59,266.99c11.2,39.45,23.98,79.42,42.43,116.16
				c15.58,31.03,37.42,61.31,68.25,78.62c36.36,20.41,78.71,18.07,115.53,0.18c36.93-17.95,64.03-51.14,82.88-86.86
				c19.14-36.26,33.06-75.96,43.79-115.46c10.83-39.87,17.83-81.05,19.7-122.35c1.83-40.48-1.67-81.6-11.81-120.88
				c-5.11-19.81-12.14-39.06-20.64-57.66c-7.96-17.41-19.41-36.14-39.88-40.18c-12.56-2.47-24.42,2.32-31.03,13.5
				c-4.79,8.11-2.11,20.1,6.46,24.63c8.66,4.58,19.51,2.2,24.63-6.46c1.6-2.71-0.53,0.6-0.84,0.92c-1.24,1.26-2.95,2.07-4.64,2.52
				c2.8-0.74-1.74,0.09-1.93,0.09c2.96-0.06-1.49-0.16-1.69-0.41c0.09,0.11,1.82,0.47,2.15,0.55c3.4,0.79-1.24-0.3-1.02-0.47
				c0.69-0.55,6.9,5.05,2.82,1.41c1.35,1.2,2.71,2.36,3.96,3.67c0.62,0.65,1.18,1.36,1.79,2.01c-0.43-0.45-2.05-3.14-0.43-0.48
				c2.28,3.72,4.19,7.62,6.08,11.55c0.97,2.02,1.92,4.05,2.84,6.09c0.46,1.02,0.92,2.04,1.37,3.06c0.18,0.42,1.58,3.62,0.75,1.69
				c-0.83-1.92,0.53,1.28,0.7,1.71c0.42,1.03,0.84,2.06,1.25,3.1c0.92,2.33,1.82,4.66,2.68,7.01c3.26,8.84,6.14,17.83,8.63,26.92
				c2.42,8.81,4.47,17.72,6.18,26.7c0.78,4.09,1.49,8.18,2.12,12.29c0.34,2.19,0.67,4.39,0.96,6.59c-0.45-3.37-0.07-0.48,0,0.17
				c0.19,1.66,0.4,3.31,0.58,4.97c2.02,18.34,2.73,36.83,2.3,55.27c-0.22,9.59-0.75,19.16-1.55,28.72
				c-0.38,4.51-0.82,9.02-1.33,13.52c-0.25,2.25-0.52,4.51-0.8,6.76c-0.14,1.13-0.29,2.25-0.43,3.38c0.35-2.65,0.02-0.19-0.17,1.12
				c-2.71,18.89-6.44,37.63-11.03,56.16c-4.52,18.22-9.88,36.24-15.98,54c-3.12,9.08-6.44,18.09-9.94,27.03
				c-1.55,3.95-3.15,7.88-4.77,11.81c-1.11,2.69,1.01-2.27-0.17,0.4c-0.46,1.04-0.9,2.08-1.35,3.12c-1.02,2.34-2.07,4.67-3.14,6.98
				c-7.9,17.14-17.05,33.79-28.34,48.96c-0.26,0.35-2.39,3.11-1.14,1.52c1.25-1.59-0.93,1.14-1.2,1.47
				c-1.41,1.74-2.86,3.46-4.33,5.15c-3.14,3.6-6.43,7.08-9.86,10.4c-3.05,2.95-6.24,5.72-9.49,8.43c-2.64,2.2-0.69,0.58-0.12,0.14
				c-0.85,0.65-1.7,1.28-2.56,1.9c-2.15,1.56-4.35,3.07-6.59,4.51c-3.58,2.31-7.26,4.45-11.03,6.43c-1.88,0.98-3.79,1.92-5.71,2.82
				c-0.96,0.45-1.93,0.88-2.9,1.3c2.36-1.04,0.51-0.23-0.84,0.29c-8.11,3.13-16.45,5.27-25.02,6.67c3.95-0.65-1.77,0.13-2.96,0.22
				c-2.07,0.15-4.14,0.24-6.22,0.27s-4.15-0.01-6.22-0.12c-1.04-0.05-2.07-0.12-3.11-0.21c-0.59-0.05-5.61-0.83-1.42-0.09
				c-3.98-0.7-7.91-1.48-11.79-2.6c-1.78-0.51-3.55-1.08-5.3-1.7c-0.87-0.31-1.72-0.64-2.59-0.95c-3.23-1.17,1.86,0.92-0.14-0.02
				c-6.84-3.23-13.18-6.91-19.37-11.26c-2.66-1.87-0.07-0.02,0.39,0.34c-0.71-0.57-1.42-1.13-2.13-1.71
				c-1.41-1.16-2.79-2.36-4.15-3.58c-2.91-2.62-5.7-5.37-8.38-8.23c-2.55-2.73-5-5.55-7.35-8.45c-0.36-0.44-2.26-2.8-0.78-0.95
				c1.48,1.85-0.4-0.54-0.74-1c-1.28-1.71-2.53-3.45-3.75-5.2c-4.67-6.72-8.93-13.73-12.86-20.91c-3.85-7.03-7.39-14.24-10.68-21.55
				c-0.8-1.77-1.58-3.54-2.35-5.32c-0.23-0.52-1.43-3.39-0.51-1.18c0.91,2.2-0.26-0.66-0.48-1.19c-1.54-3.76-3.03-7.53-4.47-11.33
				c-7.35-19.38-13.97-39.04-20-58.86c-12.15-39.95-21.71-80.69-28.62-121.87c-0.83-4.95-1.62-9.92-2.38-14.88
				c-0.38-2.48-0.74-4.97-1.1-7.45c-0.18-1.24-0.36-2.49-0.53-3.73c-0.06-0.41-0.68-4.98-0.44-3.21c0.26,1.95-0.25-1.9-0.29-2.28
				c-0.16-1.25-0.32-2.49-0.48-3.74c-0.31-2.49-0.61-4.99-0.91-7.48c-0.62-5.3-1.2-10.61-1.74-15.92
				c-2.11-20.93-3.53-41.93-4.27-62.95c-0.36-10.36-0.55-20.71-0.59-31.08c-0.04-9.41-8.25-18.44-18-18
				C2885.1,1029.07,2876.79,1036.54,2876.82,1046.63L2876.82,1046.63z"/>
		</g>
	</g>
	<g>
		<g>
			<path class="st0" d="M3532.15,1039.07c18.58-8.88,20.54-34.63,9.9-50.27c-13.82-20.3-39.72-20.62-60.65-12.14
				c-34.39,13.94-65.97,36.32-92.49,62.11c-25.58,24.87-47.26,54.4-62.84,86.51c-18.87,38.88-30.32,81.65-23.34,124.95
				c5.65,35.03,27.37,69.84,59.27,86.53c37.42,19.58,81.04,12.63,117.37-5.92c59.65-30.47,100.98-92.83,113.34-157.81
				c6.32-33.22,6.06-67.54-2.37-100.39c-4.28-16.67-10.46-33.47-20.45-47.59c-11.16-15.76-26.52-30.78-45.96-35.26
				c-9.83-2.27-20.27-2.07-29.82,1.35c-8.46,3.03-16.27,12.5-12.57,22.14c32.31,84.16,61.83,169.39,88.45,255.52
				c26.52,85.82,50.17,172.54,70.89,259.94c10.24,43.18,20.43,86.53,28.26,130.22c0.92,5.13,1.79,10.26,2.6,15.4
				c0.38,2.42,0.75,4.84,1.1,7.27c0.22,1.51,0.44,3.03,0.64,4.54c-0.34-2.56,0.06,0.58,0.19,1.58c1.32,10.57,2.31,21.18,2.84,31.81
				c0.54,10.83,0.61,21.68,0.04,32.51c-0.25,4.78-0.62,9.55-1.13,14.31c-0.07,0.62-0.95,7.44-0.47,4.1c-0.43,2.95-0.9,5.9-1.44,8.83
				c-1.95,10.61-4.66,21.09-8.21,31.28c-0.69,1.97-1.41,3.93-2.16,5.88c-0.39,1.01-2.55,6.16-0.98,2.55
				c-1.86,4.28-3.85,8.5-5.99,12.64c-3.94,7.6-8.37,14.94-13.22,21.98c-1.11,1.61-2.24,3.2-3.4,4.78c-0.58,0.79-1.17,1.57-1.75,2.36
				c-2.8,3.82,1.53-1.84-0.32,0.43c-2.79,3.42-5.56,6.84-8.49,10.14c-5.72,6.44-11.8,12.56-18.18,18.34
				c-3.11,2.83-6.3,5.57-9.54,8.24c-1.72,1.42-3.47,2.81-5.22,4.19c0.52-0.41,2.8-2.11,0.1-0.09c-1.2,0.89-2.39,1.79-3.59,2.66
				c-14.13,10.3-29.23,19.24-44.97,26.85c-3.83,1.85-7.73,3.55-11.6,5.31c-2.47,1.12,2.66-1.08,0.16-0.06
				c-0.93,0.38-1.85,0.76-2.77,1.14c-2.31,0.94-4.64,1.85-6.97,2.73c-8.38,3.16-16.9,5.96-25.52,8.41
				c-10.79,3.07-21.71,5.64-32.72,7.75c-10.93,2.1-19.72,3.41-28.41,4.41c-43.89,5.04-88.25,4.06-132.24,0.94
				c-10.94-0.77-21.87-1.69-32.79-2.67c-9.4-0.85-18.41,8.89-18,18c0.47,10.48,7.93,17.09,18,18
				c87.18,7.87,179.46,11.19,262.66-20.66c70.29-26.91,132.86-77.17,160.5-148.79c15.87-41.14,17.44-86.7,12.77-130.1
				c-4.86-45.14-15.1-89.57-25.08-133.79c-20.19-89.5-43.43-178.3-69.68-266.22c-26.16-87.61-55.29-174.32-87.35-259.94
				c-4.04-10.78-8.12-21.54-12.24-32.28c-4.19,7.38-8.38,14.76-12.57,22.14c1.82-0.65,3.61-1.15,5.48-1.6
				c0.59-0.14,2.63-0.14,0.33-0.09c-2.6,0.05,0.35,0.08,1,0.06c0.67-0.01,1.35,0.03,2.02,0.02c3.45-0.05-0.4,0.18-0.78-0.25
				c0.58,0.64,4.99,1.13,5.89,1.43c0.65,0.21,1.28,0.48,1.93,0.67c-3.47-1.04-1.45-0.69-0.51-0.17c1.44,0.8,2.91,1.52,4.31,2.38
				c0.81,0.5,1.61,1.02,2.4,1.56c0.45,0.31,2.92,2.15,1.11,0.75c-1.69-1.32,0.24,0.23,0.47,0.43c0.93,0.83,1.87,1.64,2.78,2.49
				c2.79,2.62,5.32,5.46,7.77,8.39c-2.18-2.63,0.74,1.03,1.37,1.94c1.33,1.91,2.6,3.87,3.79,5.87c1.84,3.08,3.45,6.25,5.02,9.48
				c1.49,3.06,0.24,0.45-0.02-0.19c0.36,0.88,0.71,1.78,1.05,2.67c0.67,1.73,1.3,3.48,1.91,5.23c2.36,6.78,4.33,13.69,5.92,20.68
				c0.71,3.15,1.35,6.33,1.91,9.51c0.32,1.82,0.58,3.65,0.88,5.47c0.36,2.16-0.19-1.36-0.17-1.35c0.24,0.12,0.36,2.98,0.41,3.44
				c1.56,14.02,1.66,28.19,0.39,42.24c-0.17,1.85-0.36,3.69-0.57,5.53c-0.08,0.69-0.17,1.38-0.25,2.07
				c-0.3,2.63,0.51-3.27,0.08-0.65c-0.6,3.66-1.16,7.33-1.87,10.97c-1.34,6.83-3.01,13.6-4.98,20.27c-2.04,6.9-4.41,13.7-7.1,20.38
				c-0.26,0.65-0.53,1.29-0.79,1.93c-0.98,2.42,1.27-2.82,0.18-0.46c-0.68,1.47-1.31,2.97-2,4.44c-1.56,3.37-3.2,6.69-4.92,9.98
				c-3.23,6.15-6.75,12.15-10.56,17.96c-1.9,2.9-3.87,5.76-5.91,8.56c-0.95,1.31-1.93,2.6-2.9,3.89c2.56-3.43-1.11,1.34-1.92,2.33
				c-8.99,10.92-19.1,20.7-30.08,29.59c2.79-2.26-0.18,0.13-1.33,0.98c-1.49,1.1-3,2.18-4.53,3.24c-3.13,2.17-6.33,4.25-9.6,6.21
				c-3.54,2.13-7.15,4.12-10.84,5.98c-1.73,0.87-3.47,1.71-5.22,2.52c-1,0.46-2.01,0.91-3.03,1.35c2.37-1.03,0.1-0.06-1.06,0.4
				c-7.92,3.09-16.1,5.52-24.46,7.08c-0.86,0.16-5.83,0.89-4.03,0.68c2.11-0.24-0.57,0.04-0.82,0.06c-1.07,0.09-2.14,0.2-3.22,0.27
				c-4.27,0.3-8.56,0.34-12.83,0.1c-1.06-0.06-2.12-0.16-3.19-0.24c-0.27-0.02-2.94-0.27-0.78-0.04c2.32,0.24-1.02-0.17-1.56-0.26
				c-1.05-0.18-2.1-0.38-3.14-0.6c-3.96-0.83-7.77-2.02-11.59-3.32c-3.33-1.14-0.79-0.24-0.08,0.06c-0.89-0.38-1.78-0.79-2.66-1.21
				c-1.53-0.73-3.04-1.52-4.52-2.35c-1.48-0.83-2.93-1.69-4.35-2.61c-0.81-0.52-1.62-1.06-2.41-1.61c-0.39-0.27-3.66-2.66-1.68-1.16
				c1.68,1.26-2.09-1.76-2.66-2.26c-1.45-1.28-2.87-2.6-4.24-3.96c-2.76-2.75-5.31-5.67-7.74-8.7c2.18,2.71-0.36-0.59-1.1-1.66
				c-0.97-1.41-1.91-2.84-2.82-4.3c-2.07-3.34-3.97-6.79-5.68-10.32c-0.43-0.89-0.83-1.78-1.25-2.68c-0.14-0.29-1.1-2.58-0.26-0.56
				c0.8,1.95-0.99-2.63-1.25-3.35c-1.34-3.7-2.48-7.47-3.43-11.29c-0.47-1.9-0.9-3.82-1.27-5.74c-0.19-0.96-0.35-1.92-0.52-2.89
				c-0.02-0.09-0.49-3.02-0.21-1.17c0.31,2.05-0.19-1.64-0.23-2.07c-0.09-0.89-0.18-1.79-0.26-2.68c-0.23-2.68-0.37-5.37-0.44-8.07
				c-0.12-4.49-0.02-8.98,0.27-13.46c0.14-2.09,0.32-4.19,0.53-6.27c0.09-0.9,0.2-1.79,0.3-2.68c-0.38,3.44,0.35-2.22,0.37-2.36
				c1.46-8.94,3.6-17.77,6.26-26.43c1.24-4.05,2.6-8.06,4.06-12.04c0.83-2.27,1.7-4.53,2.59-6.77c0.45-1.12,0.9-2.24,1.36-3.35
				c-0.66,1.6-0.45,1.06,0.1-0.21c3.23-7.31,6.69-14.51,10.49-21.54c7.46-13.83,16.03-27.09,25.63-39.53
				c-2.1,2.72,0.81-0.98,1.49-1.83c1.13-1.41,2.28-2.8,3.43-4.19c2.64-3.16,5.36-6.27,8.13-9.33c5.37-5.92,10.98-11.62,16.81-17.08
				c5.64-5.29,11.48-10.36,17.51-15.2c0.8-0.65,1.62-1.28,2.42-1.92c2.13-1.72-2.17,1.61,0.03-0.02c1.45-1.07,2.88-2.17,4.34-3.24
				c3.33-2.43,6.71-4.8,10.13-7.09c6.42-4.3,13.02-8.34,19.77-12.12c3.37-1.89,6.79-3.7,10.24-5.45c1.61-0.82,3.23-1.62,4.85-2.4
				c0.98-0.47,1.97-0.92,2.94-1.4c2.84-1.41-0.52,0.09,1.27-0.6c4.07-1.57,8.14-2.91,12.41-3.8c0.26-0.05,2.94-0.29,0.95-0.16
				c-2.21,0.14,1.28,0.04,1.78,0.03c0.83-0.01,1.66,0.07,2.48,0.06c-3.22,0.04-0.16,0.02,0.9,0.3c0.76,0.2,3.56,1.72,1.51,0.4
				c-2.26-1.45,0.09,0.34,0.08,0.2c0.3,0.2,0.61,0.41,0.91,0.61c-0.65-0.48-1.29-0.95-1.94-1.43c0.13-0.29,1.36,1.65,1.54,1.58
				c-0.4,0.14-2.31-3.83-0.83-0.96c0.19,0.38,0.53,1.17,0.83,1.46c1.47,1.4-0.74-3.28-0.46-1.24c0.11,0.79,0.55,1.91,0.79,2.65
				c1.01,3.14-0.93-3.91-0.1,0.04c0.13,0.6-0.05,3.39,0.11,0.2c0.13-2.59,0.09-1.16-0.07-0.39c-0.57,2.73,0.53-1.19,0.71-1.54
				c-0.63,1.23-1.75,1.8,1.13-1.23c-0.47,0.49-1.74,1.41,0.32-0.08c2.57-1.86-0.36-0.02-0.86,0.22
				c-8.52,4.07-11.42,16.92-6.46,24.63C3513.16,1041.36,3523.04,1043.42,3532.15,1039.07L3532.15,1039.07z"/>
		</g>
	</g>
	<g>
		<g>
			<path class="st0" d="M4036.02,1038.29c-38.84-19.72-80.68-2.87-112.47,22.25c-14.62,11.56-27.32,25.55-38.78,40.2
				c-12.1,15.46-22.98,31.73-32.08,49.14c-18.45,35.29-30.01,73.26-34.9,112.73c-2.29,18.44-2.93,37.18-1.53,55.72
				c1.56,20.82,5.59,42.08,16.5,60.2c19.72,32.77,58.61,47.03,95.59,42.33c39.86-5.07,72.56-28.61,98.1-58.7
				c13.05-15.37,24.67-31.95,35.69-48.82c11.12-17.02,21.51-34.57,30.16-52.99c17.35-36.94,28.6-77.66,24.17-118.76
				c-4.11-38.15-19.92-79.2-53.14-101.2c-16.98-11.25-39.1-15.91-57.91-6.46c-18.49,9.29-26.47,30.63-24.03,50.3
				c2.48,19.99,11.34,37.41,20.66,55c9.77,18.43,19.76,36.76,29.86,55.02c20.37,36.83,41.2,73.39,61.73,110.13
				c20.5,36.67,40.7,73.52,59.82,110.94c9.6,18.79,18.93,37.72,27.87,56.83c4.34,9.27,8.59,18.59,12.73,27.95
				c2.07,4.68,4.12,9.37,6.14,14.07c0.48,1.11,0.95,2.21,1.42,3.32c0.15,0.35,1.6,3.77,0.85,2.01c-0.92-2.17,1.38,3.29,1.19,2.85
				c0.58,1.39,1.16,2.78,1.73,4.17c16.15,39.11,31.71,79.39,40.66,120.84c1.05,4.88,2,9.78,2.8,14.7c0.2,1.23,0.38,2.46,0.58,3.68
				c0.95,5.88-0.16-1.82,0.24,1.67c0.32,2.77,0.64,5.53,0.89,8.3c0.95,10.71,1.14,21.49,0.33,32.21c-0.21,2.75-0.46,5.5-0.83,8.23
				c0.41-3.13-0.67,3.77-0.77,4.32c-0.92,4.99-2.1,9.94-3.52,14.82c-1.1,3.79-2.36,7.53-3.75,11.22c-0.43,1.15-0.91,2.28-1.34,3.42
				c-0.95,2.5,1.23-2.66,0.1-0.24c-1.03,2.21-2.01,4.45-3.1,6.64c-3.79,7.65-8.18,15-13.06,22c-1.12,1.61-2.28,3.18-3.44,4.76
				c-0.44,0.6-2.09,2.69,0.14-0.13c-0.61,0.77-1.22,1.54-1.83,2.31c-2.79,3.46-5.69,6.82-8.69,10.09
				c-5.9,6.43-12.18,12.49-18.76,18.22c-3.23,2.81-6.54,5.52-9.88,8.2c-0.55,0.44-2.71,2.07,0.05-0.02
				c-0.81,0.61-1.61,1.22-2.42,1.83c-2.03,1.52-4.08,3.01-6.15,4.48c-14.3,10.15-29.45,19.07-45.09,26.98
				c-8.25,4.17-16.66,8.01-25.14,11.69c-0.4,0.18-3.17,1.35-0.6,0.27c-1.09,0.46-2.18,0.91-3.28,1.36c-2.19,0.9-4.38,1.79-6.58,2.66
				c-4.95,1.96-9.93,3.85-14.93,5.66c-19.46,7.05-39.33,13-59.46,17.82c-10.07,2.41-20.2,4.55-30.39,6.4
				c-4.95,0.9-9.91,1.73-14.88,2.5c-2.34,0.36-4.68,0.7-7.02,1.04c-0.53,0.08-3.54,0.48-0.49,0.08c-1.76,0.23-3.52,0.45-5.28,0.67
				c-40.51,4.94-81.57,5.49-122.2,1.51c-5-0.49-10-1.05-14.99-1.67c-0.44-0.06-4.1-0.53-2.01-0.25c2.54,0.34-3.22-0.46-2.88-0.41
				c-2.34-0.34-4.68-0.69-7.02-1.06c-9.94-1.56-19.82-3.41-29.66-5.51c-9.19-1.96-19.9,2.71-22.14,12.57
				c-2.06,9.05,2.72,20.04,12.57,22.14c79.71,16.98,162.4,16.82,242.1-0.16c39.75-8.47,78.37-21.41,115.42-38.1
				c31.84-14.35,62.05-32.62,88.35-55.7c26.41-23.17,47.85-51.99,59.69-85.23c14.28-40.13,10.83-84,0.9-124.69
				c-9.67-39.65-24.6-78.26-40.29-115.87c-15.91-38.15-33.45-75.57-52.2-112.41c-36.77-72.26-77.63-142.33-117.03-213.17
				c-10-17.98-19.9-36-29.62-54.13c-4.61-8.6-9.28-17.18-13.69-25.89c-0.86-1.7-1.69-3.41-2.48-5.13c-0.24-0.51-1.53-3.33-0.56-1.17
				c0.97,2.16-0.28-0.7-0.49-1.23c-1.52-3.86-2.86-7.8-3.89-11.81c-0.48-1.85-0.84-3.72-1.23-5.6c-0.83-3.93,0.16,0.64,0.03,0.63
				c-0.08-0.01-0.22-2.39-0.24-2.74c-0.11-1.8-0.01-3.57-0.04-5.36c-0.04-3.56-0.29,0.69-0.25,0.89c-0.23-0.98,0.52-2.74,0.79-3.75
				c0-0.02,0.53-2.29,0.77-2.41c-0.3,0.15-1.74,3.11-0.29,0.84c0.44-0.69,0.87-1.47,1.28-2.19c1.81-3.14-0.47,0.56-0.47,0.56
				c0.02-1.19,5.15-4.01,1.39-1.68c0.74-0.46,1.53-0.92,2.25-1.4c3.14-2.1-3.17,0.67,0.44-0.23c0.81-0.2,1.68-0.42,2.47-0.66
				c2.73-0.84-0.91-0.02-0.98,0.07c0.52-0.65,4.36-0.04,5.21-0.03c2.2,0.02,0.78-0.7-0.82-0.15c0.41-0.14,2.43,0.5,2.66,0.55
				c2.04,0.49,3.97,1.23,5.96,1.86c2.45,0.78-2.65-1.4-0.38-0.15c0.83,0.46,1.72,0.83,2.57,1.28c1.71,0.9,3.37,1.88,4.99,2.93
				c0.81,0.52,1.58,1.13,2.4,1.63c2.23,1.35-2.15-1.88-0.18-0.19c1.63,1.4,3.27,2.77,4.81,4.28c1.37,1.35,2.67,2.76,3.93,4.21
				c0.57,0.66,4.29,5.35,2.06,2.38c2.78,3.7,5.35,7.55,7.68,11.55c2.07,3.55,3.96,7.19,5.66,10.93c0.43,0.93,0.85,1.87,1.25,2.82
				c-1.36-3.23-0.31-0.68-0.06-0.02c0.89,2.42,1.79,4.83,2.59,7.28c1.28,3.94,2.38,7.93,3.31,11.96c0.47,2.02,0.9,4.06,1.28,6.1
				c0.19,1.02,0.38,2.05,0.55,3.07c0.08,0.47,0.75,4.74,0.38,2.24c-0.35-2.35,0.11,0.93,0.17,1.49c0.12,1.04,0.22,2.08,0.32,3.12
				c0.2,2.08,0.35,4.17,0.47,6.26c0.25,4.45,0.32,8.9,0.22,13.35c-0.09,4.19-0.33,8.38-0.73,12.55c-0.1,1.04-0.2,2.08-0.32,3.12
				c0-0.02-0.68,5.06-0.27,2.27c0.35-2.35-0.16,0.93-0.25,1.48c-0.21,1.28-0.42,2.57-0.66,3.85c-1.78,9.73-4.29,19.32-7.37,28.71
				c-1.46,4.45-3.05,8.85-4.75,13.21c-0.43,1.09-0.87,2.17-1.3,3.26c-0.17,0.43-1.32,3.18-0.21,0.57c-1.03,2.43-2.11,4.84-3.21,7.24
				c-4.05,8.82-8.52,17.46-13.28,25.92c-9.66,17.17-20.42,33.75-31.79,49.82c-2.54,3.59-5.12,7.14-7.77,10.65
				c-0.66,0.88-1.33,1.75-2,2.62c0.45-0.59,1.96-2.46-0.23,0.26c-1.55,1.93-3.09,3.85-4.67,5.75c-5.76,6.91-11.86,13.56-18.4,19.75
				c-3.34,3.16-6.79,6.2-10.37,9.08c-0.37,0.3-3.05,2.35-1.36,1.09c1.69-1.26-1.04,0.74-1.42,1.01c-1.97,1.42-3.96,2.8-6,4.12
				c-3.63,2.35-7.37,4.54-11.21,6.53c-1.8,0.93-3.62,1.79-5.45,2.65c-3,1.41-0.14,0.05,0.43-0.17c-1.32,0.49-2.62,1.02-3.95,1.49
				c-3.55,1.26-7.18,2.32-10.84,3.2c-1.84,0.44-3.69,0.82-5.55,1.16c-0.93,0.17-1.87,0.3-2.8,0.47c2.34-0.44,2.05-0.24-0.13-0.01
				c-3.74,0.4-7.51,0.59-11.27,0.58c-1.87-0.01-3.74-0.07-5.61-0.18c-0.93-0.06-1.86-0.13-2.79-0.21c-3.66-0.33-0.68,0.64-0.06,0.08
				c-1.15,1.04-10.03-2.03-11.47-2.44c-1.75-0.5-3.49-1.06-5.21-1.68c-0.85-0.31-1.7-0.65-2.55-0.97c-2.08-0.77,2.99,1.46-0.06-0.09
				c-3.23-1.65-6.4-3.33-9.4-5.38c-0.75-0.51-1.46-1.06-2.21-1.57c3.13,2.13,1.14,0.9,0.44,0.29c-1.72-1.52-3.41-3.03-5-4.68
				c-1.34-1.39-2.61-2.84-3.82-4.34c2.21,2.73-1.43-2.23-1.85-2.89c-1.14-1.8-2.19-3.65-3.18-5.54c-0.49-0.95-0.94-1.91-1.42-2.87
				c-1.5-3,0.28,1.08-0.4-0.85c-3.03-8.53-5.13-16.98-6.64-25.9c0.61,3.61-0.24-2.19-0.36-3.35c-0.24-2.44-0.44-4.88-0.59-7.33
				c-0.29-4.58-0.45-9.17-0.51-13.76c-0.11-9.16,0.21-18.33,0.97-27.46c0.35-4.3,0.83-8.58,1.35-12.86
				c-0.47,3.88,0.34-2.31,0.48-3.22c0.37-2.4,0.77-4.79,1.2-7.18c1.57-8.76,3.52-17.44,5.86-26.03c2.41-8.85,5.21-17.59,8.4-26.18
				c0.75-2.02,1.52-4.04,2.31-6.04c0.29-0.72,2.68-6.54,1.26-3.18c1.89-4.47,3.91-8.89,6.02-13.26
				c7.74-16.02,16.88-31.36,27.31-45.77c1.42-1.96,2.88-3.9,4.34-5.84c1.69-2.24-1.62,1.98,0.16-0.19c0.68-0.83,1.34-1.69,2.02-2.53
				c2.88-3.57,5.84-7.06,8.88-10.49c6-6.75,12.26-13.3,19.01-19.31c1.57-1.4,3.17-2.77,4.79-4.11c0.82-0.67,1.64-1.33,2.47-2
				c-0.55,0.45-2.64,1.95,0.14-0.1c3.64-2.69,7.35-5.26,11.2-7.63c3.59-2.21,7.28-4.27,11.06-6.12c0.94-0.46,1.88-0.91,2.83-1.34
				c0.48-0.22,3.51-1.48,1.41-0.64c-2.09,0.84,0.95-0.34,1.44-0.52c1.43-0.54,2.88-1.04,4.33-1.51c3.85-1.24,7.75-1.94,11.65-2.9
				c2.63-0.65-3.08,0.25-0.4,0.01c0.97-0.09,1.94-0.2,2.92-0.27c1.94-0.14,3.88-0.2,5.82-0.17c1.94,0.03,3.85,0.21,5.79,0.36
				c2.65,0.21-3.04-0.72-0.48-0.01c0.93,0.26,1.91,0.38,2.85,0.6c1.91,0.45,3.78,1,5.63,1.65c0.52,0.18,3.42,1.39,1.32,0.46
				c-2.52-1.12,1.98,1.03,1.96,1.02c8.39,4.26,19.9,2.48,24.63-6.46C4046.81,1054.72,4044.99,1042.84,4036.02,1038.29
				L4036.02,1038.29z"/>
		</g>
	</g>
	<g>
		<g>
			<path class="st0" d="M4381.51,611.43c10.9,121.71,23.51,243.26,37.85,364.61c14.46,122.29,30.65,244.38,48.56,366.21
				c9.99,67.96,20.53,135.84,31.6,203.64c1.52,9.32,13.58,15.34,22.14,12.57c10.09-3.27,14.2-12.16,12.57-22.14
				c-19.59-119.94-37.52-240.16-53.69-360.61c0.42,3.14-0.44-3.3-0.41-3.07c-0.26-1.96-0.53-3.93-0.79-5.89
				c-0.48-3.6-0.96-7.2-1.44-10.8c-1-7.53-1.99-15.06-2.97-22.59c-1.97-15.06-3.91-30.13-5.83-45.2
				c-3.83-30.14-7.56-60.3-11.17-90.46c-7.24-60.33-14.05-120.72-20.43-181.15c-7.21-68.31-13.88-136.68-20-205.1
				c-0.84-9.35-7.68-18.46-18-18C4390.48,593.83,4380.61,601.38,4381.51,611.43L4381.51,611.43z"/>
		</g>
	</g>
	<g>
		<g>
			<path class="st0" d="M4654.99,1249.07c20.37,25.09,55.31,31.91,85.78,26.65c32.86-5.68,60.98-27.23,85.53-48.49
				c46.74-40.48,86.85-90.55,108.22-149.07c20.18-55.24,26.37-135.91-31.65-171.08c-25.36-15.37-57.46-17.25-85.68-9.75
				c-29.81,7.93-55.41,27.39-74.87,50.89c-20.37,24.59-35.56,52.67-49.04,81.48c-15.01,32.09-27.79,65.25-37.92,99.2
				c-9.69,32.46-17,65.63-21.83,99.16c-4.67,32.38-7.85,65.19-7.41,97.94c0.74,53.96,10.68,111.59,40.92,157.36
				c15.33,23.2,35.72,43.13,60.41,56.21c29.54,15.64,63.16,21.47,96.35,20.86c32.94-0.61,65.68-6.94,97.49-15.14
				c31.06-8.01,61.59-18.08,91.32-30.11c60.47-24.44,117.78-56.11,169.99-95.26c13.27-9.95,26.26-20.26,38.89-31
				c7.2-6.12,6.77-19.24,0-25.46c-7.66-7.04-17.78-6.53-25.46,0c-5.84,4.96-11.75,9.85-17.74,14.63c-1.33,1.06-2.67,2.12-4,3.17
				c-0.65,0.51-4.84,3.77-2.4,1.89c-3.15,2.43-6.32,4.82-9.5,7.2c-12.07,8.98-24.42,17.59-37.01,25.81
				c-25.44,16.6-51.91,31.62-79.2,44.96c-6.89,3.37-13.83,6.62-20.81,9.77c-3.36,1.52-6.74,3.01-10.13,4.47
				c-1.56,0.68-3.13,1.35-4.7,2.01c2.91-1.23-2.69,1.11-3.56,1.47c-13.92,5.72-28.01,11.01-42.25,15.86
				c-28.64,9.76-57.95,18.01-87.67,23.77c-3.61,0.7-7.23,1.35-10.85,1.96c-1.96,0.33-3.91,0.64-5.88,0.94
				c-0.84,0.13-1.68,0.25-2.52,0.37c-0.33,0.05-3.76,0.51-1.82,0.26c2-0.26-0.79,0.09-0.98,0.12c-1.13,0.13-2.25,0.27-3.38,0.4
				c-1.69,0.19-3.38,0.37-5.07,0.54c-3.93,0.38-7.88,0.7-11.82,0.93c-7.56,0.44-15.13,0.59-22.7,0.37
				c-3.61-0.11-7.22-0.29-10.82-0.58c-1.66-0.13-3.31-0.28-4.96-0.45c-0.82-0.08-1.65-0.18-2.47-0.27c-0.35-0.04-3.75-0.49-1.71-0.2
				c2.25,0.32-1.18-0.19-1.69-0.27c-0.81-0.13-1.63-0.26-2.44-0.4c-1.62-0.28-3.24-0.58-4.85-0.9c-3.76-0.75-7.49-1.63-11.19-2.64
				c-3.43-0.93-6.83-1.98-10.19-3.15c-1.81-0.63-3.6-1.31-5.39-1.98c-0.17-0.06-2.7-1.05-0.9-0.33c1.75,0.7-1.33-0.59-1.63-0.72
				c-6.39-2.87-12.56-6.21-18.45-9.99c-2.48-1.59-4.91-3.27-7.29-5.02c-0.54-0.4-1.08-0.81-1.63-1.21c0.1,0.07,2.53,2.04,0.98,0.75
				c-1.2-1-2.44-1.97-3.63-2.99c-4.57-3.89-8.89-8.08-12.95-12.5c-1.95-2.12-3.84-4.3-5.66-6.54c-0.42-0.51-0.82-1.05-1.25-1.55
				c-1.66-1.9,1.84,2.54,0.36,0.49c-0.91-1.26-1.86-2.49-2.76-3.76c-7.05-9.88-13-20.53-17.98-31.59c-0.56-1.25-1.1-2.5-1.65-3.76
				c1.26,2.88,0.35,0.8-0.28-0.78c-1.19-2.99-2.32-6.01-3.39-9.05c-2.08-5.92-3.93-11.93-5.57-17.99
				c-3.34-12.34-5.68-24.85-7.58-37.48c-0.32-2.1,0.15,1.12,0.16,1.25c-0.09-0.71-0.18-1.42-0.27-2.12
				c-0.21-1.65-0.4-3.31-0.58-4.97c-0.34-3.08-0.64-6.16-0.9-9.24c-0.54-6.39-0.92-12.8-1.15-19.21
				c-0.47-13.06-0.27-26.13,0.39-39.18c0.81-16.01,2.19-31.99,4.12-47.9c0.26-2.1,0.52-4.2,0.79-6.3c-0.36,2.8,0.22-1.59,0.34-2.41
				c0.59-4.19,1.23-8.38,1.9-12.56c1.29-8.06,2.73-16.1,4.31-24.12c6.25-31.75,14.73-63.07,25.36-93.64
				c2.68-7.71,5.5-15.38,8.45-22.99c1.42-3.67,2.87-7.32,4.36-10.96c0.69-1.68,1.38-3.36,2.08-5.03c0-0.01,1.16-2.75,0.5-1.2
				c-0.56,1.32,0.75-1.74,0.87-2.02c6.36-14.76,13.23-29.32,20.65-43.59c6.55-12.6,13.62-24.96,21.65-36.68
				c1.96-2.86,3.98-5.69,6.06-8.46c0.29-0.38,2.35-3.02,1.02-1.35c-1.22,1.53,0.44-0.53,0.57-0.69c1.17-1.44,2.34-2.88,3.55-4.3
				c4.61-5.43,9.51-10.62,14.75-15.44c2.52-2.32,5.18-4.46,7.77-6.69c1.54-1.33-0.3,0.2-0.54,0.38c0.63-0.48,1.26-0.95,1.9-1.41
				c1.7-1.25,3.43-2.45,5.19-3.62c5.52-3.66,11.29-6.79,17.32-9.5c-2.88,1.3-0.55,0.26,0.94-0.3c1.33-0.49,2.66-0.96,4.01-1.41
				c3.14-1.03,6.33-1.92,9.55-2.67c1.61-0.37,3.23-0.71,4.86-1.01c0.67-0.12,4.92-0.84,2.5-0.46c-2.37,0.38-0.01,0.01,0.41-0.04
				c0.94-0.09,1.87-0.2,2.81-0.28c1.64-0.14,3.28-0.24,4.92-0.3c3.03-0.11,6.07-0.1,9.1,0.06c1.39,0.07,2.78,0.18,4.16,0.31
				c0.88,0.09,1.87,0.13,2.76,0.31c-1.28-0.25-2.91-0.47-0.69-0.03c2.92,0.57,5.83,1.15,8.7,1.96c1.31,0.37,2.62,0.77,3.91,1.2
				c0.65,0.22,1.29,0.44,1.93,0.67c0.13,0.05,4.15,1.66,1.64,0.59c-2.2-0.93,1.57,0.77,2.16,1.06c1.41,0.7,2.81,1.45,4.17,2.24
				c1.17,0.68,2.32,1.4,3.46,2.14c0.57,0.37,1.13,0.76,1.68,1.15c0.37,0.26,2.73,2.12,0.91,0.63c-1.84-1.5,1.84,1.64,2.37,2.12
				c1.02,0.93,2.01,1.9,2.97,2.9c1.21,1.25,2.28,2.63,3.47,3.89c1.38,1.46-0.29-0.43-0.46-0.66c0.59,0.82,1.19,1.63,1.76,2.46
				c1.84,2.7,3.5,5.52,4.99,8.42c0.8,1.57,1.55,3.16,2.25,4.77c-1.39-3.21,0.25,0.9,0.65,2.05c1.08,3.12,2,6.3,2.76,9.51
				c0.35,1.49,0.68,3,0.97,4.5c0.26,1.34,1.05,6.62,0.57,2.84c0.85,6.69,1.16,13.45,1.04,20.2c-0.06,3.37-0.23,6.74-0.5,10.1
				c-0.14,1.8-0.31,3.59-0.51,5.38c-0.09,0.77-0.19,1.54-0.27,2.32c-0.29,2.81,0.46-2.85,0.01-0.06
				c-2.29,14.04-5.42,27.79-10.01,41.28c-1.1,3.22-2.26,6.42-3.49,9.6c-0.57,1.47-1.16,2.92-1.74,4.38c-0.09,0.23-1.1,2.64-0.3,0.75
				c0.89-2.11-0.99,2.25-0.96,2.18c-2.77,6.25-5.78,12.39-9,18.42c-6.74,12.62-14.42,24.73-22.8,36.32
				c-0.94,1.3-1.88,2.58-2.84,3.87c-0.64,0.86-1.28,1.71-1.92,2.56c-0.12,0.16-1.73,2.26-0.54,0.72c0.95-1.24-1.59,2.02-2.05,2.59
				c-1.33,1.67-2.68,3.33-4.04,4.98c-4.43,5.37-9,10.62-13.7,15.75c-9.76,10.65-20.07,20.78-30.81,30.43
				c-5.44,4.89-10.99,9.67-16.66,14.29c-1.31,1.06-2.62,2.12-3.94,3.17c-0.09,0.07-2.28,1.78-0.84,0.67
				c1.6-1.23-1.19,0.89-1.53,1.15c-2.92,2.19-5.89,4.32-8.92,6.36c-6.24,4.22-12.72,8.09-19.49,11.41c-1.74,0.85-3.5,1.68-5.28,2.45
				c2.71-1.18-0.96,0.34-1.87,0.67c-3.64,1.35-7.36,2.52-11.13,3.47c-1.47,0.37-2.95,0.71-4.44,1.01c-0.6,0.12-5.69,0.85-3.31,0.6
				c2.34-0.25-1.98,0.14-2.66,0.19c-1.94,0.14-3.87,0.21-5.81,0.21c-3.17,0.01-6.27-0.33-9.43-0.5c3.2,0.17,0.76,0.12-0.94-0.19
				c-1.89-0.35-3.77-0.76-5.62-1.25c-2.78-0.73-5.44-1.72-8.15-2.65c3.93,1.35-0.53-0.3-1.51-0.8c-1.26-0.64-2.49-1.32-3.7-2.05
				c-1.41-0.84-2.77-1.76-4.12-2.69c-2.79-1.91,1.7,1.64-0.77-0.68c-2.44-2.29-4.74-4.6-6.85-7.19c-5.96-7.34-19.34-6.66-25.46,0
				C4647.84,1231.42,4648.63,1241.24,4654.99,1249.07L4654.99,1249.07z"/>
		</g>
	</g>
</g>
<g id="Layer_3">
	<path class="st0" d="M1432.5,1550.5c10-26-55-19-131-341c0,0-82.97-234.91-150.96-292.97c1.06,0.65,22.3,12.94,72.96-26.03
		c0,0-84-20-100-38c0,0,36,7,52-2c0,0-56-22-63-36c0,0,129,34,196-30c0,0-96-9-117-22c0,0,50-22,65-48c0,0-36,12-65,11
		c0,0,45-14,48-20c0,0-143,10-212-37s-110-195-196-183c0,0-103-57-125,15c0,0-70-4-100,75c0,0-28,5-31,26c0,0-72-18-79-67
		c0,0-34,67,28,131c0,0-47,53,19,184c65.41,129.83,186.81,183.05,188.97,183.99c-1.61-0.27-69.24-11.53-91.97,27.01c0,0-40,12-39,48
		s-14,31-10,66c0,0-19,20-20,27c0,0-47,10-51,47s-10,91,36,105c0,0-13,110-21,116s-260,324-263,350c0,0,6,26,39,45
		c0,0-118,85-171,92s-39,85,7,86s82,8,185-6c0,0-32,91,54,93s179-45,272-44s57-129,57-129s46-19,83-60c0,0-15-216-5-193
		s188,315,327,343s255-62,284-208s-27-225-27-225S1422.5,1576.5,1432.5,1550.5z M894.5,1154.5c0,0-47-80-94-101c0,0-43-51-62-67
		c0,0,10-17,30-3s12,25,26,38c0,0,38,11,50,0s68,40,95,32S926.5,1145.5,894.5,1154.5z"/>
</g>
</svg>
