<?xml version="1.0" encoding="utf-8"?>
<!-- Generator: Adobe Illustrator 22.0.1, SVG Export Plug-In . SVG Version: 6.00 Build 0)  -->
<svg version="1.1" id="Layer_1" xmlns="http://www.w3.org/2000/svg" xmlns:xlink="http://www.w3.org/1999/xlink" x="0px" y="0px"
	 viewBox="0 0 60.8 70.1" style="enable-background:new 0 0 60.8 70.1;" xml:space="preserve">
<style type="text/css">
	.st0{display:none;}
	.st1{fill:none;stroke:#C2E1D4;stroke-width:2;stroke-miterlimit:10;}
	.st2{fill:#C2DFD3;}
	.st3{fill:#C2E1D4;}
	.st4{fill:none;stroke:#C2E1D4;stroke-width:0.5;stroke-miterlimit:10;}
	.st5{fill:#141414;}
	.st6{fill:#4F4F4F;}
	.st7{fill:#BFBFBF;}
	.st8{opacity:0.58;fill:#757575;enable-background:new    ;}
	.st9{fill:#757575;}
	.st10{opacity:0.24;fill:#494949;enable-background:new    ;}
	.st11{fill:#B21818;}
	.st12{opacity:0.72;fill:#E5E5E5;enable-background:new    ;}
	.st13{fill:#7C1212;}
	.st14{fill:#565656;}
	.st15{fill:#3F3F3F;}
</style>
<g id="sketch_xA0_Image_1_" class="st0">
	
		<image style="display:inline;overflow:visible;opacity:0.35;enable-background:new    ;" width="2550" height="3505" id="sketch_xA0_Image" xlink:href="1DDE9C31651FE6E0.jpeg"  transform="matrix(-4.408728e-17 0.24 -0.24 -4.408728e-17 182.6 -143.4)">
	</image>
</g>
<g id="Layer_3">
	<circle class="st1" cx="30.4" cy="33.2" r="23.2"/>
	<circle class="st1" cx="30.4" cy="33.2" r="15.5"/>
	<circle class="st2" cx="19.4" cy="16.9" r="0.4"/>
	<g>
		<path class="st3" d="M14.9,23.1c0,0-0.3,0.6,0.2,0.7c0.4,0.1,0.7-0.2,0.8-0.7c0.2-0.5-0.7-1.2-1.9-0.7c0,0-1.2,1-0.3,1.8
			c0,0,0.5,0.5,1.1,0.1c0,0-0.6,0.7-1.6-0.2c0,0-0.3,1.1-0.9,1.3c0,0,0.6,0,1.2-0.8c0,0-0.6,1.2-1.7,1c0,0,0.3,0.5,1.1,0.3
			c0.8-0.2,1.3-0.8,1.3-0.8S13.8,26,13,26.2s-1.5-0.5-1.6-0.9c-0.1-0.4,0-0.7,0.4-0.9c0,0-0.4,0.3-0.3,0.6s0.4,0.6,0.9,0.1
			c0.5-0.4,0.5-0.9,0.5-1.5s1-3.6,2.2-3c0,0,0.6,0.4,0.3,1c0,0,0.1-0.6-0.5-0.8c-0.6-0.2-1.2,0.9-1.4,1.7c0,0,1.4-1.6,2.4-0.2
			c0.3,0.4,0.3,0.8,0.2,1c-0.2,0.7-1.1,0.8-1.4,0.4C14.4,23.3,14.9,23.1,14.9,23.1z"/>
		<ellipse class="st4" cx="13.2" cy="21.1" rx="0.3" ry="0.3"/>
		<ellipse class="st4" cx="12.1" cy="24.4" rx="0.3" ry="0.3"/>
		<ellipse class="st4" cx="15.3" cy="23.2" rx="0.3" ry="0.3"/>
		<ellipse class="st4" cx="14.6" cy="21.4" rx="0.2" ry="0.2"/>
		<path class="st2" d="M15.2,20.7c0,0,0.6-0.4,1.2-0.4c0,0,0.2-0.8,0.8-1.6L15.2,20.7z"/>
		<path class="st2" d="M15.2,20.7c0,0,0.4-0.6,0.4-1.2c0,0,0.8-0.2,1.6-0.8L15.2,20.7z"/>
	</g>
	<circle class="st2" cx="11.4" cy="38" r="0.4"/>
	<circle class="st2" cx="29.1" cy="52.8" r="0.4"/>
	<circle class="st2" cx="49.2" cy="38.7" r="0.4"/>
	<circle class="st2" cx="41.7" cy="17.3" r="0.4"/>
	<g>
		<path class="st3" d="M21.4,49.6c0,0-0.5-0.3-0.2-0.7c0.3-0.3,0.7-0.2,1.1,0.2c0.4,0.4,0,1.4-1.4,1.5c0,0-1.5-0.3-1.1-1.4
			c0,0,0.3-0.7,0.9-0.7c0,0-0.9-0.3-1.3,0.9c0,0-0.8-0.8-1.4-0.7c0,0,0.5-0.3,1.5,0.1c0,0-1.1-0.8-2-0.1c0,0,0-0.6,0.8-0.8
			c0.8-0.2,1.5,0.2,1.5,0.2s-0.9-0.5-1.7-0.4c-0.8,0.2-1.1,1.2-1,1.6c0.2,0.4,0.3,0.7,0.8,0.6c0,0-0.5-0.1-0.6-0.4
			c-0.1-0.3,0.1-0.7,0.7-0.5c0.6,0.2,0.9,0.6,1.2,1.1c0.3,0.5,2.6,2.7,3.4,1.6c0,0,0.3-0.7-0.3-1c0,0,0.3,0.5-0.1,0.9
			c-0.4,0.4-1.5-0.3-2-0.8c0,0,2,0.8,2.2-1c0.1-0.5-0.2-0.8-0.3-0.9C21.9,48.3,21,48.6,21,49C20.9,49.6,21.4,49.6,21.4,49.6z"/>
		<ellipse class="st4" cx="21" cy="52.2" rx="0.3" ry="0.3"/>
		<ellipse class="st4" cx="18.5" cy="49.8" rx="0.3" ry="0.3"/>
		<ellipse class="st4" cx="21.8" cy="49.3" rx="0.3" ry="0.3"/>
		<ellipse class="st4" cx="22" cy="51.2" rx="0.2" ry="0.2"/>
		<path class="st2" d="M22.9,51.5c0,0,0.7,0.1,1.3-0.2c0,0,0.6,0.6,1.5,1L22.9,51.5z"/>
		<path class="st2" d="M22.9,51.5c0,0,0.7,0.3,0.9,0.9c0,0,0.8-0.2,1.9,0L22.9,51.5z"/>
	</g>
	<g>
		<path class="st3" d="M12,30.7c0,0,0.1-0.6,0.6-0.4c0.3,0.2,0.4,0.6,0.2,1.1c-0.2,0.5-1.3,0.5-1.9-0.7c0,0-0.3-1.5,0.9-1.5
			c0,0,0.7,0,0.9,0.7c0,0-0.1-0.9-1.4-0.9c0,0,0.5-1.1,0.2-1.5c0,0,0.4,0.4,0.4,1.4c0,0,0.3-1.3-0.7-1.8c0,0,0.6-0.2,1.1,0.5
			c0.5,0.7,0.4,1.5,0.4,1.5s0.2-1-0.3-1.7c-0.5-0.7-1.5-0.6-1.8-0.3c-0.3,0.3-0.5,0.5-0.2,0.9c0,0-0.1-0.5,0.2-0.7
			c0.2-0.2,0.7-0.2,0.8,0.5c0.1,0.7-0.2,1-0.6,1.5c-0.4,0.5-1.5,3.4-0.3,3.7c0,0,0.7,0.1,0.8-0.6c0,0-0.3,0.5-0.9,0.3
			c-0.6-0.2-0.3-1.4,0-2.2c0,0,0,2.1,1.8,1.7c0.5-0.1,0.7-0.4,0.8-0.7c0.3-0.7-0.3-1.3-0.8-1.2C11.8,30.3,12,30.7,12,30.7z"/>
		<ellipse class="st4" cx="9.4" cy="31.3" rx="0.3" ry="0.3"/>
		<ellipse class="st4" cx="10.8" cy="28" rx="0.3" ry="0.3"/>
		<ellipse class="st4" cx="12.4" cy="31" rx="0.3" ry="0.3"/>
		<ellipse class="st4" cx="10.7" cy="31.9" rx="0.2" ry="0.2"/>
		<path class="st2" d="M10.7,32.8c0,0,0.1,0.7,0.7,1.1c0,0-0.4,0.8-0.4,1.8L10.7,32.8z"/>
		<path class="st2" d="M10.7,32.8c0,0,0,0.7-0.5,1.2c0,0,0.5,0.7,0.7,1.7L10.7,32.8z"/>
	</g>
	<g>
		<path class="st3" d="M15.5,43.8c0,0,0.4,0.4,0.7,0c0.2-0.3,0.1-0.7-0.4-1c-0.5-0.3-1.4,0.3-1.2,1.6c0,0,0.6,1.4,1.6,0.8
			c0,0,0.6-0.4,0.5-1.1c0,0,0.4,0.8-0.7,1.4c0,0,1,0.7,0.9,1.2c0,0,0.2-0.6-0.4-1.4c0,0,1,0.9,0.4,1.9c0,0,0.6-0.1,0.7-1
			c0.1-0.8-0.4-1.5-0.4-1.5s0.7,0.8,0.7,1.6s-1,1.3-1.4,1.2c-0.4-0.1-0.7-0.2-0.7-0.7c0,0,0.2,0.5,0.5,0.5c0.3,0,0.7-0.2,0.4-0.8
			c-0.3-0.6-0.7-0.8-1.3-1c-0.6-0.2-3.1-2.1-2.2-3c0,0,0.6-0.4,1.1,0.1c0,0-0.6-0.3-0.9,0.2s0.5,1.4,1.2,1.8c0,0-1.1-1.8,0.6-2.4
			c0.5-0.2,0.8,0,1,0.2c0.6,0.4,0.4,1.3,0,1.4C15.5,44.3,15.5,43.8,15.5,43.8z"/>
		<ellipse class="st4" cx="13" cy="44.7" rx="0.3" ry="0.3"/>
		<ellipse class="st4" cx="15.8" cy="46.7" rx="0.3" ry="0.3"/>
		<ellipse class="st4" cx="15.7" cy="43.3" rx="0.3" ry="0.3"/>
		<ellipse class="st4" cx="13.7" cy="43.4" rx="0.2" ry="0.2"/>
		<path class="st2" d="M13.3,42.7c0,0-0.3-0.7,0-1.3c0,0-0.7-0.4-1.3-1.3L13.3,42.7z"/>
		<path class="st2" d="M13.3,42.7c0,0-0.4-0.6-1-0.8c0,0,0.1-0.8-0.3-1.8L13.3,42.7z"/>
	</g>
	<g>
		<path class="st3" d="M44.5,45.3c0,0-0.5,0.4-0.7,0c-0.2-0.4,0-0.7,0.5-1c0.5-0.3,1.4,0.4,1.1,1.7c0,0-0.7,1.4-1.6,0.7
			c0,0-0.6-0.4-0.4-1.1c0,0-0.5,0.8,0.6,1.5c0,0-1,0.6-1,1.2c0,0-0.1-0.6,0.5-1.4c0,0-1,0.8-0.6,1.9c0,0-0.6-0.2-0.6-1
			c0-0.8,0.5-1.4,0.5-1.4S42,47,42,47.8c-0.1,0.8,0.8,1.4,1.3,1.4S44,49,44,48.5c0,0-0.3,0.4-0.5,0.4c-0.3,0-0.7-0.3-0.3-0.8
			c0.3-0.6,0.8-0.7,1.4-0.8c0.6-0.1,3.3-1.9,2.4-2.8c0,0-0.5-0.5-1.1,0c0,0,0.6-0.2,0.9,0.3c0.3,0.5-0.6,1.4-1.4,1.7
			c0,0,1.3-1.7-0.4-2.4c-0.4-0.2-0.8-0.1-1,0.1c-0.6,0.4-0.5,1.3-0.1,1.4C44.5,45.8,44.5,45.3,44.5,45.3z"/>
		<ellipse class="st4" cx="46.9" cy="46.5" rx="0.3" ry="0.3"/>
		<ellipse class="st4" cx="43.9" cy="48.2" rx="0.3" ry="0.3"/>
		<ellipse class="st4" cx="44.4" cy="44.9" rx="0.3" ry="0.3"/>
		<ellipse class="st4" cx="46.3" cy="45.2" rx="0.2" ry="0.2"/>
		<path class="st2" d="M46.8,44.4c0,0,0.3-0.7,0.1-1.3c0,0,0.8-0.4,1.4-1.2L46.8,44.4z"/>
		<path class="st2" d="M46.8,44.4c0,0,0.4-0.6,1.1-0.7c0,0,0-0.8,0.4-1.8L46.8,44.4z"/>
	</g>
	<g>
		<path class="st3" d="M37.8,50.4c0,0,0.6-0.3,0.3-0.6c-0.3-0.3-0.7-0.3-1.1,0c-0.4,0.3-0.2,1.4,1.1,1.6c0,0,1.6-0.1,1.3-1.3
			c0,0-0.2-0.7-0.8-0.8c0,0,0.9-0.2,1.2,1.1c0,0,0.9-0.7,1.5-0.5c0,0-0.5-0.3-1.5-0.1c0,0,1.2-0.6,1.9,0.2c0,0,0.1-0.6-0.7-0.9
			c-0.8-0.3-1.5-0.1-1.5-0.1s0.9-0.4,1.7-0.1c0.8,0.3,0.9,1.3,0.7,1.7c-0.2,0.4-0.4,0.6-0.9,0.4c0,0,0.5-0.1,0.6-0.3
			c0.1-0.3,0-0.7-0.6-0.6c-0.7,0.1-0.9,0.4-1.3,0.9s-3,2.3-3.6,1.1c0,0-0.2-0.7,0.4-1c0,0-0.4,0.5-0.1,0.9s1.5-0.1,2.1-0.6
			c0,0-2,0.5-2-1.3c0-0.5,0.3-0.8,0.5-0.9c0.6-0.4,1.4,0,1.4,0.5C38.3,50.5,37.8,50.4,37.8,50.4z"/>
		<ellipse class="st4" cx="37.9" cy="53.1" rx="0.3" ry="0.3"/>
		<ellipse class="st4" cx="40.7" cy="51" rx="0.3" ry="0.3"/>
		<ellipse class="st4" cx="37.5" cy="50.1" rx="0.3" ry="0.3"/>
		<ellipse class="st4" cx="36.9" cy="51.9" rx="0.2" ry="0.2"/>
		<path class="st2" d="M36.1,52.2c0,0-0.7,0-1.2-0.4c0,0-0.7,0.5-1.6,0.8L36.1,52.2z"/>
		<path class="st2" d="M36.1,52.2c0,0-0.7,0.2-1,0.7c0,0-0.8-0.3-1.8-0.3L36.1,52.2z"/>
	</g>
	<g>
		<path class="st3" d="M45.8,22.8c0,0,0.3,0.6-0.2,0.7c-0.4,0.1-0.7-0.1-0.9-0.7c-0.2-0.5,0.6-1.3,1.9-0.7c0,0,1.2,1,0.3,1.7
			c0,0-0.5,0.5-1.1,0.2c0,0,0.7,0.7,1.6-0.2c0,0,0.4,1.1,0.9,1.3c0,0-0.6,0-1.3-0.8c0,0,0.6,1.2,1.7,0.9c0,0-0.3,0.5-1.1,0.3
			c-0.8-0.2-1.3-0.8-1.3-0.8s0.5,0.9,1.4,1.1c0.8,0.2,1.5-0.6,1.6-1c0.1-0.4,0-0.7-0.5-0.8c0,0,0.4,0.3,0.3,0.6s-0.4,0.6-0.9,0.1
			c-0.5-0.4-0.5-0.9-0.6-1.5s-1.1-3.6-2.3-2.9c0,0-0.6,0.4-0.2,1c0,0-0.1-0.6,0.5-0.8s1.2,0.9,1.4,1.7c0,0-1.4-1.6-2.4-0.1
			c-0.3,0.4-0.2,0.8-0.1,1c0.3,0.7,1.1,0.8,1.4,0.4C46.2,23,45.8,22.8,45.8,22.8z"/>
		<ellipse class="st4" cx="47.3" cy="20.7" rx="0.3" ry="0.3"/>
		<ellipse class="st4" cx="48.5" cy="24" rx="0.3" ry="0.3"/>
		<ellipse class="st4" cx="45.3" cy="22.9" rx="0.3" ry="0.3"/>
		<ellipse class="st4" cx="45.9" cy="21.1" rx="0.2" ry="0.2"/>
		<path class="st2" d="M45.4,20.4c0,0-0.6-0.4-1.2-0.4c0,0-0.2-0.8-0.9-1.6L45.4,20.4z"/>
		<path class="st2" d="M45.4,20.4c0,0-0.5-0.6-0.4-1.2c0,0-0.8-0.2-1.7-0.8L45.4,20.4z"/>
	</g>
	<g>
		<path class="st3" d="M34.7,15c0,0-0.6-0.1-0.6,0.4c0,0.4,0.4,0.6,0.9,0.6s1-1,0-2c0,0-1.4-0.8-1.8,0.3c0,0-0.3,0.7,0.3,1.1
			c0,0-0.8-0.4-0.3-1.6c0,0-1.2,0-1.5-0.4c0,0,0.2,0.5,1.1,0.9c0,0-1.3-0.2-1.4-1.3c0,0-0.4,0.5,0.1,1.2c0.4,0.7,1.2,0.9,1.2,0.9
			s-1-0.2-1.5-0.9c-0.5-0.7,0-1.6,0.4-1.8c0.4-0.2,0.7-0.3,1,0.2c0,0-0.5-0.3-0.7-0.1c-0.2,0.2-0.4,0.6,0.2,0.9c0.6,0.3,1,0.2,1.6,0
			c0.6-0.2,3.8-0.1,3.5,1.1c0,0-0.2,0.7-0.9,0.6c0,0,0.6-0.1,0.6-0.7c0-0.6-1.3-0.8-2-0.8c0,0,2,0.8,0.9,2.2
			c-0.3,0.4-0.6,0.5-0.9,0.5c-0.7,0-1.1-0.8-0.8-1.2C34.4,14.6,34.7,15,34.7,15z"/>
		<ellipse class="st4" cx="36.2" cy="12.8" rx="0.3" ry="0.3"/>
		<ellipse class="st4" cx="32.7" cy="12.8" rx="0.3" ry="0.3"/>
		<ellipse class="st4" cx="34.8" cy="15.5" rx="0.3" ry="0.3"/>
		<ellipse class="st4" cx="36.3" cy="14.2" rx="0.2" ry="0.2"/>
		<path class="st2" d="M37.1,14.5c0,0,0.6,0.4,0.8,1c0,0,0.8-0.1,1.8,0.3L37.1,14.5z"/>
		<path class="st2" d="M37.1,14.5c0,0,0.7,0.3,1.3,0c0,0,0.5,0.7,1.3,1.3L37.1,14.5z"/>
	</g>
	<g>
		<path class="st3" d="M48.7,30.4c0,0-0.2-0.6-0.6-0.4c-0.3,0.2-0.4,0.6-0.2,1.1c0.2,0.5,1.3,0.5,1.9-0.8c0,0,0.2-1.5-0.9-1.5
			c0,0-0.7,0-0.9,0.7c0,0,0-0.9,1.3-0.9c0,0-0.5-1.1-0.2-1.5c0,0-0.4,0.4-0.4,1.4c0,0-0.4-1.3,0.6-1.9c0,0-0.6-0.2-1.1,0.5
			c-0.5,0.7-0.4,1.5-0.4,1.5s-0.2-1,0.3-1.7c0.4-0.7,1.5-0.6,1.8-0.3c0.3,0.3,0.5,0.5,0.3,0.9c0,0,0.1-0.5-0.2-0.7
			c-0.2-0.2-0.7-0.2-0.8,0.5c-0.1,0.7,0.2,1,0.6,1.5c0.4,0.4,1.6,3.4,0.3,3.7c0,0-0.7,0.1-0.9-0.6c0,0,0.3,0.5,0.9,0.3
			c0.6-0.2,0.3-1.5-0.1-2.2c0,0,0,2.1-1.7,1.7c-0.5-0.1-0.7-0.4-0.8-0.7c-0.3-0.6,0.3-1.3,0.8-1.2C48.9,29.9,48.7,30.4,48.7,30.4z"
			/>
		<ellipse class="st4" cx="51.3" cy="30.9" rx="0.3" ry="0.3"/>
		<ellipse class="st4" cx="49.9" cy="27.7" rx="0.3" ry="0.3"/>
		<ellipse class="st4" cx="48.3" cy="30.6" rx="0.3" ry="0.3"/>
		<ellipse class="st4" cx="50" cy="31.5" rx="0.2" ry="0.2"/>
		<path class="st2" d="M50,32.4c0,0-0.1,0.7-0.6,1.1c0,0,0.4,0.8,0.4,1.8L50,32.4z"/>
		<path class="st2" d="M50,32.4c0,0,0,0.7,0.5,1.2c0,0-0.5,0.7-0.7,1.7L50,32.4z"/>
	</g>
	<g>
		<path class="st3" d="M26.6,14.9c0,0,0.6-0.1,0.5,0.4c-0.1,0.4-0.4,0.6-1,0.5c-0.6-0.1-0.9-1.1,0.1-2c0,0,1.4-0.7,1.7,0.4
			c0,0,0.2,0.7-0.3,1.1c0,0,0.9-0.3,0.4-1.5c0,0,1.2,0.1,1.5-0.3c0,0-0.3,0.5-1.2,0.8c0,0,1.4-0.1,1.5-1.2c0,0,0.4,0.5-0.1,1.2
			c-0.5,0.7-1.3,0.8-1.3,0.8s1-0.1,1.5-0.8c0.5-0.6,0.1-1.6-0.3-1.9c-0.4-0.2-0.7-0.3-1,0.1c0,0,0.5-0.2,0.7-0.1
			c0.2,0.2,0.4,0.6-0.2,0.8c-0.6,0.3-1,0.1-1.6-0.1c-0.6-0.2-3.7-0.4-3.6,0.9c0,0,0.2,0.7,0.8,0.6c0,0-0.6-0.2-0.5-0.8
			c0-0.6,1.3-0.7,2.1-0.6c0,0-2,0.7-1.1,2.2c0.3,0.4,0.6,0.5,0.8,0.5c0.7,0,1.2-0.7,0.9-1.1C26.9,14.6,26.6,14.9,26.6,14.9z"/>
		<ellipse class="st4" cx="25.3" cy="12.6" rx="0.3" ry="0.3"/>
		<ellipse class="st4" cx="28.7" cy="12.9" rx="0.3" ry="0.3"/>
		<ellipse class="st4" cx="26.5" cy="15.4" rx="0.3" ry="0.3"/>
		<ellipse class="st4" cx="25.1" cy="14.1" rx="0.2" ry="0.2"/>
		<path class="st2" d="M24.2,14.3c0,0-0.6,0.3-0.8,0.9c0,0-0.8-0.1-1.8,0.1L24.2,14.3z"/>
		<path class="st2" d="M24.2,14.3c0,0-0.7,0.2-1.3-0.1c0,0-0.5,0.7-1.4,1.2L24.2,14.3z"/>
	</g>
</g>
<g id="Logo">
	<path class="st5" d="M25.7,46.2l1.4,0.7c0,0,0.9,6,0.7,6.2c-0.3,0.2-2.2,0.4-2.7-1.3c-0.4-1.7-0.2-3.5-0.4-4
		C24.3,47.3,25.7,46.2,25.7,46.2z"/>
	<rect x="35.3" y="32.8" transform="matrix(0.9814 -0.192 0.192 0.9814 -6.5875 8.8825)" class="st5" width="14.4" height="11.3"/>
	<path class="st5" d="M25,11.5c0,0-0.4,4.1-0.5,4.1s-0.1,1.3,0.1,1.8c0,0-0.5-0.5-0.5-1.3c0,0-0.1,1.4,0.3,2.1c0,0-0.9-1.3-0.8-2.7
		c0,0-0.4,2.1,0.3,3.6c0,0-4.5-6.3-1.1-11.4c0,0,1.1-2.4,3.4-2c0,0,1.6-2.8,4.6-1.7s4.2,3.1,4.8,6.5c0.6,3.3,0.1,4.3,0.4,5.7
		c0,0-1-1.2-1.1-2.4c0,0,0.1,2.5,0.7,3.5c0,0-0.9-0.3-1.1-0.8c0,0,0,1.5,0.3,1.9l0.9,0.1c0,0,0.2,2.1,0.4,2.4c0,0,2,1,2.1,1L38,22.1
		c0,0,1.3,0.9,2.4,0.7c0,0,1.1,2.5,1.2,3.3c0,0.8,0.8,6.3,0.9,6.5c0,0,0.6,0.5,0.7,1.3c0.1,0.8,0.9,3.9,0.9,3.9s1.2-0.1,1.3,0.1
		c0.1,0.2,0.1,4.3,0.1,4.3s1.4,2.2,0.5,3c0,0-2.1,1.5-3.7,0.7c-1.5-0.8-0.8-2.7-0.8-2.7s-0.6,0-0.8-0.2l-1-3.6c0,0,0.3-0.6,0.9-0.8
		c0,0-1.2-3.4-1-5.3c0,0-1.8-4.8-1.8-5.9c0,0-1,4.5-1.2,7s0.8,5.5,0.8,5.5s-2.9,0.9-3.9,2.2c0,0-3.2,6.2-3.8,8.4L28.9,51
		c0,0-0.1,6.3-1.9,10.7c0,0-0.4,0.3-1.6,0c0,0-1.3,5.3-4.7,3.8c-3.4-1.5,0.9-5.6,0.9-5.6s-0.7-0.2-0.9-0.9c0,0,4.1-7.9,5.1-8.9
		c0,0-0.1-1.1,0-1.6c0,0,2.8-8.2,2.8-9.1c0,0-1.2,0.2-2.2-0.4c0,0-4.1,3.6-5.8,4.4c0,0,5.4,2.5,5.9,2.5c0,0-1.7,4.1-2.7,4.5
		c0,0-5.3-2.7-6.2-2.9s-1.9,0.3-2.2,0.1c-0.4-0.2-1.2-3.4-1.1-4.5c0.1-1.1,8.5-6.9,9.2-7.2c0,0,0.6-1.2,0.7-1.3l-0.3-0.6l0.4-0.6
		c0,0-0.9-0.2-1.3-0.8c0,0,0-0.4,0.1-0.7c0.1-0.3-0.9-5.3-0.7-6.5c0,0-0.4,0-0.5-0.1c0,0-0.4-3.1-0.2-3.3c0,0,0.7-0.4,0.8-0.4
		c0,0-0.3-2.2,0.5-2.6s1.8-1.4,2.2-0.7c0.4,0.7,0,2.4,0,2.4l0.7,0.1c0,0,0.2,3.2,0,3.6c0,0-0.1,0.3-0.5,0.5c0,0.2,0.3,1.4,0.3,1.5
		c0,0,1.2-3,1.1-3.6c0,0,2.2-0.9,2.5-1.2c0,0,1.1-1.5,1.2-2.1L25,11.5z"/>
	<path class="st6" d="M30.4,19.6c0,0,0.5,0.1,0.6,0.1c0.2,0,3.2-2.9,2.1-5.5C33.2,14.2,31.2,19.3,30.4,19.6z"/>
	<path class="st5" d="M24.5,16.1c0,0,1.6,2.1,2.6,2.6c1,0.5,2.9,1.2,3.8,0.9c0,0,2.3-2,2.4-4.4L33.1,14"/>
	<path class="st7" d="M27.1,16.5v0.7l-1.3,0.6c0,0-0.4-0.4-0.4-0.5C25.4,17.3,27.1,16.5,27.1,16.5z"/>
	<path class="st7" d="M31.9,13l-1.2,1.3l-7.4,0.8l-0.3-0.7c0.3-1,1-2,1.8-2.7c1.6-1.5,3.7-2.3,3.7-2.3c1.5,0.8,3.7-0.1,3.8-0.2
		C31.5,10.4,31.9,13,31.9,13z"/>
	<path class="st8" d="M28.5,9.4l0,1.4c0,0-2.6,1.4-3.1,2.1c0,0-0.5-0.5-0.5-1.2C26.4,10.2,28.5,9.4,28.5,9.4z"/>
	<path class="st8" d="M31.9,13l-0.6-0.1c-0.8-1,0-3,0-3l0.9-0.8C31.5,10.4,31.9,13,31.9,13z"/>
	<path class="st9" d="M31.3,12.9c0,0-2.3,3.1-5.7,4.6c0,0-0.1-0.1-0.3-0.2c-0.2-0.1-0.4-0.3-0.6-0.4c-0.1-0.1-0.2-0.2-0.3-0.2
		c-0.1-0.1-0.2-0.2-0.3-0.3c-0.1-0.1-0.2-0.2-0.2-0.3c-0.1-0.1-0.1-0.2-0.2-0.2c-0.2-0.2-0.3-0.4-0.3-0.7c0-0.1-0.1-0.2-0.1-0.3
		c0,0,0.8-3.1,5.2-4.9c0,0,1.9,0.5,2.8-0.2C31.3,9.9,30.9,12.1,31.3,12.9z"/>
	<path class="st10" d="M31.3,12.9c0,0-2.3,3.1-5.7,4.6c0,0-0.1-0.1-0.3-0.2c-0.2-0.1-0.4-0.3-0.6-0.4c-0.1-0.1-0.2-0.2-0.3-0.2
		c-0.1-0.1-0.2-0.2-0.3-0.3c4.5-2.7,7.2-6.5,7.2-6.5S30.9,12.1,31.3,12.9z"/>
	<path class="st11" d="M29.3,14.1c0,0-0.4,0.3-0.9,0.8c-0.7,0.6-1.6,1.4-2.4,1.9c-0.3,0.2-0.6,0.4-0.8,0.5c-0.1,0-0.1-0.1-0.2-0.1
		l0,0c-0.1-0.1-0.3-0.2-0.4-0.3c0.2-0.1,0.4-0.3,0.8-0.5c0.9-0.7,2.2-1.6,2.9-2.3c0.2-0.2,0.3-0.3,0.4-0.4c0,0,0.1-0.2,0.3-0.2
		c0.1,0,0.3,0,0.4,0.1C29.7,13.7,29.3,14.1,29.3,14.1z"/>
	<path class="st11" d="M28.2,12.1C28.2,12.1,28.1,12.1,28.2,12.1L28.2,12.1c-0.3,0.2-0.7,0.5-1.2,1c-0.9,0.7-2,1.6-2.8,2.3
		c-0.2,0.2-0.4,0.4-0.5,0.6c0,0,0,0,0,0.1c-0.1-0.2-0.2-0.3-0.3-0.5c0-0.1,0-0.1-0.1-0.2c0,0,0-0.1,0-0.1s0.1-0.1,0.3-0.3
		c0.7-0.6,2.1-2,3.1-2.8c0.3-0.2,0.5-0.4,0.7-0.5c0,0,0.5-0.3,0.7-0.1C28.2,11.6,28.4,11.8,28.2,12.1z"/>
	<path class="st11" d="M30.1,11.7c-0.1,0.2-0.3,0.4-0.3,0.4s-0.3,0.3-0.9,0.8c-0.3,0.3-0.6,0.6-1,0.9l0,0c-0.9,0.8-2.1,1.8-2.9,2.4
		c-0.3,0.2-0.6,0.4-0.8,0.5c-0.2-0.1-0.3-0.3-0.4-0.4c0,0,0,0,0-0.1c0.1-0.1,0.3-0.3,0.7-0.5c1.2-0.9,3.3-2.7,4.3-3.7
		c0.2-0.2,0.3-0.3,0.4-0.4c0,0,0.4-0.5,0.8-0.2C30.2,11.4,30.2,11.6,30.1,11.7z"/>
	<path class="st12" d="M31.3,9.9c0,0-1.2,1.4-1.3,1.4l0.1,0.2C30.1,11.5,31.2,10.2,31.3,9.9z"/>
	<polygon class="st5" points="27.3,23.3 26.9,23.5 19.7,14.1 19.7,13.7 20.1,13.9 	"/>
	<path class="st13" d="M28.2,12.1c0,0-0.7,0.5-1.3,1c0-0.1,0-0.4,0-0.6c0-0.1-0.1-0.2-0.1-0.3c0.3-0.2,0.5-0.4,0.7-0.5
		c0,0,0.5-0.3,0.7-0.1C28.2,11.6,28.4,11.8,28.2,12.1z"/>
	<path class="st13" d="M30.1,11.7c-0.1,0.2-0.3,0.4-0.3,0.4s-0.3,0.3-0.9,0.8c0-0.1,0-0.3,0-0.6c0-0.2-0.1-0.3-0.1-0.3
		c0.2-0.2,0.3-0.3,0.4-0.4c0,0,0.4-0.5,0.8-0.2C30.2,11.4,30.2,11.6,30.1,11.7z"/>
	<path class="st13" d="M29.3,14.1c0,0-0.4,0.3-0.9,0.8c0-0.1,0.1-0.3,0-0.6c0-0.1-0.1-0.2-0.1-0.3c0.2-0.2,0.3-0.3,0.4-0.4
		c0,0,0.1-0.2,0.3-0.2c0.1,0,0.3,0,0.4,0.1C29.7,13.7,29.3,14.1,29.3,14.1z"/>
	<path class="st13" d="M23.6,15.9C23.6,15.9,23.6,16,23.6,15.9c-0.1-0.1-0.2-0.3-0.3-0.4c0-0.1,0-0.1-0.1-0.2c0,0,0-0.1,0-0.1
		s0.1-0.1,0.3-0.3c0.1,0.1,0.3,0.3,0.5,0.4C23.9,15.6,23.8,15.8,23.6,15.9z"/>
	<path class="st13" d="M25.1,16.2c-0.3,0.2-0.6,0.4-0.8,0.5c-0.2-0.1-0.3-0.3-0.4-0.4c0,0,0,0,0-0.1c0.1-0.1,0.3-0.3,0.7-0.5
		C24.7,15.8,24.9,16,25.1,16.2z"/>
	<path class="st14" d="M30.1,11.7c-0.2-0.6-0.7-0.2-0.7-0.2c0,0,0,0.1-0.1,0.1c-0.8,1-5.3,4.6-5.4,4.7c0,0-0.1-0.1-0.1-0.1
		c0.6-0.4,4.8-3.8,5.4-4.7c0,0,0.4-0.5,0.8-0.2C30.2,11.4,30.2,11.6,30.1,11.7z"/>
	<path class="st13" d="M26,16.8c-0.3,0.2-0.6,0.4-0.8,0.5c-0.1,0-0.1-0.1-0.2-0.1l0,0c-0.1-0.1-0.3-0.2-0.4-0.3
		c0.2-0.1,0.4-0.3,0.8-0.5C25.6,16.6,25.8,16.7,26,16.8z"/>
	<path class="st14" d="M29.3,14.1c0,0-0.1,0.1-0.2,0.1c-0.6,0.5-2.8,2.5-3.9,3.1c-0.1,0-0.1-0.1-0.2-0.1c1.3-0.6,3.4-2.4,4.1-3.1
		c0.1-0.1,0.2-0.3,0.2-0.3c0.1-0.3-0.3-0.5-0.3-0.5c0.1,0,0.3,0,0.4,0.1C29.7,13.7,29.3,14.1,29.3,14.1z"/>
	<path class="st14" d="M28.2,12.1C28.2,12.1,28.1,12.1,28.2,12.1c-0.1,0,0.1-0.4-0.2-0.5c-0.1,0-0.2,0-0.3,0.1
		c-0.5,0.2-1.2,0.8-2.4,1.8c-0.6,0.5-1.2,1.2-2,2c0-0.1,0-0.1-0.1-0.2c0,0,3.1-3.1,4.2-3.7c0,0,0.1,0,0.2-0.1c0.2-0.1,0.4-0.1,0.6,0
		C28.3,11.6,28.4,11.9,28.2,12.1z"/>
	<path class="st15" d="M28.2,12.1C28.2,12.1,28.1,12.1,28.2,12.1c-0.1,0,0.1-0.4-0.2-0.5c-0.1,0-0.2,0-0.3,0.1l0-0.1
		c0.2-0.1,0.4-0.1,0.6,0C28.3,11.6,28.4,11.9,28.2,12.1z"/>
	<path class="st15" d="M30.1,11.7c-0.2-0.6-0.7-0.2-0.7-0.2c0,0,0,0.1-0.1,0.1l-0.1-0.1c0,0,0.4-0.5,0.8-0.2
		C30.2,11.4,30.2,11.6,30.1,11.7z"/>
	<path class="st15" d="M29.3,14.1c0,0-0.1,0.1-0.2,0.1l-0.1-0.1c0.1-0.1,0.2-0.3,0.2-0.3c0.1-0.3-0.3-0.5-0.3-0.5
		c0.1,0,0.3,0,0.4,0.1C29.7,13.7,29.3,14.1,29.3,14.1z"/>
</g>
</svg>
