<?xml version="1.0" encoding="utf-8"?>
<!-- Generator: Adobe Illustrator 22.1.0, SVG Export Plug-In . SVG Version: 6.00 Build 0)  -->
<svg version="1.1" id="Layer_1" xmlns="http://www.w3.org/2000/svg" xmlns:xlink="http://www.w3.org/1999/xlink" x="0px" y="0px"
	 viewBox="0 0 93.8 125" style="enable-background:new 0 0 93.8 125;" xml:space="preserve">
<path d="M90.4,23.8L69.9,3.3c-2.2-2.2-5.2-3.4-8.3-3.4H11.7C5.3-0.1,0,5.2,0,11.7v101.6c0,6.5,5.3,11.7,11.7,11.7h70.4
	c6.5,0,11.7-5.3,11.7-11.7V32.1C93.8,29,92.6,26,90.4,23.8z M81.1,31.2H62.5V12.6L81.1,31.2z M11.7,113.3V11.7h39.1v25.4
	c0,3.2,2.6,5.9,5.9,5.9h25.4v70.4H11.7z M72.8,78.2c-3-2.9-11.5-2.1-15.7-1.6c-4.2-2.6-7-6.1-9-11.3c1-3.9,2.5-9.9,1.3-13.7
	c-1-6.4-9.2-5.8-10.4-1.4c-1.1,3.9-0.1,9.4,1.7,16.4c-2.4,5.8-6.1,13.7-8.6,18.2c-4.9,2.5-11.5,6.4-12.5,11.3
	c-0.8,3.9,6.4,13.5,18.6-7.6c5.5-1.8,11.4-4,16.7-4.9c4.6,2.5,10,4.2,13.6,4.2C74.8,87.6,75.4,80.7,72.8,78.2z M24.5,97.2
	c1.2-3.3,6-7.2,7.4-8.6C27.2,96,24.5,97.3,24.5,97.2z M44.4,50.6c1.8,0,1.6,7.8,0.4,10C43.8,57.2,43.8,50.6,44.4,50.6z M38.4,84
	c2.4-4.1,4.4-9,6-13.4c2,3.7,4.6,6.6,7.4,8.7C46.7,80.3,42.3,82.5,38.4,84z M70.6,82.8c0,0-1.2,1.5-9.1-1.9
	C70,80.2,71.5,82.2,70.6,82.8z"/>
</svg>
