<?xml version="1.0" encoding="utf-8"?>
<!-- Generator: Adobe Illustrator 22.1.0, SVG Export Plug-In . SVG Version: 6.00 Build 0)  -->
<svg version="1.1" xmlns="http://www.w3.org/2000/svg" xmlns:xlink="http://www.w3.org/1999/xlink" x="0px" y="0px"
	 viewBox="0 0 500 500" style="enable-background:new 0 0 500 500;" xml:space="preserve">
<style type="text/css">
	.st0{fill:#303030;}
	.st1{fill:#4E4F54;}
	.st2{fill:#2D2F38;}
	.st3{opacity:0.68;fill:#17191D;}
	.st4{fill:#6F7175;}
	.st5{opacity:0.5;fill:#303030;}
	.st6{opacity:0.41;fill:#2E3035;}
	.st7{fill:#FFFFFF;}
	.st8{fill:#C32126;}
	.st9{fill:#131417;}
	.st10{opacity:0.5;fill:#FFFFFF;}
	.st11{opacity:0.35;fill:#17191D;}
	.st12{fill:#939393;}
	.st13{opacity:0.22;fill:#303030;}
	.st14{opacity:0.4;fill:#303030;}
	.st15{fill:#37393F;}
	.st16{fill:#F9ED1A;}
	.st17{opacity:0.32;fill:#494924;}
	.st18{fill:#7A131B;}
	.st19{fill:#494924;}
	.st20{fill:#F2F2F4;}
	.st21{fill:#FFFFFA;}
	.st22{fill:#F2F4F7;}
	.st23{opacity:0.19;fill:#FFFFFF;}
	.st24{opacity:0.33;fill:#17191D;}
	.st25{fill:#FEF0F1;}
	.st26{opacity:0.45;fill:#7A131B;}
	.st27{opacity:0.71;fill:#401212;}
	.st28{fill:#43B64E;}
	.st29{opacity:0.17;fill:#343949;}
	.st30{opacity:0.17;fill:none;stroke:#343949;stroke-width:5;stroke-miterlimit:10;}
	.st31{fill:#0E0E0E;}
	.st32{fill:#4F4F4F;}
	.st33{fill:#C2C0C0;}
	.st34{opacity:0.58;fill:#777676;}
	.st35{fill:#777676;}
	.st36{opacity:0.24;fill:#494848;}
	.st37{fill:#D02027;}
	.st38{opacity:0.72;fill:#E6E6E5;}
	.st39{fill:#921A1D;}
	.st40{fill:#565656;}
	.st41{fill:#3D3D3D;}
	.st42{fill:#232323;}
	.st43{fill:#18161A;}
	.st44{fill:#FFFFFF;stroke:#000000;}
	.st45{fill:#7F141A;}
	.st46{fill:none;stroke:#43B64E;stroke-width:5;stroke-miterlimit:10;}
</style>
<g id="Sketch">
</g>
<g id="Sword">
</g>
<g id="Layer_3">
	<rect x="0" class="st28" width="500" height="500"/>
	<g>
		<circle class="st7" cx="247.6" cy="186.1" r="69.3"/>
		<circle class="st46" cx="247.6" cy="186.1" r="42.3"/>
		<path class="st7" d="M184.8,228.5c0,0,5.5,13.8,27.3,25.5c16.5,8.8,19,8.3,32.6,11.8l-26.9,117.5L185.8,352l-48.9,3.9L184.8,228.5
			z"/>
		<polygon class="st28" points="143,339.5 189.3,337.9 221.7,365.9 226.7,344.1 193.4,321.3 149.1,323.5 		"/>
		<path class="st7" d="M315.2,228.5c0,0-5.5,13.8-27.3,25.5c-16.5,8.8-19,8.3-32.6,11.8l26.9,117.5l31.9-31.3l48.9,3.9L315.2,228.5z
			"/>
		<polygon class="st28" points="357,339.5 310.7,337.9 278.3,365.9 273.3,344.1 306.6,321.3 350.9,323.5 		"/>
	</g>
</g>
</svg>
