<?xml version="1.0" encoding="utf-8"?>
<!-- Generator: Adobe Illustrator 22.1.0, SVG Export Plug-In . SVG Version: 6.00 Build 0)  -->
<svg version="1.1" xmlns="http://www.w3.org/2000/svg" xmlns:xlink="http://www.w3.org/1999/xlink" x="0px" y="0px"
	 viewBox="0 0 230 230" style="enable-background:new 0 0 230 230;" xml:space="preserve">
<style type="text/css">
	.st0{fill:#303030;}
	.st1{fill:#4E4F54;}
	.st2{fill:#2D2F38;}
	.st3{opacity:0.68;fill:#17191D;}
	.st4{fill:#6F7175;}
	.st5{opacity:0.5;fill:#303030;}
	.st6{opacity:0.41;fill:#2E3035;}
	.st7{fill:#FFFFFF;}
	.st8{fill:#C32126;}
	.st9{fill:#131417;}
	.st10{opacity:0.5;fill:#FFFFFF;}
	.st11{opacity:0.35;fill:#17191D;}
	.st12{fill:#939393;}
	.st13{opacity:0.22;fill:#303030;}
	.st14{opacity:0.4;fill:#303030;}
	.st15{fill:#37393F;}
	.st16{fill:#F9ED1A;}
	.st17{opacity:0.32;fill:#494924;}
	.st18{fill:#7A131B;}
	.st19{fill:#494924;}
	.st20{fill:#F2F2F4;}
	.st21{fill:#FFFFFA;}
	.st22{fill:#F2F4F7;}
	.st23{opacity:0.19;fill:#FFFFFF;}
	.st24{opacity:0.33;fill:#17191D;}
	.st25{fill:#FEF0F1;}
	.st26{opacity:0.45;fill:#7A131B;}
	.st27{opacity:0.71;fill:#401212;}
	.st28{opacity:0.17;fill:#343949;}
	.st29{opacity:0.17;fill:none;stroke:#343949;stroke-width:5;stroke-miterlimit:10;}
	.st30{fill:#0E0E0E;}
	.st31{fill:#4F4F4F;}
	.st32{fill:#C2C0C0;}
	.st33{opacity:0.58;fill:#777676;}
	.st34{fill:#777676;}
	.st35{opacity:0.24;fill:#494848;}
	.st36{fill:#D02027;}
	.st37{opacity:0.72;fill:#E6E6E5;}
	.st38{fill:#921A1D;}
	.st39{fill:#565656;}
	.st40{fill:#3D3D3D;}
	.st41{fill:#232323;}
	.st42{fill:#18161A;}
	.st43{fill:#FFFFFF;stroke:#000000;}
	.st44{fill:#7F141A;}
	.st45{stroke:#FFFFFF;stroke-width:5;stroke-miterlimit:10;}
</style>
<g id="Sketch">
</g>
<g id="Sword">
</g>
<g id="Layer_3">
	<circle class="st28" cx="115.6" cy="113.7" r="95.6"/>
	<circle class="st29" cx="115.6" cy="113.7" r="75.3"/>
	<g>
		<path class="st30" d="M70.6,151.8l4.2,1.6c0,0,4.3,17.3,3.6,17.9c-0.7,0.6-6.4,1.8-8.2-3.2s-1.4-10.1-2.3-11.5
			C67,155.2,70.6,151.8,70.6,151.8z"/>
		<path class="st30" d="M59.9,50.1c0,0-0.3,12.2-0.3,12.2c0,0,0,3.8,0.7,5.2c0,0-1.5-1.3-1.8-3.6c0,0,0.2,4.1,1.2,6.2
			c0,0-2.9-3.6-2.9-7.6c0,0-0.6,6.4,1.6,10.4c0,0-14.8-17.4-6-33.1c0,0,2.6-7.3,9.3-6.8c0,0,3.9-8.7,12.9-6.2S87.8,35,90.4,44.5
			s1.4,12.7,2.6,16.7c0,0-3.3-3.1-3.8-6.6c0,0,0.8,7.4,2.8,9.9c0,0-2.7-0.6-3.6-2.1c0,0,0.3,4.4,1.4,5.6l2.8,0c0,0,1,6.1,1.9,6.9
			c0,0,5.9,2.5,6.5,2.4l-0.4,0.8c0,0,4.1,2.3,7.2,1.5c0,0,4,7,4.3,9.3c0.3,2.3,4,18.2,4.3,19c0,0,1.8,1.2,2.5,3.7
			c0.6,2.5,3.6,11.2,3.6,11.2s3.4-0.6,3.7-0.2c0.3,0.4,1.4,12.6,1.4,12.6s4.7,6.1,2.2,8.5c0,0-5.9,4.9-10.6,2.9
			c-4.7-2-3.1-7.8-3.1-7.8s-1.6,0.1-2.2-0.5l-3.8-10.2c0,0,0.8-1.9,2.4-2.6c0,0-4.4-9.8-4.2-15.1c0,0-6.6-13.5-6.7-16.7
			c0,0-1.9,13.6-1.8,20.8c0,7.3,3.9,15.9,3.9,15.9s-8.4,3.4-10.9,7.5c0,0-7.9,19-9,25.5l-2.5,1.9c0,0,1.4,18.5-2.7,31.8
			c0,0-1.2,0.9-4.7,0.4c0,0-2.6,15.9-12.9,12.3s1.3-16.7,1.3-16.7s-2.1-0.4-2.9-2.4c0,0,10-24.3,12.6-27.5c0,0-0.6-3.3-0.5-4.7
			c0,0,6.1-24.9,5.9-27.5c0,0-3.5,0.8-6.6-0.6c0,0-11.2,11.5-15.8,14.4c0,0,16.5,6,17.7,5.7c0,0-3.9,12.4-6.9,13.8
			c0,0-16.3-6.6-18.8-6.9c-2.6-0.3-5.4,1.2-6.5,0.8c-1.1-0.4-4.4-9.6-4.4-12.9c0-3.3,23.1-22.3,25-23.3c0,0,1.4-3.6,1.8-4l-1.1-1.6
			l1.1-1.9c0,0-2.8-0.4-4-2.2c0,0,0-1.2,0.1-1.9c0.1-0.8-3.9-15.8-3.6-19.2c0,0-1.3,0.2-1.5-0.1c0,0-2-9-1.5-9.7c0,0,2-1.4,2.3-1.4
			c0,0-1.3-6.3,0.7-7.8c2-1.5,4.9-4.5,6.3-2.6c1.4,2,0.6,7.1,0.6,7.1l2.2,0c0,0,1.3,9.5,0.9,10.6c0,0-0.3,0.9-1.4,1.7
			c0,0.5,1.1,4.2,1.1,4.4c0,0,2.7-9.1,2.3-10.8c0,0,6.4-3.1,6.9-4.2c0,0,2.9-4.8,2.8-6.5L59.9,50.1z"/>
		<path class="st31" d="M77.8,72.4c0,0,1.4,0.2,1.9,0.2c0.5-0.1,8.6-9.3,4.9-16.7C84.6,55.9,80.2,71.5,77.8,72.4z"/>
		<path class="st30" d="M59.7,63.6c0,0,5.4,5.8,8.3,6.9c3,1.1,8.7,2.8,11.4,1.6c0,0,6.3-6.6,5.9-13.5l-0.7-3.2"/>
		<path class="st32" d="M67.4,64.2l0.2,2.2l-3.7,1.9c0,0-1.3-1.2-1.3-1.3C62.7,67,67.4,64.2,67.4,64.2z"/>
		<path class="st32" d="M80.4,52.8l-3.2,4l-21.4,4.3l-1.2-2.1c0.7-3.2,2.5-6,4.7-8.4c4.4-4.8,10.2-7.8,10.2-7.8
			c4.5,2.1,10.7-1.3,11-1.5C78.8,45.3,80.4,52.8,80.4,52.8z"/>
		<path class="st33" d="M69.5,42.9l0.3,4c0,0-7.4,4.9-8.6,7.1c0,0-1.5-1.4-1.9-3.3C63.8,45.9,69.5,42.9,69.5,42.9z"/>
		<path class="st33" d="M80.4,52.8l-1.8,0c-2.7-2.9-0.8-8.8-0.8-8.8l2.6-2.5C78.8,45.3,80.4,52.8,80.4,52.8z"/>
		<path class="st34" d="M78.7,52.8c0,0-5.9,9.5-15.6,14.8c0,0-0.4-0.1-1-0.4c-0.5-0.2-1.2-0.6-2-1.1c-0.3-0.2-0.6-0.4-0.9-0.6
			c-0.3-0.2-0.6-0.4-0.8-0.6c-0.3-0.2-0.5-0.4-0.7-0.7c-0.2-0.2-0.4-0.4-0.6-0.6c-0.5-0.6-0.9-1.2-1.2-1.8c-0.1-0.3-0.2-0.6-0.3-0.9
			c0,0,1.6-9.2,14.1-15.7c0,0,5.5,1,8.3-1.2C77.9,43.9,77.5,50.3,78.7,52.8z"/>
		<path class="st35" d="M78.7,52.8c0,0-5.9,9.5-15.6,14.8c0,0-0.4-0.1-1-0.4c-0.5-0.2-1.2-0.6-2-1.1c-0.3-0.2-0.6-0.4-0.9-0.6
			c-0.3-0.2-0.6-0.4-0.8-0.6c12.4-9.1,19.6-20.9,19.6-20.9S77.5,50.3,78.7,52.8z"/>
		<path class="st36" d="M73.2,56.7c0,0-1,1.1-2.5,2.7c-1.8,1.9-4.3,4.4-6.5,6.2c-0.8,0.7-1.5,1.2-2.2,1.6c-0.2-0.1-0.4-0.2-0.6-0.3
			l0,0c-0.4-0.2-0.9-0.5-1.3-0.8c0.5-0.4,1.2-1,2-1.8c2.4-2.1,5.9-5.3,7.9-7.5c0.5-0.5,0.9-1,1.2-1.4c0,0,0.4-0.5,0.9-0.8
			c0.3-0.2,0.8-0.2,1.2,0.2C74.3,55.5,73.2,56.7,73.2,56.7z"/>
		<path class="st36" d="M69.4,51c0,0-0.1,0.1-0.2,0.2c0,0,0,0,0,0c-0.5,0.4-1.7,1.5-3.2,2.9c-2.4,2.3-5.6,5.3-7.5,7.5
			c-0.6,0.7-1.1,1.3-1.3,1.8c0,0,0,0.1,0,0.2c-0.4-0.4-0.7-0.9-1-1.4C56,62,56,61.9,55.9,61.7c0.1-0.1,0.1-0.1,0.1-0.1
			s0.3-0.4,0.9-1.1c1.7-2,5.7-6.5,8.4-9c0.7-0.7,1.4-1.2,1.9-1.5c0,0,1.3-0.9,1.9-0.5C69.4,49.6,69.9,50.2,69.4,51z"/>
		<path class="st36" d="M75,49.3c-0.1,0.6-0.6,1.2-0.6,1.2s-1,1-2.4,2.6c-0.8,0.8-1.7,1.8-2.7,2.9c0,0,0,0,0,0
			c-2.6,2.7-5.6,5.8-7.9,7.7c-0.9,0.8-1.6,1.3-2.2,1.7c-0.5-0.3-1-0.7-1.4-1.2c-0.1,0-0.1-0.1-0.2-0.1c0.3-0.3,1-0.9,1.8-1.7
			c3.1-3,9.1-8.8,11.8-11.9c0.5-0.6,0.9-1.1,1.1-1.4c0,0,1.1-1.7,2.3-0.7C75,48.6,75.1,49,75,49.3z"/>
		<path class="st37" d="M77.9,43.9c0,0-3.1,4.4-3.4,4.5l0.4,0.4C74.9,48.8,77.7,44.8,77.9,43.9z"/>
		<polygon class="st30" points="69.5,84 68.5,84.9 45.1,59.2 44.8,58 46.1,58.3 		"/>
		<path class="st38" d="M69.4,51c0,0-2,1.7-3.5,3.1c0-0.4,0-1.2-0.2-1.8c-0.1-0.3-0.3-0.6-0.4-0.9c0.7-0.7,1.4-1.2,1.9-1.5
			c0,0,1.3-0.9,1.9-0.5C69.4,49.6,69.9,50.2,69.4,51z"/>
		<path class="st38" d="M75,49.3c-0.1,0.6-0.6,1.2-0.6,1.2s-1,1-2.4,2.6c0-0.3,0-0.9-0.3-1.6c-0.2-0.4-0.3-0.7-0.5-1
			c0.5-0.6,0.9-1.1,1.1-1.4c0,0,1.1-1.7,2.3-0.7C75,48.6,75.1,49,75,49.3z"/>
		<path class="st38" d="M73.2,56.7c0,0-1,1.1-2.5,2.7c0.1-0.4,0.1-1-0.2-1.8c-0.1-0.3-0.3-0.6-0.4-0.8c0.5-0.5,0.9-1,1.2-1.4
			c0,0,0.4-0.5,0.9-0.8c0.3-0.2,0.8-0.2,1.2,0.2C74.3,55.5,73.2,56.7,73.2,56.7z"/>
		<path class="st38" d="M57.1,63.4c0,0,0,0.1,0,0.2c-0.4-0.4-0.7-0.9-1-1.4C56,62,56,61.9,55.9,61.7c0.1-0.1,0.1-0.1,0.1-0.1
			s0.3-0.4,0.9-1.1c0.4,0.3,0.9,0.7,1.5,1.1C57.8,62.3,57.3,62.9,57.1,63.4z"/>
		<path class="st38" d="M61.4,63.8c-0.9,0.8-1.6,1.3-2.2,1.7c-0.5-0.3-1-0.7-1.4-1.2c-0.1,0-0.1-0.1-0.2-0.1c0.3-0.3,1-0.9,1.8-1.7
			C60.1,62.9,60.7,63.3,61.4,63.8z"/>
		<path class="st39" d="M75,49.3c-0.8-1.8-2.1-0.3-2.1-0.3c0,0.1-0.1,0.2-0.2,0.3c-2,3-14.4,14.8-14.8,15.2c-0.1,0-0.3-0.3-0.4-0.3
			c1.6-1.4,12.9-12.3,14.8-15.1c0,0,1.1-1.7,2.3-0.7C75,48.6,75.1,49,75,49.3z"/>
		<path class="st38" d="M64.2,65.5c-0.8,0.7-1.5,1.2-2.2,1.6c-0.2-0.1-0.4-0.2-0.6-0.3l0,0c-0.4-0.2-0.9-0.5-1.3-0.8
			c0.5-0.4,1.2-1,2-1.8C62.9,64.8,63.7,65.2,64.2,65.5z"/>
		<path class="st39" d="M73.2,56.7c0,0-0.1,0.2-0.4,0.4c-1.6,1.7-7.5,8-10.8,10c-0.2-0.1-0.4-0.2-0.6-0.3c3.7-2,9.3-7.7,11.2-10.1
			c0.3-0.4,0.6-0.8,0.6-0.9c0.3-0.9-1.1-1.3-1.1-1.3c0.3-0.2,0.8-0.2,1.2,0.2C74.3,55.5,73.2,56.7,73.2,56.7z"/>
		<path class="st39" d="M69.4,51c0,0-0.2,0.2-0.2,0.2c0-0.1,0.4-1.5-0.5-1.5c-0.2,0-0.5,0.1-0.8,0.2c-1.3,0.6-3.3,2.5-6.4,5.8
			c-1.6,1.7-3.3,3.9-5.3,6.4C56,62,56,61.9,55.9,61.7c0.1-0.1,8.3-9.9,11.4-11.8c0,0,0.2-0.1,0.5-0.3c0.5-0.2,1.2-0.5,1.7-0.2
			C69.6,49.7,70,50.4,69.4,51z"/>
		<path class="st40" d="M69.4,51c0,0-0.2,0.2-0.2,0.2c0-0.1,0.4-1.5-0.5-1.5c-0.2,0-0.5,0.1-0.8,0.2l-0.1-0.3
			c0.5-0.2,1.2-0.5,1.7-0.2C69.6,49.7,70,50.4,69.4,51z"/>
		<path class="st40" d="M75,49.3c-0.8-1.8-2.1-0.3-2.1-0.3c0,0.1-0.1,0.2-0.2,0.3l-0.3-0.2c0,0,1.1-1.7,2.3-0.7
			C75,48.6,75.1,49,75,49.3z"/>
		<path class="st40" d="M73.2,56.7c0,0-0.1,0.2-0.4,0.4l-0.2-0.3c0.3-0.4,0.6-0.8,0.6-0.9c0.3-0.9-1.1-1.3-1.1-1.3
			c0.3-0.2,0.8-0.2,1.2,0.2C74.3,55.5,73.2,56.7,73.2,56.7z"/>
	</g>
	<g>
		<path class="st41" d="M145.7,69.4c0,0-9.4,10.8-11.1,19.9c-1.1,5.6,0.8,12.4,5,17.4c3.5,4.1,10.7,6.2,17,6.5c0,0-3.9-2.4-4.1-3.7
			c0,0,8.5,4.6,11.7,3.5c0,0-15.4-7.7-15.9-12.4s-4.4-20.2,2.3-27S145.7,69.4,145.7,69.4z"/>
		<path d="M197.4,199.3c-3.8-1.8-16.2-1.6-17.5-2.3c-1.3-0.6-1.5-2-1.5-2s0.3-2.5-0.2-6.4c-0.4-4-13.1-20.3-13.1-20.3l-15.6-5.5
			c-2.6,2.7-1.3,6.8-2.1,9.1c-0.9,2.3-6.9,6.6-10.7,2.7c-3.8-4,1.6-12.6,2.5-15.4c0.9-2.9,0.9-6.3,1.5-8.7c0.6-2.4,2.8-2,2.8-2
			s14.9,6.2,15.1,6.2c0-0.1-3.6-9.4-3.6-9.4l-5.3-1.8l0.3-0.9l-6-4.2l5.4-8l-0.4-1.6c0,0,4-10.6,3.7-12.3c-0.3-1.6-4.6-9.1-4.6-9.1
			c-0.3,1-2.5,3.9-2.9,4.2c-0.4,0.3-0.8-0.3-0.8-0.3s-4.7,5.6-4.9,9.9c-0.2,4.3-5.9,16.9-7.4,19.6c-1.5,2.7-5.1,1.3-5.1,1.3
			c-1.9,6.2-10,4.7-12-0.2c-2-4.9,2.9-6.7,2.9-6.7s-1.1-0.1-0.4-2.9c0.6-2.8,12.8-12.1,13-13.1c0.2-1,3.8-9.3,3.7-9.6
			c0-0.2-0.4-1.1-0.4-1.1s2.4-4.9,3-5.6c0.6-0.7,1.4-0.3,1.8-1c0.4-0.6-0.2-1.2-0.2-1.2c-3-6.2,5.6-8.9,5.6-8.9l-0.5-0.5l2.6-6.8
			c0,0,1-0.5,1.1-1.2c0-0.1,0-0.3,0-0.5c0-0.4-0.1-0.8-0.3-1.1c-0.2-0.5-0.3-0.9-0.3-0.9l10.2-2.5l1.3,3.8l1.5,0.4l6.2,1.7l2.7,2.9
			l1.1-0.8c0,0-0.4-0.9-6.1-4c-5.6-3.1-3-7.2-1.4-7.8c1.7-0.6,6.1,0,9.7,2.2c3.6,2.2,2.3,6.7,3.1,6.2c0.8-0.5,3.9-0.7,3.9-0.7
			s7.2,8.1,8.1,15.6c0.8,7.4-3.6,7.1-7.4,6.7c-3.7-0.4-11-4.4-11.5-4.6c2.5,3.6,1.9,10.8,2,11.8c0.1,1,6.6,8,6.6,8l-0.6,2.4l10,8.7
			c-0.5,2.1-2.5,4.2-2.5,4.2l1.3,1.8c-2.5,1.8-6.9,4-6.9,4l-3.9,15.7c0,0,7.4,15.7,9.4,22.1c2,6.4,5.5,8.3,9.9,8.1
			c4.5-0.2,6.7-1.2,11.8,3.5C210.2,194.8,201.3,201.1,197.4,199.3z"/>
		<path class="st31" d="M156,81.6l0,2.5c-1.7,0.6-6.8,0-8.9-1c0-0.4-0.1-0.8-0.3-1.1l1-0.9l6.7,2.4L156,81.6z"/>
		<path d="M162.9,66.7c0,0-0.8,3.8,0.6,6.9c1.4,3.1-7.5,10.4-7.5,10.4s-8.5,1-13.9-5.5c-5.4-6.5-5.4-19.7-0.1-22.3
			c5.4-2.5,15.9-5.6,18.2,1.5C162.5,64.9,162.9,66.7,162.9,66.7z"/>
		<path d="M147.2,62.1c0,0-1.7,5.1-4.3,11.5c-2.6,6.4,2.6,12.3,2.6,12.3s-8-2-11.9-16.7s6.4-17.5,9-16.1c0,0,3.2-7.7,8.1-3.6
			c0,0,3.6-4.1,8.8-1.5c5.2,2.5,10.5,10.2,7,27c0,0-0.3-7.1-6-10.9c-5.7-3.8-4.9-3.9-4.9-3.9s0.7,9.7-3.4,13c0,0,0.3-3.4,0-4.3
			C152,67.8,147.3,66.3,147.2,62.1z"/>
		<path d="M133.6,61c0,0-7.6-5-8.9,5.3s4.1,9.9,1.4,16.3c-2.6,6.4-9,2.9-12.4,5.9s-5.1,9.4-3.8,13.1c0,0-2.2,11.9,1.4,16.9
			c0,0-1.1-11.9,5.7-17.3c0,0-5.2,9.7,4.1,20.9c0,0-3.5-11,0.8-18.5c4.3-7.5,11.5-10.3,12.8-19.3C136,75.7,136.8,83.9,133.6,61z"/>
	</g>
	<g>
		<g>
			<path class="st43" d="M90.7,48.5h2.4v23.3H105V74H90.7V48.5z"/>
			<path class="st43" d="M107.9,50.8c0-0.5,0.2-0.8,0.5-1.2c0.3-0.3,0.7-0.5,1.2-0.5c0.5,0,0.8,0.2,1.2,0.5c0.3,0.3,0.5,0.7,0.5,1.2
				c0,0.5-0.2,0.8-0.5,1.2c-0.3,0.3-0.7,0.5-1.2,0.5c-0.5,0-0.8-0.2-1.2-0.5C108.1,51.6,107.9,51.3,107.9,50.8z M108.5,57.4h2.2V74
				h-2.2V57.4z"/>
			<path class="st43" d="M118,59.3h-3.5v-1.9h3.5v-5.4c0-1.1,0.2-2,0.5-2.7c0.3-0.7,0.7-1.3,1.2-1.7c0.5-0.4,1-0.7,1.6-0.9
				c0.6-0.2,1.1-0.3,1.7-0.3c1,0,1.8,0.1,2.5,0.4l-0.4,1.9c-0.5-0.2-1.1-0.4-1.9-0.4c-1.9,0-2.9,1.5-2.9,4.4v4.6h3.9v1.9h-3.9V74
				H118V59.3z"/>
			<path class="st43" d="M142.1,70.9c-0.8,1.3-1.9,2.2-3.1,2.7c-1.2,0.6-2.6,0.8-4.1,0.8c-1.3,0-2.4-0.2-3.5-0.6
				c-1-0.4-1.9-1-2.7-1.8c-0.7-0.8-1.3-1.7-1.7-2.8c-0.4-1.1-0.6-2.2-0.6-3.5c0-1.2,0.2-2.4,0.6-3.5c0.4-1.1,1-2,1.7-2.8
				c0.7-0.8,1.6-1.4,2.6-1.8c1-0.4,2.1-0.7,3.3-0.7c1.3,0,2.4,0.2,3.4,0.7c1,0.4,1.8,1,2.4,1.8c0.7,0.7,1.2,1.6,1.5,2.5
				c0.3,0.9,0.5,1.9,0.5,2.8v1.5h-14c0,0.5,0.1,1,0.3,1.7s0.5,1.4,1,2.1c0.5,0.7,1.1,1.2,1.9,1.7c0.8,0.5,1.8,0.7,3.1,0.7
				c1.1,0,2.2-0.3,3.2-0.8c1-0.5,1.8-1.2,2.4-2.2L142.1,70.9z M140.4,64.3c0-0.7-0.2-1.4-0.5-2.1s-0.7-1.2-1.2-1.7
				c-0.5-0.5-1.1-0.9-1.8-1.2c-0.7-0.3-1.5-0.4-2.2-0.4c-1.2,0-2.2,0.2-2.9,0.7c-0.8,0.5-1.4,1-1.9,1.7c-0.5,0.6-0.8,1.2-1,1.8
				c-0.2,0.6-0.3,1-0.3,1.2H140.4z"/>
			<path class="st43" d="M101.8,113.7c0-1.3,0.2-2.4,0.6-3.5c0.4-1.1,1-2,1.8-2.8c0.8-0.8,1.7-1.4,2.8-1.8s2.3-0.6,3.5-0.6
				s2.4,0.2,3.5,0.6s2,1,2.8,1.8c0.8,0.8,1.4,1.7,1.8,2.8c0.4,1.1,0.6,2.2,0.6,3.5c0,1.3-0.2,2.4-0.6,3.5c-0.4,1.1-1,2-1.8,2.8
				c-0.8,0.8-1.7,1.4-2.8,1.8c-1.1,0.4-2.2,0.6-3.5,0.6s-2.4-0.2-3.5-0.6c-1.1-0.4-2-1-2.8-1.8c-0.8-0.8-1.4-1.7-1.8-2.8
				C102,116.1,101.8,115,101.8,113.7z M104,113.7c0,0.9,0.1,1.8,0.5,2.6c0.3,0.8,0.7,1.5,1.3,2.2c0.6,0.6,1.3,1.1,2.1,1.5
				c0.8,0.4,1.7,0.5,2.7,0.5s1.9-0.2,2.7-0.5c0.8-0.4,1.5-0.8,2.1-1.5c0.6-0.6,1-1.3,1.3-2.2c0.3-0.8,0.4-1.7,0.4-2.6
				s-0.2-1.8-0.4-2.6c-0.3-0.8-0.7-1.5-1.3-2.2c-0.6-0.6-1.3-1.1-2.1-1.5c-0.8-0.4-1.7-0.5-2.7-0.5s-1.9,0.2-2.7,0.5
				s-1.5,0.8-2.1,1.5c-0.6,0.6-1,1.3-1.3,2.2C104.1,111.9,104,112.8,104,113.7z"/>
			<path class="st43" d="M125.3,107.3h-3.5v-1.9h3.5v-5.4c0-1.1,0.2-2,0.5-2.7c0.3-0.7,0.7-1.3,1.2-1.7c0.5-0.4,1-0.7,1.6-0.9
				c0.6-0.2,1.1-0.3,1.7-0.3c1,0,1.8,0.1,2.5,0.4l-0.4,1.9c-0.5-0.2-1.1-0.4-1.9-0.4c-1.9,0-2.9,1.5-2.9,4.4v4.6h3.9v1.9h-3.9V122
				h-2.2V107.3z"/>
			<path class="st43" d="M66.3,144.5h7.9c2.2,0,4.1,0.3,5.6,0.8c1.5,0.5,2.8,1.2,3.8,2.1c1,0.8,1.8,1.8,2.4,2.8c0.6,1,1,2,1.3,2.9
				c0.3,0.9,0.5,1.8,0.5,2.5c0.1,0.8,0.1,1.3,0.1,1.6c0,0.3,0,0.8-0.1,1.6c-0.1,0.8-0.2,1.6-0.5,2.5c-0.3,0.9-0.7,1.9-1.3,2.9
				c-0.6,1-1.4,2-2.4,2.8c-1,0.8-2.3,1.5-3.8,2.1c-1.5,0.5-3.4,0.8-5.6,0.8h-7.9V144.5z M68.7,167.9h4.9c1.7,0,3.3-0.2,4.7-0.6
				c1.5-0.4,2.7-1.1,3.8-1.9c1.1-0.9,1.9-2,2.6-3.3c0.6-1.3,0.9-2.9,0.9-4.7c0-1.8-0.3-3.4-0.9-4.7s-1.5-2.4-2.6-3.3
				c-1.1-0.9-2.4-1.5-3.8-1.9c-1.5-0.4-3-0.6-4.7-0.6h-4.9V167.9z"/>
			<path class="st43" d="M97.4,153H99l7.2,17h-1.8l-1.8-4.5h-9l-1.9,4.5H90L97.4,153z M98.1,154.8l-4,9.3h7.8L98.1,154.8z"/>
			<path class="st43" d="M108.6,153h2l10.3,14.9h0V153h1.6v17h-2l-10.3-14.9h0V170h-1.6V153z"/>
		</g>
		<g>
			<path class="st44" d="M148.7,140c0,0,6.2-3.4,3.8,2.7c-2.4,6.1-44.7,63.1-44.7,63.1L148.7,140z"/>
			<polygon class="st44" points="130.1,140.3 151.2,182.1 129.1,144.2 127.8,137.8 			"/>
		</g>
	</g>
</g>
</svg>
