<?xml version="1.0" encoding="utf-8"?>
<!-- Generator: Adobe Illustrator 22.1.0, SVG Export Plug-In . SVG Version: 6.00 Build 0)  -->
<svg version="1.1" xmlns="http://www.w3.org/2000/svg" xmlns:xlink="http://www.w3.org/1999/xlink" x="0px" y="0px"
	 viewBox="0 0 260 260" style="enable-background:new 0 0 260 260;" xml:space="preserve">
<style type="text/css">
	.st0{fill:#303030;}
	.st1{fill:#4E4F54;}
	.st2{fill:#2D2F38;}
	.st3{opacity:0.68;fill:#17191D;}
	.st4{fill:#6F7175;}
	.st5{opacity:0.5;fill:#303030;}
	.st6{opacity:0.41;fill:#2E3035;}
	.st7{fill:#FFFFFF;}
	.st8{fill:#C32126;}
	.st9{fill:#131417;}
	.st10{opacity:0.5;fill:#FFFFFF;}
	.st11{opacity:0.35;fill:#17191D;}
	.st12{fill:#939393;}
	.st13{opacity:0.22;fill:#303030;}
	.st14{opacity:0.4;fill:#303030;}
	.st15{fill:#37393F;}
	.st16{fill:#F9ED1A;}
	.st17{opacity:0.32;fill:#494924;}
	.st18{fill:#7A131B;}
	.st19{fill:#494924;}
	.st20{fill:#F2F2F4;}
	.st21{fill:#FFFFFA;}
	.st22{fill:#F2F4F7;}
	.st23{opacity:0.19;fill:#FFFFFF;}
	.st24{opacity:0.33;fill:#17191D;}
	.st25{fill:#FEF0F1;}
	.st26{opacity:0.45;fill:#7A131B;}
	.st27{opacity:0.71;fill:#401212;}
	.st28{opacity:0.17;fill:#343949;}
	.st29{opacity:0.17;fill:none;stroke:#343949;stroke-width:5;stroke-miterlimit:10;}
	.st30{fill:#0E0E0E;}
	.st31{fill:#4F4F4F;}
	.st32{fill:#C2C0C0;}
	.st33{opacity:0.58;fill:#777676;}
	.st34{fill:#777676;}
	.st35{opacity:0.24;fill:#494848;}
	.st36{fill:#D02027;}
	.st37{opacity:0.72;fill:#E6E6E5;}
	.st38{fill:#921A1D;}
	.st39{fill:#565656;}
	.st40{fill:#3D3D3D;}
	.st41{fill:#232323;}
	.st42{fill:#18161A;}
	.st43{fill:#FFFFFF;stroke:#000000;}
	.st44{fill:#7F141A;}
	.st45{stroke:#FFFFFF;stroke-width:5;stroke-miterlimit:10;}
</style>
<g id="Sketch">
</g>
<g id="Sword">
	<g>
		<path class="st0" d="M128,136.8l-93.6,98.5c0,0,0,0,0,0c0.5-0.1,16.1-3.8,25.6-9.2c8-4.6,62-66.4,79.8-86.9c0-0.1,0.1-0.1,0.1-0.1
			c0.9-1,1.7-2,2.4-2.8c0.1-0.1,0.2-0.2,0.3-0.4c0.2-0.2,0.3-0.3,0.4-0.5c1.6-1.8,2.4-2.8,2.4-2.8l-8,1.9L128,136.8z"/>
		<path class="st1" d="M138.6,136.2l-72.9,78.6l-5.8,6.3l0.3,5.1c1.8-1,5.9-4.9,11.3-10.5c20.3-20.9,59.7-66.2,71.1-79.4
			L138.6,136.2z"/>
		<path class="st2" d="M139.1,135.4L137,138l4,0c0-0.1,0.8-0.9,1.5-1.7c0.1-0.1,0.2-0.2,0.3-0.4c0.2-0.2,0.3-0.3,0.4-0.5
			L139.1,135.4z"/>
		<path class="st3" d="M131.7,132.9l-4.3,4.5c0,0,3.4,1.5,9.5,0.6c0.9-1,2.7-2.9,3.5-3.7c0.1-0.1-2.8,0.2-2.8,0.2L131.7,132.9z"/>
		<path class="st4" d="M43.4,226l-8.9,9.3c0,0,0,0,0,0c0.3-0.1,5.5-1.3,11.7-3.3c4.7-1.5,9.9-3.5,13.9-5.9l-0.3-5.1
			c0,0-2.7,1.2-6.1,2.5C50.2,224.8,45.9,226.2,43.4,226z"/>
		<path class="st5" d="M53.8,223.5c-1.5,1.8-4.4,5.1-7.6,8.5c4.7-1.5,9.9-3.5,13.9-5.9l-0.3-5.1C59.9,221.1,57.1,222.3,53.8,223.5z"
			/>
		<path class="st6" d="M65.7,214.8l-5.8,6.3l0.3,5.1c1.8-1,5.9-4.9,11.3-10.5L65.7,214.8z"/>
		<path class="st0" d="M128,136.8l-93.6,98.5c0,0,0,0,0,0c0.1-0.5,2.9-16.3,7.9-26.1c4.2-8.3,63.1-65.3,82.7-84.2
			c0,0,0.1-0.1,0.1-0.1c1-1,1.9-1.8,2.7-2.6c0.1-0.1,0.2-0.2,0.3-0.3c0.2-0.2,0.3-0.3,0.5-0.5c1.7-1.6,2.6-2.6,2.6-2.6l-1.5,8.1
			L128,136.8z"/>
		<path class="st1" d="M128.1,126.2l-74.7,76.9l-6,6.1l-5.1,0c0.9-1.8,4.6-6.1,9.9-11.8c19.9-21.3,63-63,75.6-75.1L128.1,126.2z"/>
		<path class="st2" d="M128.8,125.7l-2.5,2.2l-0.2-4c0,0,0.9-0.8,1.6-1.6c0.1-0.1,0.2-0.2,0.3-0.3c0.2-0.2,0.3-0.3,0.5-0.5
			L128.8,125.7z"/>
		<path class="st3" d="M131.7,132.9l-4.3,4.5c0,0-1.6-3.3-1.1-9.5c1-1,2.7-2.9,3.5-3.6c0.1-0.1,0,2.8,0,2.8L131.7,132.9z"/>
		<path class="st4" d="M43.4,226l-8.9,9.3c0,0,0,0,0,0c0.1-0.3,1-5.6,2.7-11.8c1.3-4.7,3-10,5.2-14.2l5.1,0c0,0-1.1,2.8-2.2,6.2
			C44.2,219.1,43.1,223.5,43.4,226z"/>
		<path class="st5" d="M45.3,215.5c-1.7,1.6-4.9,4.7-8.1,8c1.3-4.7,3-10,5.2-14.2l5.1,0C47.4,209.2,46.3,212,45.3,215.5z"/>
		<path class="st6" d="M53.4,203.1l-6,6.1l-5.1,0c0.9-1.8,4.6-6.1,9.9-11.8L53.4,203.1z"/>
	</g>
	<g>
		<polygon class="st0" points="168.9,104.3 167.7,114.2 181,126.8 181.6,133.8 201.5,152.6 210.2,143.5 		"/>
		<polygon class="st0" points="168.9,104.3 210.2,143.5 218.9,134.3 199,115.5 192.1,115.2 178.8,102.5 		"/>
		<path class="st3" d="M202.3,118.6c1,3.1,1.4,5.9,1.4,8.4c0,1.2-0.1,2.3-0.3,3.3c-0.3,1.9-0.9,3.6-1.6,5.2c-2.9,6.4-8,9.8-8,9.8
			l7.6,7.2l17.4-18.3L202.3,118.6z"/>
		<path class="st7" d="M206.6,124.1l11,10.5l-12.3,13c0,0,7.3-8,9.1-11.6c0.4-0.7,0.3-1.6-0.1-2.3
			C212.4,130.4,206.6,124.1,206.6,124.1z"/>
		
			<rect x="180" y="108.1" transform="matrix(-0.7252 -0.6885 0.6885 -0.7252 232.9797 325.2491)" class="st8" width="2.8" height="16.1"/>
		<path class="st9" d="M193.4,139.5L193.4,139.5c0.4,0.4,1.1,0.4,1.5,0l10.5-11.1c0.4-0.4,0.4-1.1,0-1.5v0c-0.4-0.4-1.1-0.4-1.5,0
			L193.3,138C192.9,138.4,193,139.1,193.4,139.5z"/>
		<path class="st9" d="M187.5,133.9L187.5,133.9c0.4,0.4,1.1,0.4,1.5,0l10.5-11.1c0.4-0.4,0.4-1.1,0-1.5l0,0c-0.4-0.4-1.1-0.4-1.5,0
			l-10.5,11.1C187.1,132.8,187.1,133.5,187.5,133.9z"/>
		<path class="st9" d="M199.3,145.1L199.3,145.1c0.4,0.4,1.1,0.4,1.5,0l10.5-11.1c0.4-0.4,0.4-1.1,0-1.5l0,0c-0.4-0.4-1.1-0.4-1.5,0
			l-10.5,11.1C198.8,144,198.8,144.7,199.3,145.1z"/>
		<path class="st10" d="M211.3,133.5c0,0,0.2-0.3-0.3-0.8c-0.5-0.5-1,0-1,0l-10.6,11.2c0,0,2.2-2.2,4.7-4.7
			C207,136.2,210.3,132.9,211.3,133.5z"/>
		<path class="st10" d="M205.4,127.9c0,0,0.2-0.3-0.3-0.8s-1,0-1,0l-10.6,11.2c0,0,2.2-2.2,4.7-4.7
			C201.1,130.6,204.4,127.2,205.4,127.9z"/>
		<path class="st10" d="M199.5,122.3c0,0,0.2-0.3-0.3-0.8s-1,0-1,0l-10.6,11.2c0,0,2.2-2.2,4.7-4.7
			C195.2,125,198.5,121.6,199.5,122.3z"/>
		<path class="st7" d="M211.1,133.2c0,0,0-0.3-0.2-0.5s-0.6-0.1-1.1,0.4C209.8,133.1,210.7,132.5,211.1,133.2z"/>
		<path class="st7" d="M205.3,127.7c0,0,0-0.3-0.2-0.5c-0.2-0.2-0.6-0.1-1.1,0.4C204,127.5,204.9,127,205.3,127.7z"/>
		<path class="st7" d="M199.4,122.1c0,0,0-0.3-0.2-0.5c-0.2-0.2-0.6-0.1-1.1,0.4C198.1,122,199,121.4,199.4,122.1z"/>
		<circle class="st10" cx="200.3" cy="144.7" r="0.2"/>
		<circle class="st7" cx="200.3" cy="144.8" r="0.1"/>
		<circle class="st7" cx="192.7" cy="137.5" r="0.1"/>
		<circle class="st7" cx="194.5" cy="139.1" r="0.1"/>
		<circle class="st10" cx="194.5" cy="139" r="0.2"/>
		<circle class="st10" cx="188.6" cy="133.4" r="0.2"/>
	</g>
	<path class="st11" d="M168.9,115.2C168.9,115.3,168.9,115.3,168.9,115.2l5.9,5.8c-0.3-2.1,2-4.9,4.1-7.1c5.4-5.7,7-4.6,7-4.6
		l-4.4-4.2c-1.7,0.9-4.6,2.5-7.1,4.3C171.7,111.3,169.4,113.4,168.9,115.2z"/>
	<path class="st3" d="M168.2,114.6C168.2,114.6,168.2,114.7,168.2,114.6l5.9,5.8c-0.3-2.1,3.8-6.5,4-6.8c5.6-5.5,7.1-4.9,7.1-4.9
		l-4.4-4.2c-1.7,0.9-4.6,2.5-7.1,4.3C171,110.7,168.7,112.8,168.2,114.6z"/>
	<path class="st12" d="M148.3,130.3c0,0,3.4,2.2,1.9,7.3s-6.5,6.1-6.5,6.1s8.3,10.4,5.7,20.8c0,0,4.4-13.7,10.5-18.4
		c0,0-6.3-8.5-0.4-13.1c1.1-0.9,2.7-0.8,3.7,0.2l3,2.9c0,0,1.2,1.2,3.5-1.3l-12.6-12.8L148.3,130.3z"/>
	<path class="st13" d="M151.2,156c0,0-1.8-9.3-4.6-10.7c0,0,4.9-2.5,6.1-7.2c0.6-2.1-0.5-5.2-1.7-7.9l6.2-8.1l5.1,6.6
		c0,0,5.6,3.8,6.8,5.8c0.4,0.6-1.6,1.2-2,1.1c-0.5-0.2-3-3.9-5.4-5.2c-0.5-0.3-1.1-0.2-1.6,0.2c-1.8,1.6-3.7,4.4-4.5,7.5
		c-0.6,2.5-0.4,5.6,2.4,8.2C158,146.3,152.4,148.7,151.2,156z"/>
	<path class="st14" d="M152.3,149.4c0,0-1.2-3.1-2.5-3.8c0,0,2.9-3,3.3-7.2c0.4-4.2,0.1-11.4,0.1-11.4l4-3.1L152.3,149.4z"/>
	<g>
		<path class="st15" d="M160.5,108.3c-0.8,4-1.5,8-2.4,11.9l-2.5,11.9c-0.4,2-0.9,3.9-1.3,5.9l-1,6c-0.7,4-1.4,8-2.2,12
			c0.6-4,1.2-8,1.8-12l1-6c0.3-2,0.8-4,1.2-6l2.6-11.9C158.7,116.2,159.6,112.2,160.5,108.3z"/>
	</g>
	<path class="st12" d="M194.9,95.1c0,0,4.3-6.7,10.8-10.9c0,0-12.2,3.5-18-1l-8.5,7.7l10,5.9L194.9,95.1z"/>
	<path class="st13" d="M188.3,95.8c0,0,6.7-7.4,10-8.5c0,0-10.4,0.9-12.5-2.9l-4.6,4.1l1.5,5.3L188.3,95.8z"/>
	<g>
		<path class="st15" d="M197.2,87.6c-2.7,1.4-5.6,2.1-8.6,2.3c-1.5,0.1-3,0-4.5-0.3c-1.5-0.3-2.9-0.9-4.1-1.7c1.4,0.5,2.8,0.8,4.3,1
			c1.4,0.1,2.9,0.2,4.3,0.1c1.4-0.1,2.9-0.3,4.3-0.5C194.3,88.2,195.7,87.9,197.2,87.6z"/>
	</g>
	<path class="st16" d="M155.4,111.9l1.9,11.9l37.6,35.7l-20.4-27l1.3-4.8l-7-9.5l-2.7-3.7l-8.9-2.6C156,112,155.4,111.9,155.4,111.9
		z"/>
	<path class="st17" d="M155.4,111.9l1.9,11.9l37.6,35.7l-36.2-36.4l0.2-5.7c4,1.7,9.4,1.1,9.9,0.9l-2.7-3.7l-8.9-2.6
		C156,112,155.4,111.9,155.4,111.9z"/>
	<path class="st16" d="M174.3,90.3l4.5,11l3.8,2.7l2.5,1.7c0,0,0,0,0,0l7.1,4.9l4.4-1.2l30.6,16.3l-32.2-30.6l-0.6-0.1l-1.2-0.3
		L181.8,92L174.3,90.3z"/>
	<path class="st17" d="M181.8,92l0.8,11.9l2.5,1.7c0,0,0,0,0,0c0.1-0.3,3-6.3,1.1-10.9l7.4,2.4l33.5,28.5l-32.2-30.6l-0.6-0.1
		l-1.2-0.3L181.8,92z"/>
	<path class="st0" d="M151.7,111.9L128,136.8c0,0,12.6,1.6,16-0.5c1.5-0.9,4.3-3.6,7-6.1c3.2-3.2,6.2-6.3,6.2-6.3l-0.1-9.7l0-2.5
		l-3.6,0.2l-1.5,0.1L151.7,111.9z"/>
	<path class="st8" d="M151.7,111.9l-15.4,16.3c0,0,2.3,1.3,4-0.5c1.7-1.8,15.5-16.4,15.5-16.4L151.7,111.9z"/>
	<path class="st18" d="M154.7,111c0,0-14.4,15.6-15.6,16s-2-0.9-1.2-1.7c0.8-0.8,14.5-15.6,14.5-15.6L154.7,111z"/>
	<path class="st19" d="M194.3,95l-5.4,5.7c-0.2,0.2-0.5,0.2-0.7,0c-0.2-0.2-0.2-0.5,0-0.7l5-5.2L194.3,95z"/>
	<path class="st19" d="M197.5,97.6l-5.6,5.9c-0.2,0.2-0.5,0.2-0.7,0c-0.2-0.2-0.2-0.5,0-0.7l5.6-5.9L197.5,97.6z"/>
	<path class="st19" d="M200,99.9l-5.6,5.9c-0.2,0.2-0.2,0.5,0,0.7c0.2,0.2,0.5,0.2,0.7,0l5.6-5.9L200,99.9z"/>
	<path class="st19" d="M161.6,127.9l3.6-3.8c0.2-0.2,0.5-0.2,0.8,0c0.2,0.2,0.2,0.5,0,0.7l-3.6,3.8L161.6,127.9z"/>
	<path class="st19" d="M164.6,130.8l3.6-3.8c0.2-0.2,0.5-0.2,0.7,0c0.2,0.2,0.2,0.5,0,0.7l-3.6,3.8L164.6,130.8z"/>
	<path class="st19" d="M171.4,130l-3.6,3.8l0.8,0.7l3.6-3.8c0.2-0.2,0.2-0.6,0-0.8C171.9,129.8,171.6,129.8,171.4,130z"/>
	<path class="st20" d="M145.6,133.3c-0.2,0.4-0.6,0.8-1,1.1c-0.5,0.4-1.1,0.8-1.9,1.1c-1.4,0.6-5,0.5-5,0.5s5.3-0.4,9-5L145.6,133.3
		z"/>
	<polygon class="st21" points="224.4,123.8 196.7,108.8 192.2,110 185.5,105.4 192.7,109.1 196.7,108 	"/>
	<polygon class="st21" points="190.7,154.6 173.9,132.6 175.1,127.6 168.7,118.9 173.9,127.9 173.1,132.9 	"/>
	<path class="st21" d="M168.9,135.5c0,0-1.2,0.9-2,0.7c-0.8-0.2-2-1.7-2.5-2.2c0,0,1.8,1.5,2.3,1.8
		C167.3,136.1,168.9,135.5,168.9,135.5z"/>
	<path class="st22" d="M202.9,85.5c0,0-6.5,5.5-8.2,9.1l-0.6-0.3C194,94.3,196.6,89.9,202.9,85.5z"/>
	<g>
		<polygon class="st0" points="158.4,94.3 148.5,96.1 135.2,83.4 128.3,83.1 108.4,64.3 117.1,55.1 		"/>
		<polygon class="st0" points="158.4,94.3 117.1,55.1 125.8,45.9 145.7,64.8 146.3,71.7 159.6,84.4 		"/>
		<path class="st3" d="M142.3,61.6c-3.1-0.9-5.9-1.1-8.5-1c-1.2,0.1-2.3,0.2-3.3,0.5c-1.9,0.4-3.6,1.1-5.1,1.8
			c-6.3,3.2-9.4,8.5-9.4,8.5l-7.6-7.2l17.4-18.3L142.3,61.6z"/>
		<path class="st7" d="M136.7,57.7l-11-10.5l-12.3,13c0,0,7.6-7.7,11.1-9.7c0.7-0.4,1.6-0.4,2.3,0C130.1,52.2,136.7,57.7,136.7,57.7
			z"/>
		
			<rect x="144.5" y="74.4" transform="matrix(0.7252 0.6885 -0.6885 0.7252 96.8597 -77.8085)" class="st8" width="2.8" height="16.1"/>
		<path class="st9" d="M122,71.7L122,71.7c-0.4-0.4-0.4-1.1,0-1.5l10.5-11.1c0.4-0.4,1.1-0.4,1.5,0v0c0.4,0.4,0.4,1.1,0,1.5
			l-10.5,11.1C123.1,72.1,122.4,72.1,122,71.7z"/>
		<path class="st9" d="M127.9,77.3L127.9,77.3c-0.4-0.4-0.4-1.1,0-1.5l10.5-11.1c0.4-0.4,1.1-0.4,1.5,0l0,0c0.4,0.4,0.4,1.1,0,1.5
			l-10.5,11.1C129,77.7,128.3,77.7,127.9,77.3z"/>
		<path class="st9" d="M116.1,66.1L116.1,66.1c-0.4-0.4-0.4-1.1,0-1.5l10.5-11.1c0.4-0.4,1.1-0.4,1.5,0l0,0c0.4,0.4,0.4,1.1,0,1.5
			l-10.5,11.1C117.2,66.5,116.5,66.5,116.1,66.1z"/>
		<path class="st10" d="M127,53.5c0,0,0.3-0.2,0.8,0.3s0.1,1,0.1,1l-10.6,11.2c0,0,2.1-2.4,4.5-4.9C124.6,57.9,127.7,54.4,127,53.5z
			"/>
		<path class="st10" d="M132.9,59.1c0,0,0.3-0.2,0.8,0.3s0.1,1,0.1,1l-10.6,11.2c0,0,2.1-2.4,4.5-4.9
			C130.5,63.5,133.6,60.1,132.9,59.1z"/>
		<path class="st10" d="M138.8,64.7c0,0,0.3-0.2,0.8,0.3s0.1,1,0.1,1l-10.6,11.2c0,0,2.1-2.4,4.5-4.9
			C136.4,69.1,139.5,65.7,138.8,64.7z"/>
		<path class="st7" d="M127.3,53.7c0,0,0.3,0,0.5,0.2c0.2,0.2,0.1,0.6-0.3,1.1C127.5,55,128,54,127.3,53.7z"/>
		<path class="st7" d="M133.1,59.2c0,0,0.3,0,0.5,0.2c0.2,0.2,0.1,0.6-0.3,1.1C133.3,60.5,133.8,59.5,133.1,59.2z"/>
		<path class="st7" d="M139,64.8c0,0,0.3,0,0.5,0.2c0.2,0.2,0.1,0.6-0.3,1.1C139.2,66.1,139.7,65.1,139,64.8z"/>
		<circle class="st10" cx="116.4" cy="65" r="0.2"/>
		<circle class="st7" cx="116.3" cy="65" r="0.1"/>
		<circle class="st7" cx="124" cy="72.2" r="0.1"/>
		<circle class="st7" cx="122.3" cy="70.5" r="0.1"/>
		<circle class="st10" cx="122.4" cy="70.5" r="0.2"/>
		<circle class="st10" cx="128.3" cy="76.1" r="0.2"/>
	</g>
	<path class="st11" d="M147.5,94.9C147.4,94.9,147.4,94.9,147.5,94.9l-6.1-5.6c2.1,0.2,4.8-2.3,6.9-4.5c5.4-5.7,4.2-7.2,4.2-7.2
		l4.4,4.2c-0.8,1.7-2.3,4.7-4,7.4C151.2,91.9,149.3,94.3,147.5,94.9z"/>
	<path class="st3" d="M148.1,95.5C148.1,95.6,148.1,95.6,148.1,95.5l-6.1-5.6c2.1,0.2,6.3-4.1,6.5-4.4c5.2-5.8,4.5-7.3,4.5-7.3
		l4.4,4.2c-0.8,1.7-2.3,4.7-4,7.4C151.9,92.5,149.9,94.9,148.1,95.5z"/>
	<path class="st12" d="M133.5,116.2c0,0-2.4-3.3-7.4-1.5c-5,1.8-5.8,6.8-5.8,6.8s-10.8-7.7-21-4.6c0,0,13.4-5.1,17.8-11.5
		c0,0,8.9,5.8,13.1-0.3c0.8-1.2,0.6-2.8-0.4-3.7l-3-2.9c0,0-1.3-1.1,1.1-3.6l13.5,11.9L133.5,116.2z"/>
	<path class="st13" d="M107.7,114.6c0,0,9.4,1.3,11,4.1c0,0,2.2-5,6.9-6.5c2.1-0.7,5.2,0.2,8,1.2l7.7-6.6l-6.8-4.7
		c0,0-4.1-5.4-6.1-6.5c-0.7-0.4-1.1,1.6-1,2.1c0.2,0.5,4.1,2.8,5.4,5.2c0.3,0.5,0.2,1.1-0.1,1.6c-1.5,1.9-4.2,3.9-7.3,4.9
		c-2.5,0.8-5.6,0.7-8.4-2C117,107.4,114.9,113,107.7,114.6z"/>
	<path class="st14" d="M114.1,113.2c0,0,3.2,1.1,4,2.3c0,0,2.9-3,7.1-3.7c4.2-0.6,11.4-0.7,11.4-0.7l2.9-4.2L114.1,113.2z"/>
	<g>
		<path class="st15" d="M154.8,102.9c-3.9,1.1-7.8,2.3-11.7,3.3l-11.7,3.2c-2,0.5-3.9,1.1-5.9,1.5l-5.9,1.3c-4,0.8-7.9,1.6-11.9,2.4
			c3.9-1,7.9-1.9,11.8-2.8l5.9-1.3c2-0.4,3.9-1,5.9-1.6l11.7-3.1C147,104.8,150.9,103.8,154.8,102.9z"/>
	</g>
	<path class="st12" d="M166.2,67.9c0,0,6.5-4.7,10.3-11.4c0,0-2.9,12.3,1.9,17.9l-7.3,8.9l-6.4-9.7L166.2,67.9z"/>
	<path class="st13" d="M165.8,74.4c0,0,7.1-7,7.9-10.4c0,0-0.4,10.5,3.6,12.4l-3.9,4.8l-5.3-1.2L165.8,74.4z"/>
	<g>
		<path class="st15" d="M173.6,65.2c-0.3,1.5-0.4,2.9-0.6,4.4c-0.1,1.5-0.3,2.9-0.3,4.3c0,1.4,0.1,2.9,0.3,4.3
			c0.3,1.4,0.6,2.8,1.2,4.2c-0.9-1.2-1.5-2.6-1.9-4c-0.4-1.5-0.5-3-0.5-4.5C171.8,70.9,172.4,67.9,173.6,65.2z"/>
	</g>
	<rect x="172" y="54.4" transform="matrix(0.6885 -0.7252 0.7252 0.6885 19.717 164.6497)" class="st0" width="59" height="9.9"/>
	<polygon class="st23" points="183.8,83.2 224.4,40.4 223,39 182.4,81.9 	"/>
	<path class="st24" d="M209.1,46.1c0,0-23.8,24.5-24.9,27.2c-1.1,2.7,4.8,6.5,4.8,6.5l-3.7,3.9l-7.4-6.5l40.4-42.6l7.2,6.8l-5.6,5.9
		C213.8,41.5,209.1,46.1,209.1,46.1z"/>
	<path class="st0" d="M187.5,83.4l-4,4.2l-0.7,0.7c-0.4,0.4-1,0.4-1.4,0l-7.8-7.4c-0.4-0.4-0.4-1,0-1.5l4.6-4.9c0.4-0.4,1-0.4,1.5,0
		l2,1.9l5.7,5.4C187.9,82.3,187.9,83,187.5,83.4z"/>
	<path class="st16" d="M151.4,108.2l-12-1.3l-37.6-35.7l28,19l4.7-1.5l9.8,6.5l3.8,2.5l3.1,8.8C151.4,107.5,151.4,108.2,151.4,108.2
		z"/>
	<path class="st17" d="M151.4,108.2l-12-1.3l-37.6-35.7l38.2,34.3l5.7-0.5c-2-3.9-1.5-9.3-1.4-9.8l3.8,2.5l3.1,8.8
		C151.4,107.5,151.4,108.2,151.4,108.2z"/>
	<path class="st16" d="M172.1,88.2l-11.2-3.9l-2.9-3.7l-1.8-2.4c0,0,0,0,0,0l-5.3-6.8l0.9-4.5L134,37.3l32.2,30.6l0.2,0.6l0.3,1.2
		l3.3,11.3L172.1,88.2z"/>
	<path class="st17" d="M169.9,80.8l-12-0.2l-1.8-2.4c0,0,0,0,0,0c0.3-0.2,6.1-3.3,10.8-1.7l-2.8-7.3l-30.2-32l32.2,30.6l0.2,0.6
		l0.3,1.2L169.9,80.8z"/>
	<path class="st0" d="M151.7,111.9L128,136.8c0,0-2.3-12.5-0.3-16c0.9-1.6,3.3-4.5,5.8-7.3c3-3.4,6-6.5,6-6.5l9.7-0.4l2.5-0.1l0,3.6
		l0,1.5L151.7,111.9z"/>
	<path class="st3" d="M152.3,111l-2.6,2.8c-2-2-11-3.9-16.2-0.2c0,0,0,0,0,0c3-3.4,6-6.5,6-6.5l9.7-0.4l0,0l2.5,3.5L152.3,111z"/>
	<path class="st8" d="M151.7,111.9l-15.4,16.3c0,0-1.4-2.2,0.3-4c1.7-1.8,15.5-16.4,15.5-16.4L151.7,111.9z"/>
	<path class="st18" d="M152.4,108.8c0,0-14.8,15.2-15.2,16.4c-0.4,1.2,1,1.9,1.8,1.1c0.7-0.8,14.8-15.3,14.8-15.3L152.4,108.8z"/>
	<path class="st19" d="M166.7,69.6l-5,5.2c-0.2,0.2-0.5,0.2-0.7,0c-0.2-0.2-0.2-0.5,0-0.7l5.4-5.7L166.7,69.6z"/>
	<path class="st19" d="M164.3,66.1l-5.6,5.9c-0.2,0.2-0.5,0.2-0.7,0c-0.2-0.2-0.2-0.5,0-0.7l5.6-5.9L164.3,66.1z"/>
	<path class="st19" d="M161.1,63.1l-5.6,5.9c-0.2,0.2-0.5,0.2-0.7,0c-0.2-0.2-0.2-0.5,0-0.7l5.6-5.9L161.1,63.1z"/>
	<path class="st19" d="M134.4,102.1l3.6-3.8c0.2-0.2,0.5-0.2,0.7,0c0.2,0.2,0.2,0.5,0,0.8l-3.6,3.8L134.4,102.1z"/>
	<path class="st19" d="M131.4,99.3l3.6-3.8c0.2-0.2,0.5-0.2,0.7,0c0.2,0.2,0.2,0.5,0,0.7l-3.6,3.8L131.4,99.3z"/>
	<path class="st19" d="M132.5,93.2L129,97l-0.8-0.7l3.6-3.8c0.2-0.2,0.5-0.2,0.8,0C132.7,92.6,132.7,93,132.5,93.2z"/>
	
		<ellipse transform="matrix(3.770679e-02 -0.9993 0.9993 3.770679e-02 6.5242 258.9632)" class="st25" cx="137.7" cy="126.1" rx="1" ry="1.2"/>
	
		<ellipse transform="matrix(0.6885 -0.7252 0.7252 0.6885 -46.9795 138.7563)" class="st25" cx="138" cy="124.1" rx="0.3" ry="0.3"/>
	<path class="st25" d="M152.9,113.2c0,0-0.7-0.6-1.4-1.2c-0.5-0.5-1-1-1.3-1.3c0,0-4.6,4.3-5.3,5.3c0,0,3.2-3.3,4.8-4.4
		c0.2-0.1,0.4-0.1,0.6,0C151.9,112.3,152.9,113.2,152.9,113.2z"/>
	<path class="st20" d="M130.6,119.1c-0.4,0.3-0.8,0.6-1.1,1c-0.3,0.5-0.8,1.2-1,1.9c-0.5,1.4-0.2,5-0.2,5s0.1-5.3,4.5-9.2
		L130.6,119.1z"/>
	<polygon class="st21" points="136,39.9 152.4,66.7 151.4,71.3 156.4,77.8 152.4,70.8 153.2,66.7 	"/>
	<polygon class="st21" points="107,75.1 129.9,90.8 134.8,89.3 143.8,95.3 134.6,90.5 129.6,91.6 	"/>
	<path class="st21" d="M127.3,96c0,0-0.9,1.3-0.6,2c0.3,0.8,1.8,2,2.3,2.3c0,0-1.6-1.7-1.9-2.2C126.7,97.6,127.3,96,127.3,96z"/>
	<path class="st22" d="M175.4,59.4c0,0-5.1,6.8-8.6,8.7l0.3,0.6C167.1,68.7,171.4,65.9,175.4,59.4z"/>
	<path class="st8" d="M197,72l-4.3,4.6c-0.3,0.3-0.8,0.3-1,0l-6.8-6.4c-0.3-0.3-0.3-0.7,0-1l4.3-4.6c0.3-0.3,0.7-0.3,1,0l6.8,6.4
		C197.3,71.2,197.3,71.7,197,72z"/>
	<path class="st26" d="M191.1,76l-6.2-5.9c-0.3-0.3-0.3-0.7,0-1l4.3-4.6c0.3-0.3,0.7-0.3,1,0l0.9,0.9
		C191.1,65.4,188.2,70.9,191.1,76z"/>
	<path class="st25" d="M195.7,70.5l0.8,0.7c0,0,0.4,0.4-0.1,0.9c-0.5,0.5-3.8,4-3.8,4S195.7,72.1,195.7,70.5z"/>
	<path class="st8" d="M202.7,66l-4.3,4.6c-0.3,0.3-0.8,0.3-1,0l-6.8-6.4c-0.3-0.3-0.3-0.7,0-1l4.3-4.6c0.3-0.3,0.7-0.3,1,0l6.8,6.4
		C202.9,65.3,202.9,65.7,202.7,66z"/>
	<path class="st26" d="M196.7,70.1l-6.2-5.9c-0.3-0.3-0.3-0.7,0-1l4.3-4.6c0.3-0.3,0.7-0.3,1,0l0.9,0.9
		C196.8,59.5,193.9,65,196.7,70.1z"/>
	<path class="st25" d="M201.4,64.5l0.8,0.7c0,0,0.4,0.4-0.1,0.9c-0.5,0.5-3.8,4-3.8,4S201.4,66.2,201.4,64.5z"/>
	<path class="st8" d="M208.3,60.1l-4.3,4.6c-0.3,0.3-0.8,0.3-1,0l-6.8-6.4c-0.3-0.3-0.3-0.7,0-1l4.3-4.6c0.3-0.3,0.7-0.3,1,0
		l6.8,6.4C208.6,59.3,208.6,59.8,208.3,60.1z"/>
	<path class="st26" d="M202.4,64.1l-6.2-5.9c-0.3-0.3-0.3-0.7,0-1l4.3-4.6c0.3-0.3,0.7-0.3,1,0l0.9,0.9
		C202.4,53.5,199.5,59,202.4,64.1z"/>
	<path class="st25" d="M207,58.6l0.8,0.7c0,0,0.4,0.4-0.1,0.9c-0.5,0.5-3.8,4-3.8,4S207,60.2,207,58.6z"/>
	<path class="st8" d="M214,54.1l-4.3,4.6c-0.3,0.3-0.8,0.3-1,0l-6.8-6.4c-0.3-0.3-0.3-0.7,0-1l4.3-4.6c0.3-0.3,0.7-0.3,1,0l6.8,6.4
		C214.2,53.4,214.2,53.8,214,54.1z"/>
	<path class="st16" d="M225.6,41.8l-3.4,3.5l-1,1c-0.3,0.3-0.8,0.3-1,0l-6.8-6.4c-0.3-0.3-0.3-0.7,0-1l4.3-4.5c0.3-0.3,0.7-0.3,1,0
		l1.3,1.2c0,0,0,0,0,0l5.5,5.2C225.9,41.1,225.9,41.5,225.6,41.8z"/>
	<path class="st26" d="M208,58.2l-6.2-5.9c-0.3-0.3-0.3-0.7,0-1l4.3-4.6c0.3-0.3,0.7-0.3,1,0l0.9,0.9C208.1,47.6,205.2,53,208,58.2z
		"/>
	<path class="st25" d="M212.7,52.6l0.8,0.7c0,0,0.4,0.4-0.1,0.9c-0.5,0.5-3.8,4-3.8,4S212.7,54.2,212.7,52.6z"/>
	<path class="st24" d="M183.5,87.6l-0.7,0.7c-0.4,0.4-1,0.4-1.4,0l-7.8-7.4c-0.4-0.4-0.4-1,0-1.5l4.6-4.9c0.4-0.4,1-0.4,1.5,0l2,1.9
		c0,0,0,0,0,0C181.8,76.5,179.2,83.2,183.5,87.6z"/>
	<path class="st0" d="M179.6,111.1c-0.6,0.6-1.2,1.2-1.8,1.7c-4.7,3.9-10.8,5.2-16.5,4c-3.5-0.7-6.8-2.4-9.6-5
		c-7.3-6.9-8.1-18.1-2.3-26c0.5-0.7,1-1.3,1.6-1.9c0.6-0.6,1.2-1.2,1.8-1.7c4.6-3.7,10.4-5.1,15.9-4.1c3.7,0.7,7.2,2.4,10.1,5.1
		c7.3,6.9,8.1,18.1,2.3,26C180.8,109.9,180.2,110.5,179.6,111.1z"/>
	<path class="st24" d="M161.3,116.9c-3.5-0.7-6.8-2.4-9.6-5c-7.3-6.9-8.1-18.1-2.3-26c0.5-0.7,1-1.3,1.6-1.9
		c0.6-0.6,1.2-1.2,1.8-1.7c4.6-3.7,10.4-5.1,15.9-4.1C162.7,87.5,157,101.3,161.3,116.9z"/>
	<path class="st16" d="M179.5,111.2c-0.6,0.6-1.2,1.2-1.8,1.7l-28.4-27c0.5-0.7,1-1.3,1.6-1.9c0.6-0.6,1.2-1.2,1.8-1.7l28.4,27
		C180.7,110,180.1,110.6,179.5,111.2z"/>
	<path class="st17" d="M163.6,99.5l-14.3-13.6c0.5-0.7,1-1.3,1.6-1.9c0.6-0.6,1.2-1.2,1.8-1.7L166,94.9L163.6,99.5z"/>
	<circle class="st8" cx="165.2" cy="97.6" r="13.9"/>
	
		<ellipse transform="matrix(0.6885 -0.7252 0.7252 0.6885 -20.3794 148.8481)" class="st27" cx="163.1" cy="98.1" rx="8.5" ry="8.7"/>
	
		<ellipse transform="matrix(0.2944 -0.9557 0.9557 0.2944 26.4597 228.0887)" class="st26" cx="167.7" cy="96.1" rx="6.3" ry="8.6"/>
	<ellipse transform="matrix(0.2337 -0.9723 0.9723 0.2337 34.199 233.9116)" class="st25" cx="165.5" cy="95.3" rx="1" ry="1.6"/>
	
		<ellipse transform="matrix(0.9431 -0.3325 0.3325 0.9431 -21.3844 63.1875)" class="st25" cx="173.9" cy="94.1" rx="3.6" ry="4.5"/>
	<circle class="st25" cx="166.3" cy="98.7" r="0.7"/>
	<circle class="st25" cx="164.2" cy="97.6" r="0.5"/>
	<path class="st25" d="M153.2,92.9c0,0-3.5,8.2,3.7,14.8c0,0-2.9-3.8-3.7-7.3C152.4,97,153.2,92.9,153.2,92.9z"/>
	<path class="st17" d="M222.3,45.4l-1,1c-0.3,0.3-0.8,0.3-1,0l-6.8-6.4c-0.3-0.3-0.3-0.7,0-1l4.3-4.5c0.3-0.3,0.7-0.3,1,0l1.3,1.2
		c0,0,0,0,0,0S214.4,40.1,222.3,45.4z"/>
	<path class="st21" d="M222,38l3.3,3c0,0,0.4,0.4,0,0.8s-4.2,4.4-4.2,4.4s3.3-3.6,3.2-4.8C224.1,40.3,222,38,222,38z"/>
</g>
<g id="Layer_3">
</g>
</svg>
