<?xml version="1.0" encoding="utf-8"?>
<!-- Generator: Adobe Illustrator 22.1.0, SVG Export Plug-In . SVG Version: 6.00 Build 0)  -->
<svg version="1.1" id="Layer_1" xmlns="http://www.w3.org/2000/svg" xmlns:xlink="http://www.w3.org/1999/xlink" x="0px" y="0px"
	 viewBox="0 0 50 50" style="enable-background:new 0 0 50 50;" xml:space="preserve">
<style type="text/css">
	.st0{fill:#D9D9DB;}
	.st1{fill:#6C6E7A;}
</style>
<rect class="st0" width="50" height="50"/>
<path class="st1" d="M37.8,15.1H12.2c-2.2,0-4-1.8-4-4v0c0-2.2,1.8-4,4-4h25.7c2.2,0,4,1.8,4,4v0C41.8,13.3,40,15.1,37.8,15.1z"/>
<path class="st1" d="M37.8,42.8H12.2c-2.2,0-4-1.8-4-4v0c0-2.2,1.8-4,4-4h25.7c2.2,0,4,1.8,4,4v0C41.8,41,40,42.8,37.8,42.8z"/>
<path class="st1" d="M37.8,29H12.2c-2.2,0-4-1.8-4-4v0c0-2.2,1.8-4,4-4h25.7c2.2,0,4,1.8,4,4v0C41.8,27.2,40,29,37.8,29z"/>
</svg>
