<?xml version="1.0" encoding="utf-8"?>
<!-- Generator: Adobe Illustrator 22.1.0, SVG Export Plug-In . SVG Version: 6.00 Build 0)  -->
<svg version="1.1" id="Layer_1" xmlns="http://www.w3.org/2000/svg" xmlns:xlink="http://www.w3.org/1999/xlink" x="0px" y="0px"
	 viewBox="0 0 106.5 70.1" style="enable-background:new 0 0 106.5 70.1;" xml:space="preserve">
<style type="text/css">
	.st0{display:none;}
	.st1{fill:none;stroke:#C2E1D4;stroke-width:2;stroke-miterlimit:10;}
	.st2{fill:#C2DFD3;}
	.st3{fill:#C2E1D4;}
	.st4{fill:none;stroke:#C2E1D4;stroke-width:0.5;stroke-miterlimit:10;}
	.st5{fill:none;}
	.st6{font-family: 'Overpass', sans-serif;}
	.st7{font-size:18px;}
	.st8{font-family: 'Overpass', sans-serif;}
	.st9{fill:#141414;}
	.st10{fill:#4F4F4F;}
	.st11{fill:#BFBFBF;}
	.st12{opacity:0.58;fill:#757575;enable-background:new    ;}
	.st13{fill:#757575;}
	.st14{opacity:0.24;fill:#494949;enable-background:new    ;}
	.st15{fill:#B21818;}
	.st16{opacity:0.72;fill:#E5E5E5;enable-background:new    ;}
	.st17{fill:#7C1212;}
	.st18{fill:#565656;}
	.st19{fill:#3F3F3F;}
</style>
<g id="sketch_xA0_Image_1_" class="st0">
</g>
<g id="Layer_3">
	<circle class="st1" cx="28.1" cy="33.5" r="23.2"/>
	<circle class="st1" cx="28.1" cy="33.5" r="15.5"/>
	<circle class="st2" cx="17.1" cy="17.2" r="0.4"/>
	<g>
		<path class="st3" d="M12.6,23.4c0,0-0.3,0.6,0.2,0.7c0.4,0.1,0.7-0.2,0.8-0.7c0.2-0.5-0.7-1.2-1.9-0.7c0,0-1.2,1-0.3,1.8
			c0,0,0.5,0.5,1.1,0.1c0,0-0.6,0.7-1.6-0.2c0,0-0.3,1.1-0.9,1.3c0,0,0.6,0,1.2-0.8c0,0-0.6,1.2-1.7,1c0,0,0.3,0.5,1.1,0.3
			s1.3-0.8,1.3-0.8s-0.4,0.9-1.2,1.1S9.2,26,9.1,25.6s0-0.7,0.4-0.9c0,0-0.4,0.3-0.3,0.6s0.4,0.6,0.9,0.1c0.5-0.4,0.5-0.9,0.5-1.5
			s1-3.6,2.2-3c0,0,0.6,0.4,0.3,1c0,0,0.1-0.6-0.5-0.8c-0.6-0.2-1.2,0.9-1.4,1.7c0,0,1.4-1.6,2.4-0.2c0.3,0.4,0.3,0.8,0.2,1
			c-0.2,0.7-1.1,0.8-1.4,0.4C12.1,23.6,12.6,23.4,12.6,23.4z"/>
		<ellipse class="st4" cx="10.9" cy="21.4" rx="0.3" ry="0.3"/>
		<ellipse class="st4" cx="9.8" cy="24.7" rx="0.3" ry="0.3"/>
		<ellipse class="st4" cx="13" cy="23.5" rx="0.3" ry="0.3"/>
		<ellipse class="st4" cx="12.3" cy="21.7" rx="0.2" ry="0.2"/>
		<path class="st2" d="M12.9,21c0,0,0.6-0.4,1.2-0.4c0,0,0.2-0.8,0.8-1.6L12.9,21z"/>
		<path class="st2" d="M12.9,21c0,0,0.4-0.6,0.4-1.2c0,0,0.8-0.2,1.6-0.8L12.9,21z"/>
	</g>
	<g>
		<path class="st3" d="M10.1,30.8c0.5-0.1,1.1,0.6,0.8,1.2c-0.1,0.2-0.3,0.5-0.8,0.6c-1.7,0.4-1.7-1.7-1.7-1.7
			c-0.4,0.7-0.7,2-0.1,2.2c0.6,0.2,0.9-0.3,0.9-0.3c-0.2,0.6-0.9,0.5-0.9,0.5c-1.3-0.3,0-3.3,0.4-3.7s0.7-0.8,0.6-1.5
			c0-0.7-0.5-0.7-0.7-0.5c-0.3,0.2-0.2,0.6-0.2,0.6c-0.2-0.4,0-0.7,0.3-0.9c0.3-0.2,1.3-0.3,1.8,0.4c0.5,0.7,0.2,1.6,0.2,1.6
			s0-0.8-0.4-1.5c-0.5-0.7-1-0.5-1-0.5c1,0.6,0.6,1.9,0.6,1.9c0.1-1-0.4-1.4-0.4-1.4c0.3,0.5-0.2,1.6-0.2,1.6c1.3,0,1.3,0.9,1.3,0.9
			c-0.2-0.7-0.9-0.7-0.9-0.7c-1.2,0-1,1.5-1,1.5c0.6,1.2,1.7,1.2,1.9,0.7c0.3-0.4,0.2-0.9-0.1-1.1c-0.4-0.3-0.6,0.4-0.6,0.4
			S9.7,30.9,10.1,30.8z"/>
		<ellipse class="st4" cx="7.3" cy="31.7" rx="0.3" ry="0.3"/>
		<ellipse class="st4" cx="8.7" cy="28.5" rx="0.3" ry="0.3"/>
		<ellipse class="st4" cx="10.3" cy="31.5" rx="0.3" ry="0.3"/>
		<ellipse class="st4" cx="8.5" cy="32.4" rx="0.2" ry="0.2"/>
		<path class="st2" d="M8.7,36.2c0.1-1,0.5-1.7,0.5-1.7c-0.4-0.4-0.6-1.1-0.6-1.1L8.7,36.2z"/>
		<path class="st2" d="M8.7,36.2c-0.2-1-0.7-1.7-0.7-1.7c0.4-0.4,0.5-1.2,0.5-1.2L8.7,36.2z"/>
	</g>
	<circle class="st2" cx="9.1" cy="38.3" r="0.4"/>
	<circle class="st2" cx="26.8" cy="53.1" r="0.4"/>
	<circle class="st2" cx="46.9" cy="39" r="0.4"/>
	<circle class="st2" cx="39.4" cy="17.6" r="0.4"/>
	<g>
		<path class="st3" d="M19.1,49.9c0,0-0.5-0.3-0.2-0.7c0.3-0.3,0.7-0.2,1.1,0.2s0,1.4-1.4,1.5c0,0-1.5-0.3-1.1-1.4
			c0,0,0.3-0.7,0.9-0.7c0,0-0.9-0.3-1.3,0.9c0,0-0.8-0.8-1.4-0.7c0,0,0.5-0.3,1.5,0.1c0,0-1.1-0.8-2-0.1c0,0,0-0.6,0.8-0.8
			s1.5,0.2,1.5,0.2s-0.9-0.5-1.7-0.4c-0.8,0.2-1.1,1.2-1,1.6c0.2,0.4,0.3,0.7,0.8,0.6c0,0-0.5-0.1-0.6-0.4c-0.1-0.3,0.1-0.7,0.7-0.5
			s0.9,0.6,1.2,1.1c0.3,0.5,2.6,2.7,3.4,1.6c0,0,0.3-0.7-0.3-1c0,0,0.3,0.5-0.1,0.9s-1.5-0.3-2-0.8c0,0,2,0.8,2.2-1
			c0.1-0.5-0.2-0.8-0.3-0.9c-0.2-0.6-1.1-0.3-1.1,0.1C18.6,49.9,19.1,49.9,19.1,49.9z"/>
		<ellipse class="st4" cx="18.7" cy="52.5" rx="0.3" ry="0.3"/>
		<ellipse class="st4" cx="16.2" cy="50.1" rx="0.3" ry="0.3"/>
		<ellipse class="st4" cx="19.5" cy="49.6" rx="0.3" ry="0.3"/>
		<ellipse class="st4" cx="19.7" cy="51.5" rx="0.2" ry="0.2"/>
		<path class="st2" d="M20.6,51.8c0,0,0.7,0.1,1.3-0.2c0,0,0.6,0.6,1.5,1L20.6,51.8z"/>
		<path class="st2" d="M20.6,51.8c0,0,0.7,0.3,0.9,0.9c0,0,0.8-0.2,1.9,0L20.6,51.8z"/>
	</g>
	<g>
		<path class="st3" d="M13.2,44.1c0,0,0.4,0.4,0.7,0c0.2-0.3,0.1-0.7-0.4-1s-1.4,0.3-1.2,1.6c0,0,0.6,1.4,1.6,0.8
			c0,0,0.6-0.4,0.5-1.1c0,0,0.4,0.8-0.7,1.4c0,0,1,0.7,0.9,1.2c0,0,0.2-0.6-0.4-1.4c0,0,1,0.9,0.4,1.9c0,0,0.6-0.1,0.7-1
			c0.1-0.8-0.4-1.5-0.4-1.5s0.7,0.8,0.7,1.6s-1,1.3-1.4,1.2s-0.7-0.2-0.7-0.7c0,0,0.2,0.5,0.5,0.5c0.3,0,0.7-0.2,0.4-0.8
			c-0.3-0.6-0.7-0.8-1.3-1c-0.6-0.2-3.1-2.1-2.2-3c0,0,0.6-0.4,1.1,0.1c0,0-0.6-0.3-0.9,0.2s0.5,1.4,1.2,1.8c0,0-1.1-1.8,0.6-2.4
			c0.5-0.2,0.8,0,1,0.2c0.6,0.4,0.4,1.3,0,1.4C13.2,44.6,13.2,44.1,13.2,44.1z"/>
		<ellipse class="st4" cx="10.7" cy="45" rx="0.3" ry="0.3"/>
		<ellipse class="st4" cx="13.5" cy="47" rx="0.3" ry="0.3"/>
		<ellipse class="st4" cx="13.4" cy="43.6" rx="0.3" ry="0.3"/>
		<ellipse class="st4" cx="11.4" cy="43.7" rx="0.2" ry="0.2"/>
		<path class="st2" d="M11,43c0,0-0.3-0.7,0-1.3c0,0-0.7-0.4-1.3-1.3L11,43z"/>
		<path class="st2" d="M11,43c0,0-0.4-0.6-1-0.8c0,0,0.1-0.8-0.3-1.8L11,43z"/>
	</g>
	<g>
		<path class="st3" d="M42.2,45.6c0,0-0.5,0.4-0.7,0s0-0.7,0.5-1s1.4,0.4,1.1,1.7c0,0-0.7,1.4-1.6,0.7c0,0-0.6-0.4-0.4-1.1
			c0,0-0.5,0.8,0.6,1.5c0,0-1,0.6-1,1.2c0,0-0.1-0.6,0.5-1.4c0,0-1,0.8-0.6,1.9c0,0-0.6-0.2-0.6-1s0.5-1.4,0.5-1.4s-0.8,0.6-0.8,1.4
			c-0.1,0.8,0.8,1.4,1.3,1.4s0.7-0.2,0.7-0.7c0,0-0.3,0.4-0.5,0.4c-0.3,0-0.7-0.3-0.3-0.8c0.3-0.6,0.8-0.7,1.4-0.8
			c0.6-0.1,3.3-1.9,2.4-2.8c0,0-0.5-0.5-1.1,0c0,0,0.6-0.2,0.9,0.3c0.3,0.5-0.6,1.4-1.4,1.7c0,0,1.3-1.7-0.4-2.4
			c-0.4-0.2-0.8-0.1-1,0.1c-0.6,0.4-0.5,1.3-0.1,1.4C42.2,46.1,42.2,45.6,42.2,45.6z"/>
		<ellipse class="st4" cx="44.6" cy="46.8" rx="0.3" ry="0.3"/>
		<ellipse class="st4" cx="41.6" cy="48.5" rx="0.3" ry="0.3"/>
		<ellipse class="st4" cx="42.1" cy="45.2" rx="0.3" ry="0.3"/>
		<ellipse class="st4" cx="44" cy="45.5" rx="0.2" ry="0.2"/>
		<path class="st2" d="M44.5,44.7c0,0,0.3-0.7,0.1-1.3c0,0,0.8-0.4,1.4-1.2L44.5,44.7z"/>
		<path class="st2" d="M44.5,44.7c0,0,0.4-0.6,1.1-0.7c0,0,0-0.8,0.4-1.8L44.5,44.7z"/>
	</g>
	<g>
		<path class="st3" d="M35.5,50.7c0,0,0.6-0.3,0.3-0.6s-0.7-0.3-1.1,0c-0.4,0.3-0.2,1.4,1.1,1.6c0,0,1.6-0.1,1.3-1.3
			c0,0-0.2-0.7-0.8-0.8c0,0,0.9-0.2,1.2,1.1c0,0,0.9-0.7,1.5-0.5c0,0-0.5-0.3-1.5-0.1c0,0,1.2-0.6,1.9,0.2c0,0,0.1-0.6-0.7-0.9
			c-0.8-0.3-1.5-0.1-1.5-0.1s0.9-0.4,1.7-0.1c0.8,0.3,0.9,1.3,0.7,1.7s-0.4,0.6-0.9,0.4c0,0,0.5-0.1,0.6-0.3c0.1-0.3,0-0.7-0.6-0.6
			c-0.7,0.1-0.9,0.4-1.3,0.9s-3,2.3-3.6,1.1c0,0-0.2-0.7,0.4-1c0,0-0.4,0.5-0.1,0.9s1.5-0.1,2.1-0.6c0,0-2,0.5-2-1.3
			c0-0.5,0.3-0.8,0.5-0.9c0.6-0.4,1.4,0,1.4,0.5C36,50.8,35.5,50.7,35.5,50.7z"/>
		<ellipse class="st4" cx="35.6" cy="53.4" rx="0.3" ry="0.3"/>
		<ellipse class="st4" cx="38.4" cy="51.3" rx="0.3" ry="0.3"/>
		<ellipse class="st4" cx="35.2" cy="50.4" rx="0.3" ry="0.3"/>
		<ellipse class="st4" cx="34.6" cy="52.2" rx="0.2" ry="0.2"/>
		<path class="st2" d="M33.8,52.5c0,0-0.7,0-1.2-0.4c0,0-0.7,0.5-1.6,0.8L33.8,52.5z"/>
		<path class="st2" d="M33.8,52.5c0,0-0.7,0.2-1,0.7c0,0-0.8-0.3-1.8-0.3L33.8,52.5z"/>
	</g>
	<g>
		<path class="st3" d="M43.5,23.1c0,0,0.3,0.6-0.2,0.7c-0.4,0.1-0.7-0.1-0.9-0.7c-0.2-0.5,0.6-1.3,1.9-0.7c0,0,1.2,1,0.3,1.7
			c0,0-0.5,0.5-1.1,0.2c0,0,0.7,0.7,1.6-0.2c0,0,0.4,1.1,0.9,1.3c0,0-0.6,0-1.3-0.8c0,0,0.6,1.2,1.7,0.9c0,0-0.3,0.5-1.1,0.3
			S44,25,44,25s0.5,0.9,1.4,1.1c0.8,0.2,1.5-0.6,1.6-1s0-0.7-0.5-0.8c0,0,0.4,0.3,0.3,0.6s-0.4,0.6-0.9,0.1
			c-0.5-0.4-0.5-0.9-0.6-1.5s-1.1-3.6-2.3-2.9c0,0-0.6,0.4-0.2,1c0,0-0.1-0.6,0.5-0.8s1.2,0.9,1.4,1.7c0,0-1.4-1.6-2.4-0.1
			c-0.3,0.4-0.2,0.8-0.1,1c0.3,0.7,1.1,0.8,1.4,0.4C43.9,23.3,43.5,23.1,43.5,23.1z"/>
		<ellipse class="st4" cx="45" cy="21" rx="0.3" ry="0.3"/>
		<ellipse class="st4" cx="46.2" cy="24.3" rx="0.3" ry="0.3"/>
		<ellipse class="st4" cx="43" cy="23.2" rx="0.3" ry="0.3"/>
		<ellipse class="st4" cx="43.6" cy="21.4" rx="0.2" ry="0.2"/>
		<path class="st2" d="M43.1,20.7c0,0-0.6-0.4-1.2-0.4c0,0-0.2-0.8-0.9-1.6L43.1,20.7z"/>
		<path class="st2" d="M43.1,20.7c0,0-0.5-0.6-0.4-1.2c0,0-0.8-0.2-1.7-0.8L43.1,20.7z"/>
	</g>
	<g>
		<path class="st3" d="M32.4,15.3c0,0-0.6-0.1-0.6,0.4c0,0.4,0.4,0.6,0.9,0.6s1-1,0-2c0,0-1.4-0.8-1.8,0.3c0,0-0.3,0.7,0.3,1.1
			c0,0-0.8-0.4-0.3-1.6c0,0-1.2,0-1.5-0.4c0,0,0.2,0.5,1.1,0.9c0,0-1.3-0.2-1.4-1.3c0,0-0.4,0.5,0.1,1.2c0.4,0.7,1.2,0.9,1.2,0.9
			s-1-0.2-1.5-0.9s0-1.6,0.4-1.8s0.7-0.3,1,0.2c0,0-0.5-0.3-0.7-0.1s-0.4,0.6,0.2,0.9c0.6,0.3,1,0.2,1.6,0s3.8-0.1,3.5,1.1
			c0,0-0.2,0.7-0.9,0.6c0,0,0.6-0.1,0.6-0.7c0-0.6-1.3-0.8-2-0.8c0,0,2,0.8,0.9,2.2c-0.3,0.4-0.6,0.5-0.9,0.5
			c-0.7,0-1.1-0.8-0.8-1.2C32.1,14.9,32.4,15.3,32.4,15.3z"/>
		<ellipse class="st4" cx="33.9" cy="13.1" rx="0.3" ry="0.3"/>
		<ellipse class="st4" cx="30.4" cy="13.1" rx="0.3" ry="0.3"/>
		<ellipse class="st4" cx="32.5" cy="15.8" rx="0.3" ry="0.3"/>
		<ellipse class="st4" cx="34" cy="14.5" rx="0.2" ry="0.2"/>
		<path class="st2" d="M34.8,14.8c0,0,0.6,0.4,0.8,1c0,0,0.8-0.1,1.8,0.3L34.8,14.8z"/>
		<path class="st2" d="M34.8,14.8c0,0,0.7,0.3,1.3,0c0,0,0.5,0.7,1.3,1.3L34.8,14.8z"/>
	</g>
	<g>
		<path class="st3" d="M46.4,30.7c0,0-0.2-0.6-0.6-0.4c-0.3,0.2-0.4,0.6-0.2,1.1s1.3,0.5,1.9-0.8c0,0,0.2-1.5-0.9-1.5
			c0,0-0.7,0-0.9,0.7c0,0,0-0.9,1.3-0.9c0,0-0.5-1.1-0.2-1.5c0,0-0.4,0.4-0.4,1.4c0,0-0.4-1.3,0.6-1.9c0,0-0.6-0.2-1.1,0.5
			s-0.4,1.5-0.4,1.5s-0.2-1,0.3-1.7c0.4-0.7,1.5-0.6,1.8-0.3c0.3,0.3,0.5,0.5,0.3,0.9c0,0,0.1-0.5-0.2-0.7c-0.2-0.2-0.7-0.2-0.8,0.5
			s0.2,1,0.6,1.5c0.4,0.4,1.6,3.4,0.3,3.7c0,0-0.7,0.1-0.9-0.6c0,0,0.3,0.5,0.9,0.3c0.6-0.2,0.3-1.5-0.1-2.2c0,0,0,2.1-1.7,1.7
			c-0.5-0.1-0.7-0.4-0.8-0.7c-0.3-0.6,0.3-1.3,0.8-1.2C46.6,30.2,46.4,30.7,46.4,30.7z"/>
		<ellipse class="st4" cx="49" cy="31.2" rx="0.3" ry="0.3"/>
		<ellipse class="st4" cx="47.6" cy="28" rx="0.3" ry="0.3"/>
		<ellipse class="st4" cx="46" cy="30.9" rx="0.3" ry="0.3"/>
		<ellipse class="st4" cx="47.7" cy="31.8" rx="0.2" ry="0.2"/>
		<path class="st2" d="M47.7,32.7c0,0-0.1,0.7-0.6,1.1c0,0,0.4,0.8,0.4,1.8L47.7,32.7z"/>
		<path class="st2" d="M47.7,32.7c0,0,0,0.7,0.5,1.2c0,0-0.5,0.7-0.7,1.7L47.7,32.7z"/>
	</g>
	<g>
		<path class="st3" d="M24.3,15.2c0,0,0.6-0.1,0.5,0.4c-0.1,0.4-0.4,0.6-1,0.5s-0.9-1.1,0.1-2c0,0,1.4-0.7,1.7,0.4
			c0,0,0.2,0.7-0.3,1.1c0,0,0.9-0.3,0.4-1.5c0,0,1.2,0.1,1.5-0.3c0,0-0.3,0.5-1.2,0.8c0,0,1.4-0.1,1.5-1.2c0,0,0.4,0.5-0.1,1.2
			s-1.3,0.8-1.3,0.8s1-0.1,1.5-0.8c0.5-0.6,0.1-1.6-0.3-1.9c-0.4-0.2-0.7-0.3-1,0.1c0,0,0.5-0.2,0.7-0.1c0.2,0.2,0.4,0.6-0.2,0.8
			c-0.6,0.3-1,0.1-1.6-0.1c-0.6-0.2-3.7-0.4-3.6,0.9c0,0,0.2,0.7,0.8,0.6c0,0-0.6-0.2-0.5-0.8c0-0.6,1.3-0.7,2.1-0.6
			c0,0-2,0.7-1.1,2.2c0.3,0.4,0.6,0.5,0.8,0.5c0.7,0,1.2-0.7,0.9-1.1C24.6,14.9,24.3,15.2,24.3,15.2z"/>
		<ellipse class="st4" cx="23" cy="12.9" rx="0.3" ry="0.3"/>
		<ellipse class="st4" cx="26.4" cy="13.2" rx="0.3" ry="0.3"/>
		<ellipse class="st4" cx="24.2" cy="15.7" rx="0.3" ry="0.3"/>
		<ellipse class="st4" cx="22.8" cy="14.4" rx="0.2" ry="0.2"/>
		<path class="st2" d="M21.9,14.6c0,0-0.6,0.3-0.8,0.9c0,0-0.8-0.1-1.8,0.1L21.9,14.6z"/>
		<path class="st2" d="M21.9,14.6c0,0-0.7,0.2-1.3-0.1c0,0-0.5,0.7-1.4,1.2L21.9,14.6z"/>
	</g>
</g>
<rect x="53.6" y="27" class="st5" width="50.6" height="16.1"/>
<text transform="matrix(1 0 0 1 53.6028 40.6286)"><tspan x="0" y="0" class="st6 st7">Dan</tspan><tspan x="32.7" y="0" class="st8 st7">X</tspan></text>
<g id="Logo">
	<path class="st9" d="M23.4,46.5l1.4,0.7c0,0,0.9,6,0.7,6.2c-0.3,0.2-2.2,0.4-2.7-1.3c-0.4-1.7-0.2-3.5-0.4-4
		C22,47.6,23.4,46.5,23.4,46.5z"/>
	<rect x="33" y="33.1" transform="matrix(0.9814 -0.192 0.192 0.9814 -6.6929 8.4335)" class="st9" width="14.4" height="11.3"/>
	<path class="st9" d="M22.7,11.8c0,0-0.4,4.1-0.5,4.1s-0.1,1.3,0.1,1.8c0,0-0.5-0.5-0.5-1.3c0,0-0.1,1.4,0.3,2.1
		c0,0-0.9-1.3-0.8-2.7c0,0-0.4,2.1,0.3,3.6c0,0-4.5-6.3-1.1-11.4c0,0,1.1-2.4,3.4-2c0,0,1.6-2.8,4.6-1.7s4.2,3.1,4.8,6.5
		c0.6,3.3,0.1,4.3,0.4,5.7c0,0-1-1.2-1.1-2.4c0,0,0.1,2.5,0.7,3.5c0,0-0.9-0.3-1.1-0.8c0,0,0,1.5,0.3,1.9l0.9,0.1
		c0,0,0.2,2.1,0.4,2.4c0,0,2,1,2.1,1l-0.2,0.2c0,0,1.3,0.9,2.4,0.7c0,0,1.1,2.5,1.2,3.3c0,0.8,0.8,6.3,0.9,6.5c0,0,0.6,0.5,0.7,1.3
		c0.1,0.8,0.9,3.9,0.9,3.9s1.2-0.1,1.3,0.1c0.1,0.2,0.1,4.3,0.1,4.3s1.4,2.2,0.5,3c0,0-2.1,1.5-3.7,0.7c-1.5-0.8-0.8-2.7-0.8-2.7
		s-0.6,0-0.8-0.2l-1-3.6c0,0,0.3-0.6,0.9-0.8c0,0-1.2-3.4-1-5.3c0,0-1.8-4.8-1.8-5.9c0,0-1,4.5-1.2,7c-0.2,2.5,0.8,5.5,0.8,5.5
		s-2.9,0.9-3.9,2.2c0,0-3.2,6.2-3.8,8.4l-0.8,0.5c0,0-0.1,6.3-1.9,10.7c0,0-0.4,0.3-1.6,0c0,0-1.3,5.3-4.7,3.8s0.9-5.6,0.9-5.6
		s-0.7-0.2-0.9-0.9c0,0,4.1-7.9,5.1-8.9c0,0-0.1-1.1,0-1.6c0,0,2.8-8.2,2.8-9.1c0,0-1.2,0.2-2.2-0.4c0,0-4.1,3.6-5.8,4.4
		c0,0,5.4,2.5,5.9,2.5c0,0-1.7,4.1-2.7,4.5c0,0-5.3-2.7-6.2-2.9s-1.9,0.3-2.2,0.1c-0.4-0.2-1.2-3.4-1.1-4.5c0.1-1.1,8.5-6.9,9.2-7.2
		c0,0,0.6-1.2,0.7-1.3l-0.3-0.6l0.4-0.6c0,0-0.9-0.2-1.3-0.8c0,0,0-0.4,0.1-0.7s-0.9-5.3-0.7-6.5c0,0-0.4,0-0.5-0.1
		c0,0-0.4-3.1-0.2-3.3c0,0,0.7-0.4,0.8-0.4c0,0-0.3-2.2,0.5-2.6s1.8-1.4,2.2-0.7c0.4,0.7,0,2.4,0,2.4l0.7,0.1c0,0,0.2,3.2,0,3.6
		c0,0-0.1,0.3-0.5,0.5c0,0.2,0.3,1.4,0.3,1.5c0,0,1.2-3,1.1-3.6c0,0,2.2-0.9,2.5-1.2c0,0,1.1-1.5,1.2-2.1L22.7,11.8z"/>
	<path class="st10" d="M28.1,19.9c0,0,0.5,0.1,0.6,0.1c0.2,0,3.2-2.9,2.1-5.5C30.9,14.5,28.9,19.6,28.1,19.9z"/>
	<path class="st9" d="M22.2,16.4c0,0,1.6,2.1,2.6,2.6s2.9,1.2,3.8,0.9c0,0,2.3-2,2.4-4.4l-0.2-1.2"/>
	<path class="st11" d="M24.8,16.8v0.7l-1.3,0.6c0,0-0.4-0.4-0.4-0.5C23.1,17.6,24.8,16.8,24.8,16.8z"/>
	<path class="st11" d="M29.6,13.3l-1.2,1.3L21,15.4l-0.3-0.7c0.3-1,1-2,1.8-2.7c1.6-1.5,3.7-2.3,3.7-2.3c1.5,0.8,3.7-0.1,3.8-0.2
		C29.2,10.7,29.6,13.3,29.6,13.3z"/>
	<path class="st12" d="M26.2,9.7v1.4c0,0-2.6,1.4-3.1,2.1c0,0-0.5-0.5-0.5-1.2C24.1,10.5,26.2,9.7,26.2,9.7z"/>
	<path class="st12" d="M29.6,13.3L29,13.2c-0.8-1,0-3,0-3l0.9-0.8C29.2,10.7,29.6,13.3,29.6,13.3z"/>
	<path class="st13" d="M29,13.2c0,0-2.3,3.1-5.7,4.6c0,0-0.1-0.1-0.3-0.2c-0.2-0.1-0.4-0.3-0.6-0.4c-0.1-0.1-0.2-0.2-0.3-0.2
		c-0.1-0.1-0.2-0.2-0.3-0.3c-0.1-0.1-0.2-0.2-0.2-0.3c-0.1-0.1-0.1-0.2-0.2-0.2c-0.2-0.2-0.3-0.4-0.3-0.7c0-0.1-0.1-0.2-0.1-0.3
		c0,0,0.8-3.1,5.2-4.9c0,0,1.9,0.5,2.8-0.2C29,10.2,28.6,12.4,29,13.2z"/>
	<path class="st14" d="M29,13.2c0,0-2.3,3.1-5.7,4.6c0,0-0.1-0.1-0.3-0.2c-0.2-0.1-0.4-0.3-0.6-0.4c-0.1-0.1-0.2-0.2-0.3-0.2
		c-0.1-0.1-0.2-0.2-0.3-0.3c4.5-2.7,7.2-6.5,7.2-6.5S28.6,12.4,29,13.2z"/>
	<path class="st15" d="M27,14.4c0,0-0.4,0.3-0.9,0.8c-0.7,0.6-1.6,1.4-2.4,1.9c-0.3,0.2-0.6,0.4-0.8,0.5c-0.1,0-0.1-0.1-0.2-0.1l0,0
		c-0.1-0.1-0.3-0.2-0.4-0.3c0.2-0.1,0.4-0.3,0.8-0.5c0.9-0.7,2.2-1.6,2.9-2.3c0.2-0.2,0.3-0.3,0.4-0.4c0,0,0.1-0.2,0.3-0.2
		c0.1,0,0.3,0,0.4,0.1C27.4,14,27,14.4,27,14.4z"/>
	<path class="st15" d="M25.9,12.4C25.9,12.4,25.8,12.4,25.9,12.4L25.9,12.4c-0.3,0.2-0.7,0.5-1.2,1c-0.9,0.7-2,1.6-2.8,2.3
		c-0.2,0.2-0.4,0.4-0.5,0.6c0,0,0,0,0,0.1c-0.1-0.2-0.2-0.3-0.3-0.5c0-0.1,0-0.1-0.1-0.2v-0.1c0,0,0.1-0.1,0.3-0.3
		c0.7-0.6,2.1-2,3.1-2.8c0.3-0.2,0.5-0.4,0.7-0.5c0,0,0.5-0.3,0.7-0.1C25.9,11.9,26.1,12.1,25.9,12.4z"/>
	<path class="st15" d="M27.8,12c-0.1,0.2-0.3,0.4-0.3,0.4s-0.3,0.3-0.9,0.8c-0.3,0.3-0.6,0.6-1,0.9l0,0c-0.9,0.8-2.1,1.8-2.9,2.4
		c-0.3,0.2-0.6,0.4-0.8,0.5c-0.2-0.1-0.3-0.3-0.4-0.4c0,0,0,0,0-0.1c0.1-0.1,0.3-0.3,0.7-0.5c1.2-0.9,3.3-2.7,4.3-3.7
		c0.2-0.2,0.3-0.3,0.4-0.4c0,0,0.4-0.5,0.8-0.2C27.9,11.7,27.9,11.9,27.8,12z"/>
	<path class="st16" d="M29,10.2c0,0-1.2,1.4-1.3,1.4l0.1,0.2C27.8,11.8,28.9,10.5,29,10.2z"/>
	<polygon class="st9" points="25,23.6 24.6,23.8 17.4,14.4 17.4,14 17.8,14.2 	"/>
	<path class="st17" d="M25.9,12.4c0,0-0.7,0.5-1.3,1c0-0.1,0-0.4,0-0.6c0-0.1-0.1-0.2-0.1-0.3c0.3-0.2,0.5-0.4,0.7-0.5
		c0,0,0.5-0.3,0.7-0.1C25.9,11.9,26.1,12.1,25.9,12.4z"/>
	<path class="st17" d="M27.8,12c-0.1,0.2-0.3,0.4-0.3,0.4s-0.3,0.3-0.9,0.8c0-0.1,0-0.3,0-0.6c0-0.2-0.1-0.3-0.1-0.3
		c0.2-0.2,0.3-0.3,0.4-0.4c0,0,0.4-0.5,0.8-0.2C27.9,11.7,27.9,11.9,27.8,12z"/>
	<path class="st17" d="M27,14.4c0,0-0.4,0.3-0.9,0.8c0-0.1,0.1-0.3,0-0.6c0-0.1-0.1-0.2-0.1-0.3c0.2-0.2,0.3-0.3,0.4-0.4
		c0,0,0.1-0.2,0.3-0.2c0.1,0,0.3,0,0.4,0.1C27.4,14,27,14.4,27,14.4z"/>
	<path class="st17" d="M21.3,16.2C21.3,16.2,21.3,16.3,21.3,16.2c-0.1-0.1-0.2-0.3-0.3-0.4c0-0.1,0-0.1-0.1-0.2v-0.1
		c0,0,0.1-0.1,0.3-0.3c0.1,0.1,0.3,0.3,0.5,0.4C21.6,15.9,21.5,16.1,21.3,16.2z"/>
	<path class="st17" d="M22.8,16.5c-0.3,0.2-0.6,0.4-0.8,0.5c-0.2-0.1-0.3-0.3-0.4-0.4c0,0,0,0,0-0.1c0.1-0.1,0.3-0.3,0.7-0.5
		C22.4,16.1,22.6,16.3,22.8,16.5z"/>
	<path class="st18" d="M27.8,12c-0.2-0.6-0.7-0.2-0.7-0.2s0,0.1-0.1,0.1c-0.8,1-5.3,4.6-5.4,4.7l-0.1-0.1c0.6-0.4,4.8-3.8,5.4-4.7
		c0,0,0.4-0.5,0.8-0.2C27.9,11.7,27.9,11.9,27.8,12z"/>
	<path class="st17" d="M23.7,17.1c-0.3,0.2-0.6,0.4-0.8,0.5c-0.1,0-0.1-0.1-0.2-0.1l0,0c-0.1-0.1-0.3-0.2-0.4-0.3
		c0.2-0.1,0.4-0.3,0.8-0.5C23.3,16.9,23.5,17,23.7,17.1z"/>
	<path class="st18" d="M27,14.4c0,0-0.1,0.1-0.2,0.1C26.2,15,24,17,22.9,17.6c-0.1,0-0.1-0.1-0.2-0.1c1.3-0.6,3.4-2.4,4.1-3.1
		c0.1-0.1,0.2-0.3,0.2-0.3c0.1-0.3-0.3-0.5-0.3-0.5c0.1,0,0.3,0,0.4,0.1C27.4,14,27,14.4,27,14.4z"/>
	<path class="st18" d="M25.9,12.4C25.9,12.4,25.8,12.4,25.9,12.4c-0.1,0,0.1-0.4-0.2-0.5c-0.1,0-0.2,0-0.3,0.1
		c-0.5,0.2-1.2,0.8-2.4,1.8c-0.6,0.5-1.2,1.2-2,2c0-0.1,0-0.1-0.1-0.2c0,0,3.1-3.1,4.2-3.7c0,0,0.1,0,0.2-0.1c0.2-0.1,0.4-0.1,0.6,0
		C26,11.9,26.1,12.2,25.9,12.4z"/>
	<path class="st19" d="M25.9,12.4C25.9,12.4,25.8,12.4,25.9,12.4c-0.1,0,0.1-0.4-0.2-0.5c-0.1,0-0.2,0-0.3,0.1v-0.1
		c0.2-0.1,0.4-0.1,0.6,0C26,11.9,26.1,12.2,25.9,12.4z"/>
	<path class="st19" d="M27.8,12c-0.2-0.6-0.7-0.2-0.7-0.2s0,0.1-0.1,0.1l-0.1-0.1c0,0,0.4-0.5,0.8-0.2C27.9,11.7,27.9,11.9,27.8,12z
		"/>
	<path class="st19" d="M27,14.4c0,0-0.1,0.1-0.2,0.1l-0.1-0.1c0.1-0.1,0.2-0.3,0.2-0.3c0.1-0.3-0.3-0.5-0.3-0.5c0.1,0,0.3,0,0.4,0.1
		C27.4,14,27,14.4,27,14.4z"/>
</g>
</svg>
